<ttFont>
    <TTGlyph name="A" xMin="-26" yMin="-27" xMax="706" yMax="781">
      <contour>
        <pt x="706" y="30" on="1"/>
        <pt x="704" y="24" on="0"/>
        <pt x="690" y="22" on="0"/>
        <pt x="688" y="16" on="1"/>
        <pt x="678" y="18" on="0"/>
        <pt x="675" y="22" on="1"/>
        <pt x="670" y="17" on="0"/>
        <pt x="664" y="16" on="0"/>
        <pt x="662" y="15" on="1"/>
        <pt x="654" y="12" on="0"/>
        <pt x="650" y="7" on="1"/>
        <pt x="647" y="8" on="0"/>
        <pt x="641" y="12" on="0"/>
        <pt x="637" y="13" on="1"/>
        <pt x="626" y="12" on="0"/>
        <pt x="616" y="10" on="0"/>
        <pt x="612" y="10" on="1"/>
        <pt x="604" y="10" on="0"/>
        <pt x="592" y="13" on="0"/>
        <pt x="584" y="11" on="1"/>
        <pt x="580" y="9" on="0"/>
        <pt x="570" y="11" on="0"/>
        <pt x="566" y="6" on="1"/>
        <pt x="561" y="5" on="0"/>
        <pt x="559" y="9" on="0"/>
        <pt x="554" y="8" on="1"/>
        <pt x="549" y="5" on="0"/>
        <pt x="536" y="2" on="0"/>
        <pt x="529" y="0" on="1"/>
        <pt x="523" y="2" on="0"/>
        <pt x="518" y="13" on="0"/>
        <pt x="513" y="17" on="1"/>
        <pt x="514" y="22" on="0"/>
        <pt x="513" y="32" on="0"/>
        <pt x="515" y="34" on="1"/>
        <pt x="512" y="37" on="0"/>
        <pt x="512" y="44" on="0"/>
        <pt x="511" y="49" on="1"/>
        <pt x="507" y="57" on="0"/>
        <pt x="506" y="62" on="1"/>
        <pt x="504" y="72" on="0"/>
        <pt x="498" y="84" on="0"/>
        <pt x="500" y="89" on="1"/>
        <pt x="495" y="94" on="0"/>
        <pt x="493" y="107" on="0"/>
        <pt x="490" y="117" on="1"/>
        <pt x="487" y="122" on="0"/>
        <pt x="488" y="127" on="0"/>
        <pt x="487" y="129" on="1"/>
        <pt x="482" y="140" on="0"/>
        <pt x="482" y="148" on="0"/>
        <pt x="481" y="152" on="1"/>
        <pt x="477" y="161" on="0"/>
        <pt x="474" y="173" on="0"/>
        <pt x="472" y="178" on="1"/>
        <pt x="470" y="181" on="0"/>
        <pt x="466" y="186" on="0"/>
        <pt x="464" y="190" on="1"/>
        <pt x="462" y="194" on="0"/>
        <pt x="462" y="203" on="0"/>
        <pt x="460" y="207" on="1"/>
        <pt x="458" y="211" on="0"/>
        <pt x="455" y="217" on="0"/>
        <pt x="454" y="220" on="1"/>
        <pt x="452" y="226" on="0"/>
        <pt x="451" y="239" on="0"/>
        <pt x="447" y="244" on="1"/>
        <pt x="441" y="246" on="0"/>
        <pt x="429" y="242" on="0"/>
        <pt x="424" y="241" on="1"/>
        <pt x="421" y="241" on="0"/>
        <pt x="414" y="242" on="0"/>
        <pt x="411" y="241" on="1"/>
        <pt x="404" y="240" on="0"/>
        <pt x="393" y="237" on="0"/>
        <pt x="387" y="239" on="1"/>
        <pt x="383" y="239" on="0"/>
        <pt x="378" y="237" on="0"/>
        <pt x="373" y="237" on="1"/>
        <pt x="370" y="239" on="0"/>
        <pt x="355" y="238" on="0"/>
        <pt x="349" y="238" on="1"/>
        <pt x="342" y="237" on="0"/>
        <pt x="328" y="235" on="0"/>
        <pt x="324" y="237" on="1"/>
        <pt x="313" y="238" on="0"/>
        <pt x="305" y="240" on="0"/>
        <pt x="302" y="240" on="1"/>
        <pt x="294" y="241" on="0"/>
        <pt x="280" y="239" on="0"/>
        <pt x="272" y="241" on="1"/>
        <pt x="269" y="239" on="0"/>
        <pt x="261" y="237" on="0"/>
        <pt x="259" y="234" on="1"/>
        <pt x="248" y="236" on="0"/>
        <pt x="233" y="232" on="0"/>
        <pt x="222" y="233" on="1"/>
        <pt x="214" y="227" on="0"/>
        <pt x="214" y="211" on="0"/>
        <pt x="212" y="203" on="1"/>
        <pt x="210" y="195" on="0"/>
        <pt x="202" y="182" on="0"/>
        <pt x="198" y="175" on="1"/>
        <pt x="196" y="170" on="0"/>
        <pt x="192" y="160" on="0"/>
        <pt x="189" y="155" on="1"/>
        <pt x="187" y="150" on="0"/>
        <pt x="185" y="146" on="0"/>
        <pt x="184" y="144" on="1"/>
        <pt x="183" y="142" on="0"/>
        <pt x="182" y="142" on="1"/>
        <pt x="181" y="134" on="0"/>
        <pt x="177" y="129" on="0"/>
        <pt x="177" y="127" on="1"/>
        <pt x="175" y="122" on="0"/>
        <pt x="176" y="114" on="0"/>
        <pt x="175" y="109" on="1"/>
        <pt x="173" y="102" on="0"/>
        <pt x="166" y="92" on="0"/>
        <pt x="166" y="84" on="1"/>
        <pt x="158" y="78" on="0"/>
        <pt x="150" y="57" on="0"/>
        <pt x="142" y="50" on="1"/>
        <pt x="141" y="41" on="0"/>
        <pt x="135" y="25" on="0"/>
        <pt x="128" y="10" on="0"/>
        <pt x="124" y="-7" on="0"/>
        <pt x="124" y="-18" on="1"/>
        <pt x="121" y="-20" on="0"/>
        <pt x="107" y="-27" on="0"/>
        <pt x="102" y="-24" on="1"/>
        <pt x="93" y="-19" on="0"/>
        <pt x="80" y="-15" on="0"/>
        <pt x="75" y="-12" on="1"/>
        <pt x="73" y="-11" on="0"/>
        <pt x="55" y="-10" on="0"/>
        <pt x="50" y="-10" on="1"/>
        <pt x="43" y="-11" on="0"/>
        <pt x="37" y="-9" on="0"/>
        <pt x="34" y="-8" on="1"/>
        <pt x="30" y="-8" on="0"/>
        <pt x="23" y="-9" on="0"/>
        <pt x="18" y="-8" on="1"/>
        <pt x="6" y="-6" on="0"/>
        <pt x="-16" y="5" on="0"/>
        <pt x="-26" y="8" on="1"/>
        <pt x="-26" y="13" on="0"/>
        <pt x="-24" y="20" on="0"/>
        <pt x="-22" y="25" on="1"/>
        <pt x="-20" y="30" on="0"/>
        <pt x="-14" y="33" on="0"/>
        <pt x="-15" y="37" on="1"/>
        <pt x="-12" y="45" on="0"/>
        <pt x="-5" y="61" on="0"/>
        <pt x="-1" y="69" on="1"/>
        <pt x="3" y="79" on="0"/>
        <pt x="7" y="84" on="0"/>
        <pt x="9" y="86" on="1"/>
        <pt x="13" y="96" on="0"/>
        <pt x="16" y="103" on="0"/>
        <pt x="17" y="105" on="1"/>
        <pt x="19" y="110" on="0"/>
        <pt x="21" y="116" on="0"/>
        <pt x="25" y="121" on="1"/>
        <pt x="34" y="133" on="1"/>
        <pt x="37" y="143" on="0"/>
        <pt x="43" y="152" on="0"/>
        <pt x="45" y="155" on="1"/>
        <pt x="50" y="161" on="0"/>
        <pt x="56" y="174" on="0"/>
        <pt x="60" y="182" on="1"/>
        <pt x="64" y="187" on="0"/>
        <pt x="70" y="196" on="0"/>
        <pt x="72" y="202" on="1"/>
        <pt x="74" y="209" on="0"/>
        <pt x="76" y="212" on="0"/>
        <pt x="77" y="214" on="1"/>
        <pt x="78" y="220" on="0"/>
        <pt x="79" y="223" on="0"/>
        <pt x="80" y="225" on="1"/>
        <pt x="85" y="233" on="0"/>
        <pt x="92" y="253" on="0"/>
        <pt x="97" y="261" on="1"/>
        <pt x="99" y="266" on="0"/>
        <pt x="108" y="274" on="0"/>
        <pt x="108" y="281" on="1"/>
        <pt x="113" y="284" on="0"/>
        <pt x="117" y="295" on="0"/>
        <pt x="120" y="300" on="1"/>
        <pt x="122" y="305" on="0"/>
        <pt x="129" y="313" on="0"/>
        <pt x="132" y="318" on="1"/>
        <pt x="134" y="323" on="0"/>
        <pt x="139" y="334" on="0"/>
        <pt x="142" y="339" on="1"/>
        <pt x="144" y="344" on="0"/>
        <pt x="150" y="353" on="0"/>
        <pt x="156" y="355" on="1"/>
        <pt x="154" y="360" on="0"/>
        <pt x="159" y="371" on="0"/>
        <pt x="161" y="376" on="1"/>
        <pt x="163" y="380" on="0"/>
        <pt x="169" y="387" on="0"/>
        <pt x="171" y="391" on="1"/>
        <pt x="176" y="401" on="1"/>
        <pt x="180" y="411" on="0"/>
        <pt x="185" y="416" on="0"/>
        <pt x="186" y="418" on="1"/>
        <pt x="188" y="421" on="0"/>
        <pt x="187" y="427" on="0"/>
        <pt x="188" y="429" on="1"/>
        <pt x="194" y="433" on="0"/>
        <pt x="200" y="445" on="0"/>
        <pt x="204" y="452" on="1"/>
        <pt x="207" y="457" on="0"/>
        <pt x="213" y="472" on="0"/>
        <pt x="218" y="478" on="1"/>
        <pt x="217" y="483" on="0"/>
        <pt x="221" y="490" on="0"/>
        <pt x="223" y="495" on="1"/>
        <pt x="225" y="498" on="0"/>
        <pt x="228" y="505" on="0"/>
        <pt x="230" y="508" on="1"/>
        <pt x="237" y="517" on="0"/>
        <pt x="240" y="531" on="0"/>
        <pt x="242" y="537" on="1"/>
        <pt x="244" y="542" on="0"/>
        <pt x="249" y="548" on="0"/>
        <pt x="251" y="552" on="1"/>
        <pt x="253" y="556" on="0"/>
        <pt x="255" y="564" on="0"/>
        <pt x="259" y="566" on="1"/>
        <pt x="260" y="576" on="0"/>
        <pt x="267" y="590" on="0"/>
        <pt x="270" y="598" on="1"/>
        <pt x="273" y="605" on="0"/>
        <pt x="281" y="612" on="1"/>
        <pt x="282" y="618" on="0"/>
        <pt x="282" y="630" on="0"/>
        <pt x="284" y="635" on="1"/>
        <pt x="286" y="640" on="0"/>
        <pt x="292" y="646" on="0"/>
        <pt x="294" y="650" on="1"/>
        <pt x="298" y="663" on="0"/>
        <pt x="303" y="680" on="0"/>
        <pt x="306" y="688" on="1"/>
        <pt x="309" y="695" on="0"/>
        <pt x="315" y="714" on="0"/>
        <pt x="318" y="722" on="1"/>
        <pt x="321" y="728" on="0"/>
        <pt x="326" y="739" on="0"/>
        <pt x="328" y="745" on="1"/>
        <pt x="338" y="750" on="0"/>
        <pt x="348" y="768" on="0"/>
        <pt x="351" y="779" on="1"/>
        <pt x="357" y="781" on="0"/>
        <pt x="362" y="780" on="0"/>
        <pt x="365" y="780" on="1"/>
        <pt x="375" y="778" on="0"/>
        <pt x="379" y="768" on="0"/>
        <pt x="383" y="764" on="1"/>
        <pt x="388" y="758" on="0"/>
        <pt x="393" y="749" on="0"/>
        <pt x="395" y="745" on="1"/>
        <pt x="399" y="741" on="0"/>
        <pt x="408" y="727" on="0"/>
        <pt x="410" y="720" on="1"/>
        <pt x="412" y="716" on="0"/>
        <pt x="416" y="706" on="0"/>
        <pt x="418" y="701" on="1"/>
        <pt x="421" y="696" on="0"/>
        <pt x="426" y="684" on="0"/>
        <pt x="429" y="677" on="1"/>
        <pt x="432" y="669" on="0"/>
        <pt x="439" y="648" on="0"/>
        <pt x="442" y="638" on="1"/>
        <pt x="444" y="633" on="0"/>
        <pt x="445" y="625" on="0"/>
        <pt x="447" y="621" on="1"/>
        <pt x="449" y="616" on="0"/>
        <pt x="452" y="610" on="0"/>
        <pt x="454" y="607" on="1"/>
        <pt x="458" y="598" on="0"/>
        <pt x="467" y="577" on="0"/>
        <pt x="472" y="566" on="1"/>
        <pt x="474" y="563" on="0"/>
        <pt x="477" y="557" on="0"/>
        <pt x="479" y="553" on="1"/>
        <pt x="481" y="551" on="0"/>
        <pt x="484" y="545" on="0"/>
        <pt x="486" y="542" on="1"/>
        <pt x="488" y="539" on="0"/>
        <pt x="491" y="531" on="0"/>
        <pt x="494" y="528" on="1"/>
        <pt x="497" y="522" on="0"/>
        <pt x="502" y="513" on="0"/>
        <pt x="504" y="505" on="1"/>
        <pt x="506" y="499" on="0"/>
        <pt x="511" y="481" on="0"/>
        <pt x="512" y="473" on="1"/>
        <pt x="517" y="464" on="0"/>
        <pt x="526" y="441" on="0"/>
        <pt x="530" y="430" on="1"/>
        <pt x="533" y="427" on="0"/>
        <pt x="538" y="422" on="0"/>
        <pt x="541" y="418" on="1"/>
        <pt x="543" y="413" on="0"/>
        <pt x="547" y="409" on="0"/>
        <pt x="548" y="407" on="1"/>
        <pt x="552" y="398" on="0"/>
        <pt x="557" y="381" on="0"/>
        <pt x="559" y="373" on="1"/>
        <pt x="561" y="368" on="0"/>
        <pt x="567" y="358" on="0"/>
        <pt x="567" y="351" on="1"/>
        <pt x="573" y="343" on="0"/>
        <pt x="579" y="330" on="0"/>
        <pt x="581" y="325" on="1"/>
        <pt x="586" y="317" on="0"/>
        <pt x="590" y="310" on="0"/>
        <pt x="592" y="306" on="1"/>
        <pt x="599" y="297" on="0"/>
        <pt x="603" y="287" on="1"/>
        <pt x="605" y="283" on="0"/>
        <pt x="606" y="274" on="0"/>
        <pt x="608" y="271" on="1"/>
        <pt x="610" y="264" on="0"/>
        <pt x="616" y="251" on="0"/>
        <pt x="618" y="243" on="1"/>
        <pt x="623" y="239" on="0"/>
        <pt x="628" y="229" on="0"/>
        <pt x="630" y="224" on="1"/>
        <pt x="632" y="221" on="0"/>
        <pt x="636" y="210" on="0"/>
        <pt x="638" y="205" on="1"/>
        <pt x="641" y="197" on="0"/>
        <pt x="651" y="181" on="0"/>
        <pt x="653" y="173" on="1"/>
        <pt x="655" y="168" on="0"/>
        <pt x="660" y="158" on="0"/>
        <pt x="662" y="153" on="1"/>
        <pt x="664" y="148" on="0"/>
        <pt x="663" y="141" on="0"/>
        <pt x="665" y="138" on="1"/>
        <pt x="667" y="133" on="0"/>
        <pt x="671" y="125" on="1"/>
        <pt x="677" y="105" on="0"/>
        <pt x="685" y="83" on="1"/>
        <pt x="690" y="70" on="0"/>
        <pt x="703" y="44" on="0"/>
      </contour>
      <contour>
        <pt x="437" y="331" on="1"/>
        <pt x="439" y="335" on="0"/>
        <pt x="437" y="343" on="0"/>
        <pt x="436" y="348" on="1"/>
        <pt x="435" y="352" on="0"/>
        <pt x="434" y="362" on="0"/>
        <pt x="432" y="366" on="1"/>
        <pt x="430" y="370" on="0"/>
        <pt x="425" y="375" on="0"/>
        <pt x="424" y="378" on="1"/>
        <pt x="422" y="392" on="0"/>
        <pt x="419" y="413" on="0"/>
        <pt x="417" y="424" on="1"/>
        <pt x="412" y="428" on="0"/>
        <pt x="409" y="434" on="1"/>
        <pt x="403" y="442" on="0"/>
        <pt x="400" y="453" on="0"/>
        <pt x="399" y="458" on="1"/>
        <pt x="397" y="466" on="0"/>
        <pt x="393" y="477" on="0"/>
        <pt x="391" y="482" on="1"/>
        <pt x="389" y="490" on="0"/>
        <pt x="387" y="502" on="0"/>
        <pt x="385" y="508" on="1"/>
        <pt x="384" y="511" on="0"/>
        <pt x="382" y="516" on="0"/>
        <pt x="381" y="519" on="1"/>
        <pt x="379" y="525" on="0"/>
        <pt x="375" y="539" on="0"/>
        <pt x="370" y="541" on="1"/>
        <pt x="360" y="537" on="0"/>
        <pt x="359" y="529" on="1"/>
        <pt x="356" y="518" on="0"/>
        <pt x="348" y="510" on="0"/>
        <pt x="347" y="508" on="1"/>
        <pt x="345" y="497" on="0"/>
        <pt x="342" y="488" on="0"/>
        <pt x="340" y="483" on="1"/>
        <pt x="338" y="478" on="0"/>
        <pt x="335" y="470" on="0"/>
        <pt x="333" y="466" on="1"/>
        <pt x="331" y="463" on="0"/>
        <pt x="328" y="457" on="0"/>
        <pt x="327" y="455" on="1"/>
        <pt x="318" y="438" on="0"/>
        <pt x="304" y="413" on="0"/>
        <pt x="299" y="400" on="1"/>
        <pt x="297" y="395" on="0"/>
        <pt x="295" y="386" on="0"/>
        <pt x="293" y="381" on="1"/>
        <pt x="291" y="377" on="0"/>
        <pt x="285" y="371" on="0"/>
        <pt x="283" y="366" on="1"/>
        <pt x="282" y="363" on="0"/>
        <pt x="283" y="358" on="0"/>
        <pt x="282" y="354" on="1"/>
        <pt x="275" y="343" on="0"/>
        <pt x="272" y="330" on="0"/>
        <pt x="270" y="325" on="1"/>
        <pt x="281" y="320" on="0"/>
        <pt x="304" y="321" on="0"/>
        <pt x="315" y="321" on="1"/>
        <pt x="334" y="322" on="0"/>
        <pt x="374" y="325" on="0"/>
        <pt x="388" y="328" on="1"/>
        <pt x="400" y="330" on="0"/>
        <pt x="426" y="326" on="0"/>
      </contour>
    </TTGlyph>
    <TTGlyph name="AE" xMin="0" yMin="-27" xMax="1026" yMax="751">
      <contour>
        <pt x="565" y="424" on="1"/>
        <pt x="558" y="430" on="0"/>
        <pt x="557" y="466" on="0"/>
        <pt x="558" y="506" on="0"/>
        <pt x="558" y="539" on="0"/>
        <pt x="553" y="541" on="1"/>
        <pt x="545" y="540" on="0"/>
        <pt x="540" y="529" on="1"/>
        <pt x="538" y="527" on="0"/>
        <pt x="532" y="524" on="0"/>
        <pt x="530" y="521" on="1"/>
        <pt x="531" y="516" on="0"/>
        <pt x="523" y="512" on="0"/>
        <pt x="521" y="508" on="1"/>
        <pt x="515" y="494" on="0"/>
        <pt x="501" y="474" on="0"/>
        <pt x="495" y="466" on="1"/>
        <pt x="481" y="449" on="0"/>
        <pt x="452" y="417" on="0"/>
        <pt x="440" y="400" on="1"/>
        <pt x="437" y="395" on="0"/>
        <pt x="433" y="386" on="0"/>
        <pt x="429" y="381" on="1"/>
        <pt x="426" y="376" on="0"/>
        <pt x="418" y="371" on="0"/>
        <pt x="415" y="366" on="1"/>
        <pt x="413" y="363" on="0"/>
        <pt x="412" y="357" on="0"/>
        <pt x="410" y="354" on="1"/>
        <pt x="400" y="343" on="0"/>
        <pt x="393" y="330" on="0"/>
        <pt x="390" y="325" on="1"/>
        <pt x="398" y="321" on="0"/>
        <pt x="430" y="320" on="0"/>
        <pt x="466" y="322" on="0"/>
        <pt x="499" y="326" on="0"/>
        <pt x="508" y="328" on="1"/>
        <pt x="521" y="330" on="0"/>
        <pt x="547" y="327" on="0"/>
        <pt x="559" y="331" on="1"/>
        <pt x="561" y="335" on="0"/>
        <pt x="564" y="361" on="0"/>
        <pt x="563" y="366" on="1"/>
        <pt x="563" y="369" on="0"/>
        <pt x="559" y="376" on="0"/>
        <pt x="559" y="378" on="1"/>
        <pt x="559" y="386" on="0"/>
        <pt x="564" y="415" on="0"/>
      </contour>
      <contour>
        <pt x="553" y="0" on="1"/>
        <pt x="548" y="2" on="0"/>
        <pt x="545" y="13" on="0"/>
        <pt x="542" y="17" on="1"/>
        <pt x="544" y="22" on="0"/>
        <pt x="546" y="32" on="0"/>
        <pt x="549" y="34" on="1"/>
        <pt x="547" y="37" on="0"/>
        <pt x="548" y="44" on="0"/>
        <pt x="548" y="49" on="1"/>
        <pt x="548" y="62" on="1"/>
        <pt x="549" y="72" on="0"/>
        <pt x="546" y="84" on="0"/>
        <pt x="550" y="89" on="1"/>
        <pt x="546" y="94" on="0"/>
        <pt x="548" y="107" on="0"/>
        <pt x="549" y="117" on="1"/>
        <pt x="547" y="122" on="0"/>
        <pt x="549" y="127" on="0"/>
        <pt x="549" y="129" on="1"/>
        <pt x="548" y="140" on="0"/>
        <pt x="550" y="148" on="0"/>
        <pt x="550" y="152" on="1"/>
        <pt x="548" y="161" on="0"/>
        <pt x="550" y="173" on="0"/>
        <pt x="548" y="178" on="1"/>
        <pt x="548" y="181" on="0"/>
        <pt x="545" y="186" on="0"/>
        <pt x="544" y="190" on="1"/>
        <pt x="543" y="194" on="0"/>
        <pt x="545" y="203" on="0"/>
        <pt x="544" y="207" on="1"/>
        <pt x="544" y="211" on="0"/>
        <pt x="542" y="217" on="0"/>
        <pt x="542" y="220" on="1"/>
        <pt x="542" y="226" on="0"/>
        <pt x="545" y="239" on="0"/>
        <pt x="543" y="244" on="1"/>
        <pt x="538" y="246" on="0"/>
        <pt x="524" y="242" on="0"/>
        <pt x="518" y="241" on="1"/>
        <pt x="515" y="241" on="0"/>
        <pt x="509" y="242" on="0"/>
        <pt x="506" y="241" on="1"/>
        <pt x="500" y="240" on="0"/>
        <pt x="486" y="237" on="0"/>
        <pt x="481" y="239" on="1"/>
        <pt x="477" y="239" on="0"/>
        <pt x="471" y="237" on="0"/>
        <pt x="466" y="237" on="1"/>
        <pt x="464" y="239" on="0"/>
        <pt x="449" y="238" on="0"/>
        <pt x="443" y="238" on="1"/>
        <pt x="436" y="237" on="0"/>
        <pt x="421" y="235" on="0"/>
        <pt x="417" y="237" on="1"/>
        <pt x="407" y="238" on="0"/>
        <pt x="399" y="240" on="0"/>
        <pt x="396" y="240" on="1"/>
        <pt x="388" y="241" on="0"/>
        <pt x="373" y="239" on="0"/>
        <pt x="367" y="241" on="1"/>
        <pt x="362" y="239" on="0"/>
        <pt x="354" y="237" on="0"/>
        <pt x="351" y="234" on="1"/>
        <pt x="341" y="236" on="0"/>
        <pt x="325" y="232" on="0"/>
        <pt x="314" y="233" on="1"/>
        <pt x="304" y="227" on="0"/>
        <pt x="300" y="211" on="0"/>
        <pt x="295" y="203" on="1"/>
        <pt x="291" y="195" on="0"/>
        <pt x="279" y="182" on="0"/>
        <pt x="272" y="175" on="1"/>
        <pt x="269" y="170" on="0"/>
        <pt x="262" y="160" on="0"/>
        <pt x="258" y="155" on="1"/>
        <pt x="252" y="146" on="0"/>
        <pt x="250" y="144" on="1"/>
        <pt x="248" y="142" on="1"/>
        <pt x="245" y="134" on="0"/>
        <pt x="240" y="129" on="0"/>
        <pt x="238" y="127" on="1"/>
        <pt x="235" y="122" on="0"/>
        <pt x="233" y="114" on="0"/>
        <pt x="230" y="109" on="1"/>
        <pt x="227" y="102" on="0"/>
        <pt x="216" y="92" on="0"/>
        <pt x="214" y="84" on="1"/>
        <pt x="205" y="78" on="0"/>
        <pt x="191" y="57" on="0"/>
        <pt x="180" y="50" on="1"/>
        <pt x="172" y="31" on="0"/>
        <pt x="148" y="4" on="0"/>
        <pt x="142" y="-18" on="1"/>
        <pt x="138" y="-20" on="0"/>
        <pt x="122" y="-27" on="0"/>
        <pt x="119" y="-24" on="1"/>
        <pt x="111" y="-19" on="0"/>
        <pt x="99" y="-15" on="0"/>
        <pt x="94" y="-12" on="1"/>
        <pt x="92" y="-11" on="0"/>
        <pt x="76" y="-10" on="0"/>
        <pt x="71" y="-10" on="1"/>
        <pt x="63" y="-11" on="0"/>
        <pt x="57" y="-9" on="0"/>
        <pt x="54" y="-8" on="1"/>
        <pt x="50" y="-8" on="0"/>
        <pt x="43" y="-9" on="0"/>
        <pt x="40" y="-8" on="1"/>
        <pt x="29" y="-6" on="0"/>
        <pt x="8" y="5" on="0"/>
        <pt x="0" y="8" on="1"/>
        <pt x="2" y="13" on="0"/>
        <pt x="6" y="20" on="0"/>
        <pt x="8" y="25" on="1"/>
        <pt x="10" y="30" on="0"/>
        <pt x="18" y="33" on="0"/>
        <pt x="19" y="37" on="1"/>
        <pt x="32" y="53" on="0"/>
        <pt x="42" y="69" on="1"/>
        <pt x="44" y="71" on="0"/>
        <pt x="47" y="76" on="0"/>
        <pt x="49" y="78" on="1"/>
        <pt x="51" y="81" on="0"/>
        <pt x="56" y="84" on="0"/>
        <pt x="58" y="86" on="1"/>
        <pt x="60" y="88" on="0"/>
        <pt x="63" y="94" on="0"/>
        <pt x="65" y="96" on="1"/>
        <pt x="67" y="99" on="0"/>
        <pt x="73" y="105" on="1"/>
        <pt x="75" y="110" on="0"/>
        <pt x="79" y="116" on="0"/>
        <pt x="84" y="121" on="1"/>
        <pt x="87" y="124" on="0"/>
        <pt x="94" y="130" on="0"/>
        <pt x="96" y="133" on="1"/>
        <pt x="102" y="143" on="0"/>
        <pt x="112" y="152" on="0"/>
        <pt x="115" y="155" on="1"/>
        <pt x="120" y="161" on="0"/>
        <pt x="132" y="174" on="0"/>
        <pt x="138" y="182" on="1"/>
        <pt x="142" y="187" on="0"/>
        <pt x="151" y="196" on="0"/>
        <pt x="155" y="202" on="1"/>
        <pt x="159" y="209" on="0"/>
        <pt x="162" y="212" on="0"/>
        <pt x="163" y="214" on="1"/>
        <pt x="166" y="220" on="0"/>
        <pt x="168" y="223" on="0"/>
        <pt x="170" y="225" on="1"/>
        <pt x="177" y="233" on="0"/>
        <pt x="190" y="253" on="0"/>
        <pt x="198" y="261" on="1"/>
        <pt x="202" y="266" on="0"/>
        <pt x="212" y="274" on="0"/>
        <pt x="214" y="281" on="1"/>
        <pt x="220" y="284" on="0"/>
        <pt x="227" y="295" on="0"/>
        <pt x="231" y="300" on="1"/>
        <pt x="241" y="309" on="0"/>
        <pt x="249" y="318" on="1"/>
        <pt x="254" y="323" on="0"/>
        <pt x="261" y="334" on="0"/>
        <pt x="266" y="339" on="1"/>
        <pt x="270" y="344" on="0"/>
        <pt x="278" y="353" on="0"/>
        <pt x="285" y="355" on="1"/>
        <pt x="285" y="360" on="0"/>
        <pt x="292" y="371" on="0"/>
        <pt x="296" y="376" on="1"/>
        <pt x="299" y="380" on="0"/>
        <pt x="307" y="387" on="0"/>
        <pt x="310" y="391" on="1"/>
        <pt x="312" y="394" on="0"/>
        <pt x="316" y="398" on="0"/>
        <pt x="318" y="401" on="1"/>
        <pt x="320" y="403" on="0"/>
        <pt x="323" y="410" on="0"/>
        <pt x="325" y="412" on="1"/>
        <pt x="334" y="420" on="0"/>
        <pt x="337" y="427" on="0"/>
        <pt x="339" y="429" on="1"/>
        <pt x="345" y="433" on="0"/>
        <pt x="355" y="445" on="0"/>
        <pt x="361" y="452" on="1"/>
        <pt x="366" y="457" on="0"/>
        <pt x="376" y="472" on="0"/>
        <pt x="383" y="478" on="1"/>
        <pt x="384" y="483" on="0"/>
        <pt x="390" y="490" on="0"/>
        <pt x="393" y="495" on="1"/>
        <pt x="395" y="498" on="0"/>
        <pt x="401" y="505" on="0"/>
        <pt x="403" y="508" on="1"/>
        <pt x="413" y="517" on="0"/>
        <pt x="420" y="531" on="0"/>
        <pt x="425" y="537" on="1"/>
        <pt x="427" y="542" on="0"/>
        <pt x="434" y="548" on="0"/>
        <pt x="437" y="552" on="1"/>
        <pt x="440" y="556" on="0"/>
        <pt x="446" y="564" on="0"/>
        <pt x="451" y="566" on="1"/>
        <pt x="454" y="576" on="0"/>
        <pt x="465" y="590" on="0"/>
        <pt x="470" y="598" on="1"/>
        <pt x="476" y="606" on="0"/>
        <pt x="485" y="612" on="1"/>
        <pt x="487" y="618" on="0"/>
        <pt x="491" y="630" on="0"/>
        <pt x="496" y="635" on="1"/>
        <pt x="498" y="640" on="0"/>
        <pt x="507" y="646" on="0"/>
        <pt x="510" y="650" on="1"/>
        <pt x="518" y="663" on="0"/>
        <pt x="528" y="680" on="0"/>
        <pt x="534" y="688" on="1"/>
        <pt x="539" y="695" on="0"/>
        <pt x="552" y="720" on="0"/>
        <pt x="557" y="729" on="1"/>
        <pt x="559" y="734" on="0"/>
        <pt x="564" y="748" on="0"/>
        <pt x="569" y="750" on="1"/>
        <pt x="612" y="742" on="0"/>
        <pt x="694" y="751" on="0"/>
        <pt x="732" y="748" on="1"/>
        <pt x="743" y="746" on="0"/>
        <pt x="764" y="741" on="0"/>
        <pt x="775" y="740" on="1"/>
        <pt x="782" y="739" on="0"/>
        <pt x="798" y="742" on="0"/>
        <pt x="807" y="743" on="1"/>
        <pt x="817" y="741" on="0"/>
        <pt x="824" y="742" on="0"/>
        <pt x="826" y="742" on="1"/>
        <pt x="831" y="742" on="0"/>
        <pt x="840" y="739" on="0"/>
        <pt x="845" y="739" on="1"/>
        <pt x="853" y="737" on="0"/>
        <pt x="866" y="737" on="0"/>
        <pt x="874" y="736" on="1"/>
        <pt x="882" y="736" on="0"/>
        <pt x="894" y="738" on="0"/>
        <pt x="901" y="737" on="1"/>
        <pt x="910" y="737" on="0"/>
        <pt x="937" y="732" on="0"/>
        <pt x="948" y="731" on="1"/>
        <pt x="956" y="732" on="0"/>
        <pt x="965" y="730" on="0"/>
        <pt x="967" y="729" on="1"/>
        <pt x="980" y="727" on="0"/>
        <pt x="1004" y="729" on="0"/>
        <pt x="1018" y="727" on="1"/>
        <pt x="1020" y="724" on="0"/>
        <pt x="1024" y="715" on="0"/>
        <pt x="1026" y="705" on="0"/>
        <pt x="1022" y="696" on="0"/>
        <pt x="1017" y="695" on="1"/>
        <pt x="1020" y="691" on="0"/>
        <pt x="1017" y="684" on="0"/>
        <pt x="1017" y="679" on="1"/>
        <pt x="1017" y="668" on="0"/>
        <pt x="1018" y="646" on="0"/>
        <pt x="1016" y="636" on="1"/>
        <pt x="1015" y="631" on="0"/>
        <pt x="1011" y="624" on="0"/>
        <pt x="1009" y="620" on="1"/>
        <pt x="1005" y="609" on="0"/>
        <pt x="1000" y="605" on="1"/>
        <pt x="992" y="600" on="0"/>
        <pt x="969" y="608" on="0"/>
        <pt x="959" y="604" on="1"/>
        <pt x="951" y="610" on="0"/>
        <pt x="935" y="606" on="0"/>
        <pt x="927" y="613" on="1"/>
        <pt x="916" y="610" on="0"/>
        <pt x="900" y="614" on="0"/>
        <pt x="890" y="615" on="1"/>
        <pt x="887" y="615" on="0"/>
        <pt x="881" y="613" on="0"/>
        <pt x="879" y="614" on="1"/>
        <pt x="873" y="615" on="0"/>
        <pt x="862" y="620" on="0"/>
        <pt x="857" y="620" on="1"/>
        <pt x="853" y="621" on="0"/>
        <pt x="845" y="618" on="0"/>
        <pt x="841" y="618" on="1"/>
        <pt x="822" y="618" on="1"/>
        <pt x="810" y="620" on="0"/>
        <pt x="778" y="622" on="0"/>
        <pt x="760" y="624" on="1"/>
        <pt x="744" y="626" on="0"/>
        <pt x="714" y="626" on="0"/>
        <pt x="696" y="624" on="1"/>
        <pt x="692" y="614" on="0"/>
        <pt x="694" y="593" on="0"/>
        <pt x="696" y="582" on="1"/>
        <pt x="697" y="571" on="0"/>
        <pt x="698" y="549" on="0"/>
        <pt x="698" y="538" on="1"/>
        <pt x="698" y="535" on="0"/>
        <pt x="696" y="528" on="0"/>
        <pt x="696" y="525" on="1"/>
        <pt x="696" y="519" on="0"/>
        <pt x="698" y="501" on="0"/>
        <pt x="698" y="493" on="1"/>
        <pt x="699" y="486" on="0"/>
        <pt x="696" y="475" on="0"/>
        <pt x="700" y="469" on="1"/>
        <pt x="709" y="466" on="0"/>
        <pt x="720" y="466" on="1"/>
        <pt x="726" y="465" on="0"/>
        <pt x="739" y="465" on="0"/>
        <pt x="746" y="465" on="1"/>
        <pt x="757" y="466" on="0"/>
        <pt x="778" y="466" on="0"/>
        <pt x="790" y="466" on="1"/>
        <pt x="806" y="466" on="0"/>
        <pt x="838" y="466" on="0"/>
        <pt x="858" y="468" on="1"/>
        <pt x="867" y="469" on="0"/>
        <pt x="885" y="472" on="0"/>
        <pt x="893" y="467" on="1"/>
        <pt x="898" y="469" on="0"/>
        <pt x="910" y="469" on="0"/>
        <pt x="914" y="470" on="1"/>
        <pt x="919" y="471" on="0"/>
        <pt x="926" y="469" on="0"/>
        <pt x="931" y="469" on="1"/>
        <pt x="946" y="470" on="0"/>
        <pt x="965" y="468" on="0"/>
        <pt x="973" y="468" on="1"/>
        <pt x="978" y="469" on="0"/>
        <pt x="986" y="471" on="0"/>
        <pt x="991" y="470" on="1"/>
        <pt x="995" y="470" on="0"/>
        <pt x="997" y="463" on="0"/>
        <pt x="998" y="460" on="1"/>
        <pt x="1003" y="452" on="0"/>
        <pt x="1003" y="435" on="0"/>
        <pt x="1001" y="423" on="1"/>
        <pt x="1002" y="418" on="0"/>
        <pt x="999" y="409" on="0"/>
        <pt x="999" y="406" on="1"/>
        <pt x="998" y="382" on="0"/>
        <pt x="1005" y="361" on="1"/>
        <pt x="1002" y="356" on="0"/>
        <pt x="998" y="345" on="0"/>
        <pt x="994" y="341" on="1"/>
        <pt x="990" y="342" on="0"/>
        <pt x="984" y="338" on="0"/>
        <pt x="981" y="338" on="1"/>
        <pt x="976" y="338" on="0"/>
        <pt x="971" y="341" on="0"/>
        <pt x="967" y="343" on="1"/>
        <pt x="967" y="344" on="0"/>
        <pt x="963" y="344" on="0"/>
        <pt x="959" y="343" on="0"/>
        <pt x="956" y="345" on="0"/>
        <pt x="956" y="348" on="1"/>
        <pt x="947" y="342" on="0"/>
        <pt x="933" y="341" on="0"/>
        <pt x="930" y="337" on="1"/>
        <pt x="925" y="341" on="0"/>
        <pt x="912" y="340" on="0"/>
        <pt x="905" y="338" on="1"/>
        <pt x="900" y="340" on="0"/>
        <pt x="889" y="341" on="0"/>
        <pt x="881" y="342" on="1"/>
        <pt x="876" y="344" on="0"/>
        <pt x="862" y="338" on="0"/>
        <pt x="857" y="337" on="1"/>
        <pt x="848" y="340" on="0"/>
        <pt x="832" y="336" on="0"/>
        <pt x="824" y="333" on="1"/>
        <pt x="819" y="332" on="0"/>
        <pt x="818" y="339" on="0"/>
        <pt x="813" y="338" on="1"/>
        <pt x="808" y="335" on="0"/>
        <pt x="795" y="336" on="0"/>
        <pt x="792" y="332" on="1"/>
        <pt x="785" y="337" on="0"/>
        <pt x="767" y="332" on="0"/>
        <pt x="762" y="338" on="1"/>
        <pt x="759" y="334" on="0"/>
        <pt x="751" y="337" on="0"/>
        <pt x="746" y="336" on="1"/>
        <pt x="743" y="336" on="0"/>
        <pt x="736" y="334" on="0"/>
        <pt x="732" y="334" on="1"/>
        <pt x="726" y="333" on="0"/>
        <pt x="714" y="337" on="0"/>
        <pt x="709" y="334" on="1"/>
        <pt x="704" y="331" on="0"/>
        <pt x="706" y="321" on="0"/>
        <pt x="705" y="315" on="1"/>
        <pt x="705" y="312" on="0"/>
        <pt x="701" y="306" on="0"/>
        <pt x="701" y="303" on="1"/>
        <pt x="701" y="299" on="0"/>
        <pt x="705" y="292" on="0"/>
        <pt x="705" y="288" on="1"/>
        <pt x="702" y="273" on="0"/>
        <pt x="697" y="253" on="1"/>
        <pt x="692" y="237" on="0"/>
        <pt x="693" y="219" on="0"/>
        <pt x="688" y="212" on="1"/>
        <pt x="689" y="209" on="0"/>
        <pt x="690" y="204" on="0"/>
        <pt x="691" y="201" on="1"/>
        <pt x="693" y="184" on="0"/>
        <pt x="691" y="167" on="1"/>
        <pt x="691" y="161" on="0"/>
        <pt x="691" y="148" on="0"/>
        <pt x="689" y="141" on="1"/>
        <pt x="689" y="138" on="0"/>
        <pt x="686" y="132" on="0"/>
        <pt x="686" y="129" on="1"/>
        <pt x="685" y="124" on="0"/>
        <pt x="689" y="112" on="0"/>
        <pt x="687" y="106" on="1"/>
        <pt x="696" y="101" on="0"/>
        <pt x="718" y="103" on="0"/>
        <pt x="731" y="103" on="1"/>
        <pt x="748" y="104" on="0"/>
        <pt x="783" y="108" on="0"/>
        <pt x="798" y="108" on="1"/>
        <pt x="806" y="108" on="0"/>
        <pt x="818" y="104" on="0"/>
        <pt x="825" y="106" on="1"/>
        <pt x="833" y="108" on="0"/>
        <pt x="851" y="111" on="0"/>
        <pt x="859" y="110" on="1"/>
        <pt x="870" y="111" on="0"/>
        <pt x="884" y="109" on="0"/>
        <pt x="890" y="109" on="1"/>
        <pt x="898" y="109" on="0"/>
        <pt x="914" y="110" on="0"/>
        <pt x="922" y="111" on="1"/>
        <pt x="926" y="112" on="0"/>
        <pt x="933" y="114" on="0"/>
        <pt x="937" y="114" on="1"/>
        <pt x="944" y="113" on="0"/>
        <pt x="949" y="114" on="0"/>
        <pt x="951" y="114" on="1"/>
        <pt x="957" y="112" on="0"/>
        <pt x="962" y="114" on="0"/>
        <pt x="964" y="114" on="1"/>
        <pt x="967" y="112" on="0"/>
        <pt x="979" y="117" on="0"/>
        <pt x="988" y="115" on="1"/>
        <pt x="990" y="113" on="0"/>
        <pt x="991" y="104" on="0"/>
        <pt x="994" y="102" on="1"/>
        <pt x="993" y="97" on="0"/>
        <pt x="999" y="95" on="0"/>
        <pt x="1000" y="91" on="1"/>
        <pt x="1003" y="67" on="0"/>
        <pt x="997" y="20" on="0"/>
        <pt x="995" y="-6" on="1"/>
        <pt x="993" y="-9" on="0"/>
        <pt x="987" y="-12" on="0"/>
        <pt x="983" y="-14" on="1"/>
        <pt x="981" y="-16" on="0"/>
        <pt x="974" y="-20" on="0"/>
        <pt x="970" y="-20" on="1"/>
        <pt x="967" y="-20" on="0"/>
        <pt x="958" y="-17" on="0"/>
        <pt x="953" y="-16" on="1"/>
        <pt x="948" y="-16" on="0"/>
        <pt x="939" y="-18" on="0"/>
        <pt x="934" y="-18" on="1"/>
        <pt x="926" y="-18" on="0"/>
        <pt x="907" y="-16" on="0"/>
        <pt x="896" y="-15" on="1"/>
        <pt x="885" y="-14" on="0"/>
        <pt x="866" y="-13" on="0"/>
        <pt x="861" y="-10" on="1"/>
        <pt x="856" y="-9" on="0"/>
        <pt x="852" y="-14" on="0"/>
        <pt x="848" y="-14" on="1"/>
        <pt x="838" y="-11" on="0"/>
        <pt x="814" y="-11" on="0"/>
        <pt x="802" y="-10" on="1"/>
        <pt x="793" y="-9" on="0"/>
        <pt x="775" y="-12" on="0"/>
        <pt x="765" y="-12" on="1"/>
        <pt x="757" y="-13" on="0"/>
        <pt x="740" y="-11" on="0"/>
        <pt x="732" y="-12" on="1"/>
        <pt x="724" y="-12" on="0"/>
        <pt x="708" y="-15" on="0"/>
        <pt x="700" y="-14" on="1"/>
        <pt x="695" y="-14" on="0"/>
        <pt x="688" y="-11" on="0"/>
        <pt x="683" y="-11" on="1"/>
        <pt x="678" y="-12" on="0"/>
        <pt x="670" y="-9" on="0"/>
        <pt x="667" y="-9" on="1"/>
        <pt x="657" y="-7" on="0"/>
        <pt x="640" y="-6" on="0"/>
        <pt x="632" y="-1" on="1"/>
        <pt x="628" y="-3" on="0"/>
        <pt x="621" y="-1" on="0"/>
        <pt x="616" y="-1" on="1"/>
        <pt x="611" y="-2" on="0"/>
        <pt x="606" y="-1" on="0"/>
        <pt x="604" y="-1" on="1"/>
        <pt x="596" y="-2" on="0"/>
        <pt x="584" y="-7" on="0"/>
        <pt x="578" y="-5" on="1"/>
      </contour>
    </TTGlyph>
    <TTGlyph name="Aacute" xMin="-26" yMin="-27" xMax="706" yMax="1013">
      <component glyphName="A" x="0" y="0" flags="0x204"/>
      <component glyphName="acute" x="-81" y="164" flags="0x4"/>
    </TTGlyph>
    <TTGlyph name="Acircumflex" xMin="-26" yMin="-27" xMax="706" yMax="1020">
      <component glyphName="A" x="0" y="0" flags="0x204"/>
      <component glyphName="circumflex" x="-60" y="164" flags="0x4"/>
    </TTGlyph>
    <TTGlyph name="Adieresis" xMin="-26" yMin="-27" xMax="706" yMax="981">
      <component glyphName="A" x="0" y="0" flags="0x204"/>
      <component glyphName="dieresis" x="-60" y="143" flags="0x4"/>
    </TTGlyph>
    <TTGlyph name="Agrave" xMin="-26" yMin="-27" xMax="706" yMax="1003">
      <component glyphName="A" x="0" y="0" flags="0x204"/>
      <component glyphName="grave" x="-71" y="154" flags="0x4"/>
    </TTGlyph>
    <TTGlyph name="Aring" xMin="-26" yMin="-27" xMax="706" yMax="948">
      <contour>
        <pt x="462" y="883" on="1"/>
        <pt x="463" y="875" on="0"/>
        <pt x="462" y="852" on="0"/>
        <pt x="461" y="842" on="1"/>
        <pt x="460" y="837" on="0"/>
        <pt x="460" y="824" on="0"/>
        <pt x="459" y="821" on="1"/>
        <pt x="457" y="817" on="0"/>
        <pt x="451" y="811" on="0"/>
        <pt x="449" y="807" on="1"/>
        <pt x="447" y="805" on="0"/>
        <pt x="446" y="798" on="0"/>
        <pt x="444" y="796" on="1"/>
        <pt x="442" y="789" on="0"/>
        <pt x="439" y="785" on="1"/>
        <pt x="436" y="780" on="0"/>
        <pt x="429" y="771" on="0"/>
        <pt x="429" y="766" on="1"/>
        <pt x="421" y="762" on="0"/>
        <pt x="418" y="758" on="0"/>
        <pt x="416" y="757" on="1"/>
        <pt x="414" y="755" on="0"/>
        <pt x="406" y="755" on="0"/>
        <pt x="406" y="750" on="1"/>
        <pt x="401" y="750" on="0"/>
        <pt x="393" y="748" on="1"/>
        <pt x="405" y="734" on="0"/>
        <pt x="410" y="720" on="1"/>
        <pt x="412" y="716" on="0"/>
        <pt x="416" y="706" on="0"/>
        <pt x="418" y="701" on="1"/>
        <pt x="421" y="696" on="0"/>
        <pt x="426" y="684" on="0"/>
        <pt x="429" y="677" on="1"/>
        <pt x="432" y="669" on="0"/>
        <pt x="439" y="648" on="0"/>
        <pt x="442" y="638" on="1"/>
        <pt x="444" y="633" on="0"/>
        <pt x="445" y="625" on="0"/>
        <pt x="447" y="621" on="1"/>
        <pt x="449" y="616" on="0"/>
        <pt x="452" y="610" on="0"/>
        <pt x="454" y="607" on="1"/>
        <pt x="458" y="598" on="0"/>
        <pt x="467" y="577" on="0"/>
        <pt x="472" y="566" on="1"/>
        <pt x="474" y="563" on="0"/>
        <pt x="477" y="557" on="0"/>
        <pt x="479" y="553" on="1"/>
        <pt x="481" y="551" on="0"/>
        <pt x="484" y="545" on="0"/>
        <pt x="486" y="542" on="1"/>
        <pt x="488" y="539" on="0"/>
        <pt x="491" y="531" on="0"/>
        <pt x="494" y="528" on="1"/>
        <pt x="497" y="522" on="0"/>
        <pt x="502" y="513" on="0"/>
        <pt x="504" y="505" on="1"/>
        <pt x="506" y="499" on="0"/>
        <pt x="511" y="481" on="0"/>
        <pt x="512" y="473" on="1"/>
        <pt x="517" y="464" on="0"/>
        <pt x="526" y="441" on="0"/>
        <pt x="530" y="430" on="1"/>
        <pt x="533" y="427" on="0"/>
        <pt x="538" y="422" on="0"/>
        <pt x="541" y="418" on="1"/>
        <pt x="543" y="413" on="0"/>
        <pt x="547" y="409" on="0"/>
        <pt x="548" y="407" on="1"/>
        <pt x="552" y="398" on="0"/>
        <pt x="557" y="381" on="0"/>
        <pt x="559" y="373" on="1"/>
        <pt x="561" y="368" on="0"/>
        <pt x="567" y="358" on="0"/>
        <pt x="567" y="351" on="1"/>
        <pt x="573" y="343" on="0"/>
        <pt x="579" y="330" on="0"/>
        <pt x="582" y="325" on="1"/>
        <pt x="586" y="317" on="0"/>
        <pt x="590" y="310" on="0"/>
        <pt x="592" y="306" on="1"/>
        <pt x="599" y="297" on="0"/>
        <pt x="603" y="287" on="1"/>
        <pt x="605" y="283" on="0"/>
        <pt x="606" y="274" on="0"/>
        <pt x="608" y="271" on="1"/>
        <pt x="610" y="264" on="0"/>
        <pt x="617" y="251" on="0"/>
        <pt x="620" y="243" on="1"/>
        <pt x="623" y="239" on="0"/>
        <pt x="628" y="229" on="0"/>
        <pt x="630" y="224" on="1"/>
        <pt x="632" y="221" on="0"/>
        <pt x="636" y="210" on="0"/>
        <pt x="638" y="205" on="1"/>
        <pt x="641" y="197" on="0"/>
        <pt x="651" y="181" on="0"/>
        <pt x="653" y="173" on="1"/>
        <pt x="655" y="168" on="0"/>
        <pt x="660" y="158" on="0"/>
        <pt x="662" y="153" on="1"/>
        <pt x="664" y="148" on="0"/>
        <pt x="663" y="141" on="0"/>
        <pt x="665" y="138" on="1"/>
        <pt x="667" y="133" on="0"/>
        <pt x="671" y="125" on="1"/>
        <pt x="674" y="115" on="0"/>
        <pt x="681" y="93" on="0"/>
        <pt x="685" y="83" on="1"/>
        <pt x="690" y="70" on="0"/>
        <pt x="703" y="44" on="0"/>
        <pt x="706" y="30" on="1"/>
        <pt x="704" y="24" on="0"/>
        <pt x="690" y="22" on="0"/>
        <pt x="688" y="16" on="1"/>
        <pt x="684" y="17" on="0"/>
        <pt x="677" y="19" on="0"/>
        <pt x="675" y="23" on="1"/>
        <pt x="670" y="17" on="0"/>
        <pt x="664" y="16" on="0"/>
        <pt x="662" y="15" on="1"/>
        <pt x="654" y="12" on="0"/>
        <pt x="650" y="8" on="1"/>
        <pt x="647" y="8" on="0"/>
        <pt x="641" y="12" on="0"/>
        <pt x="637" y="13" on="1"/>
        <pt x="626" y="12" on="0"/>
        <pt x="616" y="10" on="0"/>
        <pt x="612" y="10" on="1"/>
        <pt x="604" y="10" on="0"/>
        <pt x="592" y="13" on="0"/>
        <pt x="584" y="11" on="1"/>
        <pt x="580" y="9" on="0"/>
        <pt x="570" y="11" on="0"/>
        <pt x="566" y="6" on="1"/>
        <pt x="561" y="5" on="0"/>
        <pt x="559" y="9" on="0"/>
        <pt x="554" y="8" on="1"/>
        <pt x="549" y="5" on="0"/>
        <pt x="536" y="2" on="0"/>
        <pt x="529" y="0" on="1"/>
        <pt x="523" y="2" on="0"/>
        <pt x="518" y="13" on="0"/>
        <pt x="513" y="17" on="1"/>
        <pt x="514" y="22" on="0"/>
        <pt x="513" y="32" on="0"/>
        <pt x="515" y="34" on="1"/>
        <pt x="512" y="37" on="0"/>
        <pt x="512" y="44" on="0"/>
        <pt x="511" y="49" on="1"/>
        <pt x="507" y="57" on="0"/>
        <pt x="506" y="62" on="1"/>
        <pt x="504" y="72" on="0"/>
        <pt x="498" y="84" on="0"/>
        <pt x="500" y="89" on="1"/>
        <pt x="495" y="94" on="0"/>
        <pt x="493" y="107" on="0"/>
        <pt x="490" y="117" on="1"/>
        <pt x="487" y="122" on="0"/>
        <pt x="488" y="127" on="0"/>
        <pt x="487" y="129" on="1"/>
        <pt x="482" y="140" on="0"/>
        <pt x="482" y="148" on="0"/>
        <pt x="481" y="152" on="1"/>
        <pt x="477" y="161" on="0"/>
        <pt x="474" y="173" on="0"/>
        <pt x="472" y="178" on="1"/>
        <pt x="470" y="181" on="0"/>
        <pt x="466" y="186" on="0"/>
        <pt x="464" y="190" on="1"/>
        <pt x="462" y="194" on="0"/>
        <pt x="462" y="203" on="0"/>
        <pt x="460" y="207" on="1"/>
        <pt x="458" y="211" on="0"/>
        <pt x="455" y="217" on="0"/>
        <pt x="454" y="220" on="1"/>
        <pt x="452" y="226" on="0"/>
        <pt x="451" y="239" on="0"/>
        <pt x="447" y="244" on="1"/>
        <pt x="441" y="246" on="0"/>
        <pt x="429" y="242" on="0"/>
        <pt x="424" y="241" on="1"/>
        <pt x="421" y="241" on="0"/>
        <pt x="414" y="242" on="0"/>
        <pt x="411" y="241" on="1"/>
        <pt x="404" y="240" on="0"/>
        <pt x="393" y="237" on="0"/>
        <pt x="388" y="239" on="1"/>
        <pt x="383" y="239" on="0"/>
        <pt x="378" y="237" on="0"/>
        <pt x="373" y="237" on="1"/>
        <pt x="370" y="238" on="0"/>
        <pt x="355" y="238" on="0"/>
        <pt x="349" y="238" on="1"/>
        <pt x="342" y="237" on="0"/>
        <pt x="328" y="235" on="0"/>
        <pt x="324" y="237" on="1"/>
        <pt x="313" y="238" on="0"/>
        <pt x="305" y="240" on="0"/>
        <pt x="302" y="240" on="1"/>
        <pt x="294" y="241" on="0"/>
        <pt x="280" y="239" on="0"/>
        <pt x="272" y="241" on="1"/>
        <pt x="269" y="239" on="0"/>
        <pt x="261" y="237" on="0"/>
        <pt x="259" y="234" on="1"/>
        <pt x="248" y="236" on="0"/>
        <pt x="233" y="232" on="0"/>
        <pt x="222" y="233" on="1"/>
        <pt x="214" y="227" on="0"/>
        <pt x="214" y="211" on="0"/>
        <pt x="212" y="203" on="1"/>
        <pt x="210" y="195" on="0"/>
        <pt x="202" y="182" on="0"/>
        <pt x="198" y="175" on="1"/>
        <pt x="196" y="170" on="0"/>
        <pt x="192" y="160" on="0"/>
        <pt x="189" y="155" on="1"/>
        <pt x="187" y="150" on="0"/>
        <pt x="185" y="146" on="0"/>
        <pt x="184" y="144" on="1"/>
        <pt x="183" y="142" on="0"/>
        <pt x="182" y="142" on="1"/>
        <pt x="181" y="134" on="0"/>
        <pt x="177" y="129" on="0"/>
        <pt x="177" y="127" on="1"/>
        <pt x="175" y="122" on="0"/>
        <pt x="176" y="115" on="0"/>
        <pt x="175" y="110" on="1"/>
        <pt x="173" y="102" on="0"/>
        <pt x="166" y="92" on="0"/>
        <pt x="166" y="85" on="1"/>
        <pt x="158" y="78" on="0"/>
        <pt x="150" y="57" on="0"/>
        <pt x="142" y="50" on="1"/>
        <pt x="141" y="41" on="0"/>
        <pt x="135" y="25" on="0"/>
        <pt x="128" y="10" on="0"/>
        <pt x="124" y="-7" on="0"/>
        <pt x="124" y="-18" on="1"/>
        <pt x="121" y="-20" on="0"/>
        <pt x="107" y="-27" on="0"/>
        <pt x="102" y="-24" on="1"/>
        <pt x="93" y="-19" on="0"/>
        <pt x="80" y="-15" on="0"/>
        <pt x="75" y="-12" on="1"/>
        <pt x="73" y="-11" on="0"/>
        <pt x="55" y="-10" on="0"/>
        <pt x="50" y="-10" on="1"/>
        <pt x="43" y="-11" on="0"/>
        <pt x="37" y="-9" on="0"/>
        <pt x="34" y="-8" on="1"/>
        <pt x="30" y="-8" on="0"/>
        <pt x="23" y="-9" on="0"/>
        <pt x="18" y="-8" on="1"/>
        <pt x="6" y="-6" on="0"/>
        <pt x="-16" y="5" on="0"/>
        <pt x="-26" y="8" on="1"/>
        <pt x="-26" y="13" on="0"/>
        <pt x="-24" y="20" on="0"/>
        <pt x="-22" y="25" on="1"/>
        <pt x="-20" y="30" on="0"/>
        <pt x="-14" y="33" on="0"/>
        <pt x="-15" y="37" on="1"/>
        <pt x="-12" y="45" on="0"/>
        <pt x="-5" y="61" on="0"/>
        <pt x="-1" y="69" on="1"/>
        <pt x="3" y="79" on="0"/>
        <pt x="7" y="84" on="0"/>
        <pt x="9" y="86" on="1"/>
        <pt x="13" y="96" on="0"/>
        <pt x="16" y="103" on="0"/>
        <pt x="18" y="105" on="1"/>
        <pt x="20" y="110" on="0"/>
        <pt x="21" y="116" on="0"/>
        <pt x="25" y="121" on="1"/>
        <pt x="27" y="124" on="0"/>
        <pt x="32" y="130" on="0"/>
        <pt x="34" y="134" on="1"/>
        <pt x="37" y="143" on="0"/>
        <pt x="43" y="152" on="0"/>
        <pt x="45" y="155" on="1"/>
        <pt x="50" y="161" on="0"/>
        <pt x="56" y="174" on="0"/>
        <pt x="60" y="182" on="1"/>
        <pt x="64" y="187" on="0"/>
        <pt x="70" y="196" on="0"/>
        <pt x="72" y="202" on="1"/>
        <pt x="74" y="209" on="0"/>
        <pt x="76" y="212" on="0"/>
        <pt x="77" y="214" on="1"/>
        <pt x="78" y="220" on="0"/>
        <pt x="79" y="223" on="0"/>
        <pt x="80" y="225" on="1"/>
        <pt x="85" y="232" on="0"/>
        <pt x="92" y="253" on="0"/>
        <pt x="97" y="261" on="1"/>
        <pt x="99" y="266" on="0"/>
        <pt x="108" y="274" on="0"/>
        <pt x="108" y="281" on="1"/>
        <pt x="113" y="284" on="0"/>
        <pt x="117" y="295" on="0"/>
        <pt x="120" y="300" on="1"/>
        <pt x="122" y="305" on="0"/>
        <pt x="129" y="313" on="0"/>
        <pt x="132" y="318" on="1"/>
        <pt x="134" y="323" on="0"/>
        <pt x="139" y="334" on="0"/>
        <pt x="142" y="339" on="1"/>
        <pt x="144" y="344" on="0"/>
        <pt x="150" y="353" on="0"/>
        <pt x="156" y="355" on="1"/>
        <pt x="154" y="360" on="0"/>
        <pt x="159" y="371" on="0"/>
        <pt x="161" y="376" on="1"/>
        <pt x="163" y="380" on="0"/>
        <pt x="169" y="387" on="0"/>
        <pt x="171" y="391" on="1"/>
        <pt x="176" y="401" on="1"/>
        <pt x="180" y="411" on="0"/>
        <pt x="185" y="416" on="0"/>
        <pt x="186" y="418" on="1"/>
        <pt x="188" y="421" on="0"/>
        <pt x="187" y="427" on="0"/>
        <pt x="188" y="429" on="1"/>
        <pt x="194" y="433" on="0"/>
        <pt x="200" y="445" on="0"/>
        <pt x="204" y="452" on="1"/>
        <pt x="207" y="457" on="0"/>
        <pt x="213" y="472" on="0"/>
        <pt x="218" y="478" on="1"/>
        <pt x="217" y="483" on="0"/>
        <pt x="221" y="490" on="0"/>
        <pt x="223" y="495" on="1"/>
        <pt x="225" y="498" on="0"/>
        <pt x="228" y="505" on="0"/>
        <pt x="230" y="508" on="1"/>
        <pt x="237" y="517" on="0"/>
        <pt x="240" y="531" on="0"/>
        <pt x="243" y="538" on="1"/>
        <pt x="245" y="542" on="0"/>
        <pt x="249" y="548" on="0"/>
        <pt x="251" y="552" on="1"/>
        <pt x="253" y="556" on="0"/>
        <pt x="255" y="564" on="0"/>
        <pt x="259" y="566" on="1"/>
        <pt x="260" y="576" on="0"/>
        <pt x="267" y="590" on="0"/>
        <pt x="270" y="598" on="1"/>
        <pt x="273" y="605" on="0"/>
        <pt x="281" y="612" on="1"/>
        <pt x="282" y="618" on="0"/>
        <pt x="282" y="630" on="0"/>
        <pt x="284" y="635" on="1"/>
        <pt x="286" y="640" on="0"/>
        <pt x="292" y="646" on="0"/>
        <pt x="294" y="650" on="1"/>
        <pt x="298" y="663" on="0"/>
        <pt x="303" y="680" on="0"/>
        <pt x="306" y="688" on="1"/>
        <pt x="309" y="695" on="0"/>
        <pt x="315" y="713" on="0"/>
        <pt x="319" y="722" on="1"/>
        <pt x="321" y="727" on="0"/>
        <pt x="325" y="737" on="0"/>
        <pt x="327" y="742" on="1"/>
        <pt x="327" y="747" on="0"/>
        <pt x="319" y="747" on="0"/>
        <pt x="319" y="752" on="1"/>
        <pt x="314" y="751" on="0"/>
        <pt x="312" y="751" on="0"/>
        <pt x="307" y="753" on="1"/>
        <pt x="300" y="756" on="0"/>
        <pt x="296" y="763" on="0"/>
        <pt x="292" y="763" on="1"/>
        <pt x="289" y="771" on="0"/>
        <pt x="278" y="782" on="0"/>
        <pt x="271" y="787" on="1"/>
        <pt x="270" y="795" on="0"/>
        <pt x="265" y="804" on="0"/>
        <pt x="263" y="809" on="1"/>
        <pt x="262" y="824" on="0"/>
        <pt x="261" y="854" on="0"/>
        <pt x="266" y="868" on="1"/>
        <pt x="270" y="876" on="0"/>
        <pt x="270" y="886" on="0"/>
        <pt x="275" y="887" on="1"/>
        <pt x="275" y="898" on="1"/>
        <pt x="280" y="903" on="0"/>
        <pt x="287" y="909" on="0"/>
        <pt x="292" y="912" on="1"/>
        <pt x="298" y="917" on="0"/>
        <pt x="306" y="920" on="0"/>
        <pt x="309" y="923" on="1"/>
        <pt x="315" y="929" on="0"/>
        <pt x="326" y="931" on="0"/>
        <pt x="328" y="935" on="1"/>
        <pt x="333" y="934" on="0"/>
        <pt x="340" y="938" on="0"/>
        <pt x="344" y="935" on="1"/>
        <pt x="348" y="936" on="0"/>
        <pt x="349" y="945" on="0"/>
        <pt x="354" y="944" on="1"/>
        <pt x="357" y="948" on="0"/>
        <pt x="364" y="940" on="0"/>
        <pt x="369" y="941" on="1"/>
        <pt x="374" y="939" on="0"/>
        <pt x="382" y="943" on="0"/>
        <pt x="387" y="942" on="1"/>
        <pt x="396" y="941" on="0"/>
        <pt x="413" y="932" on="0"/>
        <pt x="421" y="928" on="1"/>
        <pt x="427" y="925" on="0"/>
        <pt x="437" y="916" on="0"/>
        <pt x="442" y="914" on="1"/>
        <pt x="443" y="906" on="0"/>
        <pt x="460" y="893" on="0"/>
      </contour>
      <contour>
        <pt x="437" y="331" on="1"/>
        <pt x="439" y="335" on="0"/>
        <pt x="437" y="343" on="0"/>
        <pt x="436" y="348" on="1"/>
        <pt x="435" y="352" on="0"/>
        <pt x="434" y="362" on="0"/>
        <pt x="432" y="366" on="1"/>
        <pt x="430" y="370" on="0"/>
        <pt x="425" y="375" on="0"/>
        <pt x="424" y="378" on="1"/>
        <pt x="422" y="392" on="0"/>
        <pt x="419" y="413" on="0"/>
        <pt x="417" y="424" on="1"/>
        <pt x="412" y="428" on="0"/>
        <pt x="409" y="434" on="1"/>
        <pt x="403" y="442" on="0"/>
        <pt x="400" y="453" on="0"/>
        <pt x="399" y="458" on="1"/>
        <pt x="397" y="466" on="0"/>
        <pt x="393" y="477" on="0"/>
        <pt x="391" y="482" on="1"/>
        <pt x="389" y="490" on="0"/>
        <pt x="387" y="502" on="0"/>
        <pt x="385" y="508" on="1"/>
        <pt x="384" y="511" on="0"/>
        <pt x="382" y="516" on="0"/>
        <pt x="381" y="519" on="1"/>
        <pt x="379" y="525" on="0"/>
        <pt x="375" y="539" on="0"/>
        <pt x="370" y="541" on="1"/>
        <pt x="360" y="537" on="0"/>
        <pt x="359" y="529" on="1"/>
        <pt x="356" y="518" on="0"/>
        <pt x="348" y="510" on="0"/>
        <pt x="347" y="508" on="1"/>
        <pt x="345" y="497" on="0"/>
        <pt x="342" y="488" on="0"/>
        <pt x="340" y="483" on="1"/>
        <pt x="338" y="478" on="0"/>
        <pt x="335" y="470" on="0"/>
        <pt x="333" y="466" on="1"/>
        <pt x="331" y="463" on="0"/>
        <pt x="328" y="457" on="0"/>
        <pt x="327" y="455" on="1"/>
        <pt x="318" y="438" on="0"/>
        <pt x="304" y="413" on="0"/>
        <pt x="299" y="400" on="1"/>
        <pt x="297" y="395" on="0"/>
        <pt x="295" y="386" on="0"/>
        <pt x="293" y="381" on="1"/>
        <pt x="291" y="377" on="0"/>
        <pt x="285" y="371" on="0"/>
        <pt x="283" y="366" on="1"/>
        <pt x="282" y="363" on="0"/>
        <pt x="283" y="358" on="0"/>
        <pt x="282" y="354" on="1"/>
        <pt x="275" y="343" on="0"/>
        <pt x="272" y="330" on="0"/>
        <pt x="270" y="325" on="1"/>
        <pt x="281" y="320" on="0"/>
        <pt x="304" y="321" on="0"/>
        <pt x="315" y="321" on="1"/>
        <pt x="334" y="322" on="0"/>
        <pt x="374" y="325" on="0"/>
        <pt x="388" y="328" on="1"/>
        <pt x="400" y="330" on="0"/>
        <pt x="426" y="326" on="0"/>
      </contour>
      <contour>
        <pt x="417" y="879" on="1"/>
        <pt x="411" y="881" on="0"/>
        <pt x="400" y="885" on="0"/>
        <pt x="394" y="886" on="1"/>
        <pt x="389" y="888" on="0"/>
        <pt x="385" y="893" on="0"/>
        <pt x="381" y="894" on="1"/>
        <pt x="375" y="896" on="0"/>
        <pt x="351" y="893" on="0"/>
        <pt x="348" y="892" on="1"/>
        <pt x="342" y="887" on="0"/>
        <pt x="336" y="885" on="0"/>
        <pt x="335" y="884" on="1"/>
        <pt x="327" y="879" on="0"/>
        <pt x="324" y="869" on="0"/>
        <pt x="321" y="864" on="1"/>
        <pt x="316" y="856" on="0"/>
        <pt x="318" y="853" on="0"/>
        <pt x="318" y="851" on="1"/>
        <pt x="313" y="849" on="0"/>
        <pt x="314" y="841" on="0"/>
        <pt x="315" y="837" on="1"/>
        <pt x="315" y="829" on="0"/>
        <pt x="311" y="821" on="0"/>
        <pt x="311" y="816" on="1"/>
        <pt x="311" y="812" on="0"/>
        <pt x="316" y="808" on="0"/>
        <pt x="316" y="805" on="1"/>
        <pt x="325" y="801" on="0"/>
        <pt x="347" y="799" on="0"/>
        <pt x="352" y="791" on="1"/>
        <pt x="358" y="791" on="0"/>
        <pt x="363" y="790" on="0"/>
        <pt x="369" y="787" on="1"/>
        <pt x="372" y="795" on="0"/>
        <pt x="388" y="800" on="0"/>
        <pt x="394" y="805" on="1"/>
        <pt x="398" y="809" on="0"/>
        <pt x="401" y="817" on="0"/>
        <pt x="406" y="821" on="1"/>
        <pt x="403" y="825" on="0"/>
        <pt x="407" y="831" on="0"/>
        <pt x="406" y="836" on="1"/>
        <pt x="418" y="851" on="0"/>
      </contour>
    </TTGlyph>
    <TTGlyph name="Atilde" xMin="-26" yMin="-27" xMax="706" yMax="968">
      <component glyphName="A" x="0" y="0" flags="0x204"/>
      <component glyphName="tilde" x="-71" y="143" flags="0x4"/>
    </TTGlyph>
    <TTGlyph name="B" xMin="58" yMin="-8" xMax="571" yMax="758">
      <contour>
        <pt x="569" y="212" on="1"/>
        <pt x="569" y="206" on="0"/>
        <pt x="566" y="191" on="0"/>
        <pt x="564" y="183" on="1"/>
        <pt x="562" y="175" on="0"/>
        <pt x="560" y="171" on="1"/>
        <pt x="559" y="168" on="0"/>
        <pt x="560" y="160" on="0"/>
        <pt x="559" y="158" on="1"/>
        <pt x="557" y="153" on="0"/>
        <pt x="552" y="143" on="0"/>
        <pt x="550" y="138" on="1"/>
        <pt x="548" y="133" on="0"/>
        <pt x="545" y="122" on="0"/>
        <pt x="543" y="118" on="1"/>
        <pt x="541" y="115" on="0"/>
        <pt x="534" y="111" on="0"/>
        <pt x="535" y="106" on="1"/>
        <pt x="525" y="102" on="0"/>
        <pt x="519" y="97" on="1"/>
        <pt x="514" y="93" on="0"/>
        <pt x="508" y="85" on="0"/>
        <pt x="503" y="81" on="1"/>
        <pt x="501" y="79" on="0"/>
        <pt x="493" y="75" on="0"/>
        <pt x="489" y="73" on="1"/>
        <pt x="481" y="68" on="0"/>
        <pt x="474" y="63" on="0"/>
        <pt x="472" y="61" on="1"/>
        <pt x="470" y="60" on="0"/>
        <pt x="463" y="60" on="0"/>
        <pt x="461" y="58" on="1"/>
        <pt x="454" y="53" on="0"/>
        <pt x="439" y="48" on="0"/>
        <pt x="434" y="43" on="1"/>
        <pt x="430" y="42" on="0"/>
        <pt x="424" y="44" on="0"/>
        <pt x="421" y="43" on="1"/>
        <pt x="411" y="40" on="0"/>
        <pt x="406" y="37" on="0"/>
        <pt x="403" y="36" on="1"/>
        <pt x="397" y="34" on="0"/>
        <pt x="390" y="33" on="0"/>
        <pt x="386" y="31" on="1"/>
        <pt x="374" y="27" on="0"/>
        <pt x="358" y="27" on="0"/>
        <pt x="351" y="25" on="1"/>
        <pt x="346" y="23" on="0"/>
        <pt x="341" y="23" on="0"/>
        <pt x="339" y="22" on="1"/>
        <pt x="337" y="22" on="0"/>
        <pt x="330" y="19" on="0"/>
        <pt x="328" y="18" on="1"/>
        <pt x="320" y="20" on="0"/>
        <pt x="309" y="19" on="0"/>
        <pt x="304" y="19" on="1"/>
        <pt x="297" y="19" on="0"/>
        <pt x="279" y="17" on="0"/>
        <pt x="271" y="16" on="1"/>
        <pt x="265" y="16" on="0"/>
        <pt x="252" y="18" on="0"/>
        <pt x="245" y="17" on="1"/>
        <pt x="238" y="16" on="0"/>
        <pt x="221" y="12" on="0"/>
        <pt x="214" y="19" on="1"/>
        <pt x="208" y="15" on="0"/>
        <pt x="195" y="19" on="0"/>
        <pt x="188" y="18" on="1"/>
        <pt x="181" y="17" on="0"/>
        <pt x="170" y="9" on="0"/>
        <pt x="162" y="11" on="1"/>
        <pt x="155" y="5" on="0"/>
        <pt x="147" y="4" on="0"/>
        <pt x="145" y="3" on="1"/>
        <pt x="137" y="0" on="0"/>
        <pt x="120" y="-8" on="0"/>
        <pt x="109" y="-1" on="1"/>
        <pt x="102" y="-4" on="0"/>
        <pt x="91" y="-2" on="1"/>
        <pt x="85" y="4" on="0"/>
        <pt x="78" y="16" on="1"/>
        <pt x="78" y="24" on="0"/>
        <pt x="84" y="37" on="0"/>
        <pt x="84" y="44" on="1"/>
        <pt x="84" y="50" on="0"/>
        <pt x="79" y="60" on="0"/>
        <pt x="78" y="66" on="1"/>
        <pt x="77" y="71" on="0"/>
        <pt x="78" y="80" on="0"/>
        <pt x="78" y="85" on="1"/>
        <pt x="78" y="90" on="0"/>
        <pt x="76" y="98" on="0"/>
        <pt x="75" y="103" on="1"/>
        <pt x="74" y="111" on="0"/>
        <pt x="74" y="124" on="0"/>
        <pt x="76" y="132" on="1"/>
        <pt x="77" y="136" on="0"/>
        <pt x="76" y="149" on="0"/>
        <pt x="80" y="157" on="1"/>
        <pt x="79" y="160" on="0"/>
        <pt x="77" y="167" on="0"/>
        <pt x="77" y="171" on="1"/>
        <pt x="77" y="176" on="0"/>
        <pt x="80" y="186" on="0"/>
        <pt x="80" y="191" on="1"/>
        <pt x="81" y="196" on="0"/>
        <pt x="79" y="208" on="0"/>
        <pt x="79" y="214" on="1"/>
        <pt x="80" y="219" on="0"/>
        <pt x="81" y="228" on="0"/>
        <pt x="81" y="232" on="1"/>
        <pt x="82" y="235" on="0"/>
        <pt x="82" y="243" on="0"/>
        <pt x="85" y="244" on="1"/>
        <pt x="83" y="248" on="0"/>
        <pt x="82" y="253" on="0"/>
        <pt x="82" y="257" on="1"/>
        <pt x="82" y="270" on="1"/>
        <pt x="82" y="274" on="0"/>
        <pt x="85" y="280" on="0"/>
        <pt x="86" y="284" on="1"/>
        <pt x="86" y="286" on="0"/>
        <pt x="84" y="292" on="0"/>
        <pt x="84" y="295" on="1"/>
        <pt x="86" y="303" on="0"/>
        <pt x="84" y="310" on="0"/>
        <pt x="85" y="313" on="1"/>
        <pt x="85" y="338" on="1"/>
        <pt x="85" y="342" on="0"/>
        <pt x="87" y="350" on="0"/>
        <pt x="87" y="354" on="1"/>
        <pt x="87" y="358" on="0"/>
        <pt x="84" y="366" on="0"/>
        <pt x="84" y="370" on="1"/>
        <pt x="84" y="385" on="0"/>
        <pt x="87" y="417" on="0"/>
        <pt x="82" y="432" on="1"/>
        <pt x="87" y="436" on="0"/>
        <pt x="84" y="446" on="0"/>
        <pt x="84" y="451" on="1"/>
        <pt x="85" y="453" on="0"/>
        <pt x="85" y="462" on="0"/>
        <pt x="85" y="467" on="1"/>
        <pt x="83" y="479" on="0"/>
        <pt x="84" y="509" on="0"/>
        <pt x="86" y="526" on="1"/>
        <pt x="88" y="536" on="0"/>
        <pt x="85" y="542" on="0"/>
        <pt x="85" y="545" on="1"/>
        <pt x="84" y="548" on="0"/>
        <pt x="85" y="554" on="0"/>
        <pt x="85" y="556" on="1"/>
        <pt x="84" y="564" on="0"/>
        <pt x="81" y="582" on="0"/>
        <pt x="86" y="593" on="1"/>
        <pt x="83" y="595" on="0"/>
        <pt x="84" y="603" on="0"/>
        <pt x="83" y="607" on="1"/>
        <pt x="82" y="611" on="0"/>
        <pt x="79" y="617" on="0"/>
        <pt x="78" y="621" on="1"/>
        <pt x="80" y="634" on="0"/>
        <pt x="76" y="652" on="0"/>
        <pt x="81" y="657" on="1"/>
        <pt x="79" y="662" on="0"/>
        <pt x="75" y="666" on="0"/>
        <pt x="75" y="671" on="1"/>
        <pt x="76" y="676" on="0"/>
        <pt x="74" y="690" on="0"/>
        <pt x="77" y="693" on="1"/>
        <pt x="75" y="697" on="0"/>
        <pt x="69" y="703" on="0"/>
        <pt x="71" y="711" on="1"/>
        <pt x="69" y="715" on="0"/>
        <pt x="58" y="729" on="0"/>
        <pt x="65" y="735" on="1"/>
        <pt x="69" y="740" on="0"/>
        <pt x="86" y="744" on="0"/>
        <pt x="104" y="745" on="0"/>
        <pt x="121" y="745" on="0"/>
        <pt x="126" y="746" on="1"/>
        <pt x="134" y="749" on="0"/>
        <pt x="143" y="754" on="0"/>
        <pt x="154" y="755" on="1"/>
        <pt x="158" y="755" on="0"/>
        <pt x="163" y="756" on="0"/>
        <pt x="167" y="756" on="1"/>
        <pt x="170" y="756" on="0"/>
        <pt x="178" y="754" on="0"/>
        <pt x="180" y="754" on="1"/>
        <pt x="183" y="754" on="0"/>
        <pt x="189" y="757" on="0"/>
        <pt x="191" y="757" on="1"/>
        <pt x="196" y="757" on="0"/>
        <pt x="204" y="755" on="1"/>
        <pt x="231" y="755" on="1"/>
        <pt x="239" y="755" on="0"/>
        <pt x="243" y="757" on="0"/>
        <pt x="243" y="756" on="1"/>
        <pt x="245" y="753" on="0"/>
        <pt x="255" y="757" on="0"/>
        <pt x="260" y="757" on="1"/>
        <pt x="272" y="758" on="0"/>
        <pt x="301" y="758" on="0"/>
        <pt x="314" y="756" on="1"/>
        <pt x="328" y="754" on="0"/>
        <pt x="341" y="751" on="0"/>
        <pt x="348" y="745" on="1"/>
        <pt x="368" y="744" on="0"/>
        <pt x="402" y="729" on="0"/>
        <pt x="416" y="721" on="1"/>
        <pt x="422" y="717" on="0"/>
        <pt x="427" y="713" on="0"/>
        <pt x="432" y="708" on="1"/>
        <pt x="434" y="706" on="0"/>
        <pt x="439" y="700" on="0"/>
        <pt x="441" y="698" on="1"/>
        <pt x="443" y="696" on="0"/>
        <pt x="444" y="689" on="0"/>
        <pt x="446" y="687" on="1"/>
        <pt x="452" y="681" on="0"/>
        <pt x="453" y="678" on="0"/>
        <pt x="453" y="677" on="1"/>
        <pt x="459" y="669" on="0"/>
        <pt x="462" y="661" on="0"/>
        <pt x="464" y="656" on="1"/>
        <pt x="469" y="651" on="0"/>
        <pt x="475" y="639" on="0"/>
        <pt x="480" y="634" on="1"/>
        <pt x="479" y="628" on="0"/>
        <pt x="481" y="618" on="0"/>
        <pt x="482" y="613" on="1"/>
        <pt x="484" y="608" on="0"/>
        <pt x="487" y="601" on="0"/>
        <pt x="489" y="597" on="1"/>
        <pt x="489" y="594" on="0"/>
        <pt x="489" y="587" on="0"/>
        <pt x="490" y="584" on="1"/>
        <pt x="493" y="567" on="0"/>
        <pt x="488" y="552" on="1"/>
        <pt x="486" y="549" on="0"/>
        <pt x="483" y="544" on="0"/>
        <pt x="481" y="541" on="1"/>
        <pt x="479" y="537" on="0"/>
        <pt x="479" y="529" on="0"/>
        <pt x="477" y="526" on="1"/>
        <pt x="475" y="521" on="0"/>
        <pt x="467" y="510" on="0"/>
        <pt x="464" y="505" on="1"/>
        <pt x="462" y="502" on="0"/>
        <pt x="459" y="497" on="0"/>
        <pt x="457" y="494" on="1"/>
        <pt x="455" y="490" on="0"/>
        <pt x="448" y="481" on="0"/>
        <pt x="445" y="477" on="1"/>
        <pt x="442" y="473" on="0"/>
        <pt x="436" y="466" on="0"/>
        <pt x="431" y="463" on="1"/>
        <pt x="423" y="457" on="0"/>
        <pt x="419" y="450" on="0"/>
        <pt x="418" y="449" on="1"/>
        <pt x="416" y="440" on="0"/>
        <pt x="424" y="437" on="0"/>
        <pt x="426" y="436" on="1"/>
        <pt x="430" y="435" on="0"/>
        <pt x="437" y="436" on="0"/>
        <pt x="440" y="434" on="1"/>
        <pt x="447" y="432" on="0"/>
        <pt x="457" y="422" on="0"/>
        <pt x="462" y="418" on="1"/>
        <pt x="474" y="407" on="0"/>
        <pt x="488" y="395" on="0"/>
        <pt x="496" y="390" on="1"/>
        <pt x="502" y="380" on="0"/>
        <pt x="517" y="366" on="0"/>
        <pt x="521" y="355" on="1"/>
        <pt x="527" y="349" on="0"/>
        <pt x="531" y="340" on="0"/>
        <pt x="535" y="337" on="1"/>
        <pt x="536" y="335" on="0"/>
        <pt x="539" y="329" on="0"/>
        <pt x="541" y="327" on="1"/>
        <pt x="546" y="321" on="0"/>
        <pt x="553" y="302" on="0"/>
        <pt x="557" y="293" on="1"/>
        <pt x="559" y="288" on="0"/>
        <pt x="559" y="278" on="0"/>
        <pt x="561" y="269" on="1"/>
        <pt x="563" y="259" on="0"/>
        <pt x="571" y="227" on="0"/>
      </contour>
      <contour>
        <pt x="357" y="560" on="1"/>
        <pt x="353" y="566" on="0"/>
        <pt x="355" y="586" on="0"/>
        <pt x="353" y="595" on="1"/>
        <pt x="350" y="600" on="0"/>
        <pt x="351" y="604" on="0"/>
        <pt x="350" y="606" on="1"/>
        <pt x="346" y="612" on="0"/>
        <pt x="345" y="615" on="0"/>
        <pt x="344" y="618" on="1"/>
        <pt x="336" y="622" on="0"/>
        <pt x="328" y="635" on="0"/>
        <pt x="322" y="640" on="1"/>
        <pt x="315" y="642" on="0"/>
        <pt x="313" y="646" on="0"/>
        <pt x="311" y="647" on="1"/>
        <pt x="300" y="649" on="0"/>
        <pt x="283" y="650" on="0"/>
        <pt x="275" y="651" on="1"/>
        <pt x="267" y="652" on="0"/>
        <pt x="251" y="654" on="0"/>
        <pt x="243" y="653" on="1"/>
        <pt x="233" y="651" on="0"/>
        <pt x="226" y="652" on="0"/>
        <pt x="224" y="652" on="1"/>
        <pt x="211" y="647" on="0"/>
        <pt x="195" y="647" on="0"/>
        <pt x="187" y="645" on="1"/>
        <pt x="185" y="638" on="0"/>
        <pt x="188" y="624" on="0"/>
        <pt x="188" y="616" on="1"/>
        <pt x="189" y="612" on="0"/>
        <pt x="188" y="606" on="0"/>
        <pt x="188" y="602" on="1"/>
        <pt x="188" y="597" on="0"/>
        <pt x="191" y="587" on="0"/>
        <pt x="191" y="582" on="1"/>
        <pt x="191" y="577" on="0"/>
        <pt x="189" y="567" on="0"/>
        <pt x="189" y="562" on="1"/>
        <pt x="188" y="556" on="0"/>
        <pt x="190" y="542" on="0"/>
        <pt x="190" y="539" on="1"/>
        <pt x="189" y="528" on="0"/>
        <pt x="192" y="519" on="0"/>
        <pt x="194" y="514" on="1"/>
        <pt x="189" y="501" on="0"/>
        <pt x="197" y="474" on="0"/>
        <pt x="201" y="463" on="1"/>
        <pt x="206" y="464" on="0"/>
        <pt x="217" y="468" on="0"/>
        <pt x="222" y="469" on="1"/>
        <pt x="230" y="471" on="0"/>
        <pt x="245" y="469" on="0"/>
        <pt x="253" y="471" on="1"/>
        <pt x="259" y="473" on="0"/>
        <pt x="272" y="479" on="0"/>
        <pt x="280" y="477" on="1"/>
        <pt x="292" y="486" on="0"/>
        <pt x="310" y="486" on="1"/>
        <pt x="312" y="491" on="0"/>
        <pt x="324" y="495" on="0"/>
        <pt x="329" y="497" on="1"/>
        <pt x="331" y="500" on="0"/>
        <pt x="336" y="505" on="0"/>
        <pt x="338" y="508" on="1"/>
        <pt x="342" y="514" on="0"/>
        <pt x="347" y="517" on="0"/>
        <pt x="348" y="519" on="1"/>
        <pt x="350" y="522" on="0"/>
        <pt x="349" y="531" on="0"/>
        <pt x="354" y="534" on="1"/>
        <pt x="352" y="541" on="0"/>
        <pt x="355" y="554" on="0"/>
      </contour>
      <contour>
        <pt x="427" y="251" on="1"/>
        <pt x="423" y="256" on="0"/>
        <pt x="418" y="270" on="0"/>
        <pt x="416" y="278" on="1"/>
        <pt x="414" y="282" on="0"/>
        <pt x="409" y="284" on="0"/>
        <pt x="407" y="287" on="1"/>
        <pt x="403" y="295" on="0"/>
        <pt x="395" y="301" on="0"/>
        <pt x="393" y="303" on="1"/>
        <pt x="388" y="308" on="0"/>
        <pt x="382" y="312" on="0"/>
        <pt x="377" y="315" on="1"/>
        <pt x="369" y="320" on="0"/>
        <pt x="355" y="327" on="0"/>
        <pt x="349" y="332" on="1"/>
        <pt x="332" y="336" on="0"/>
        <pt x="299" y="340" on="0"/>
        <pt x="284" y="342" on="1"/>
        <pt x="264" y="343" on="0"/>
        <pt x="234" y="334" on="0"/>
        <pt x="212" y="335" on="1"/>
        <pt x="210" y="331" on="0"/>
        <pt x="203" y="328" on="0"/>
        <pt x="201" y="324" on="1"/>
        <pt x="202" y="293" on="0"/>
        <pt x="194" y="231" on="0"/>
        <pt x="197" y="204" on="1"/>
        <pt x="195" y="189" on="0"/>
        <pt x="198" y="166" on="0"/>
        <pt x="197" y="161" on="1"/>
        <pt x="196" y="153" on="0"/>
        <pt x="200" y="142" on="0"/>
        <pt x="200" y="137" on="1"/>
        <pt x="200" y="135" on="0"/>
        <pt x="198" y="129" on="0"/>
        <pt x="198" y="126" on="1"/>
        <pt x="198" y="122" on="0"/>
        <pt x="197" y="117" on="0"/>
        <pt x="199" y="113" on="1"/>
        <pt x="210" y="113" on="0"/>
        <pt x="231" y="120" on="0"/>
        <pt x="243" y="122" on="1"/>
        <pt x="251" y="124" on="0"/>
        <pt x="267" y="126" on="0"/>
        <pt x="275" y="127" on="1"/>
        <pt x="280" y="128" on="0"/>
        <pt x="285" y="130" on="0"/>
        <pt x="287" y="130" on="1"/>
        <pt x="290" y="131" on="0"/>
        <pt x="296" y="131" on="0"/>
        <pt x="299" y="132" on="1"/>
        <pt x="319" y="136" on="0"/>
        <pt x="354" y="145" on="0"/>
        <pt x="371" y="154" on="1"/>
        <pt x="375" y="155" on="0"/>
        <pt x="382" y="156" on="0"/>
        <pt x="387" y="157" on="1"/>
        <pt x="392" y="162" on="0"/>
        <pt x="403" y="175" on="0"/>
        <pt x="411" y="179" on="1"/>
        <pt x="413" y="182" on="0"/>
        <pt x="413" y="190" on="0"/>
        <pt x="418" y="191" on="1"/>
        <pt x="419" y="196" on="0"/>
        <pt x="422" y="202" on="0"/>
        <pt x="424" y="205" on="1"/>
        <pt x="427" y="219" on="0"/>
        <pt x="424" y="243" on="0"/>
      </contour>
    </TTGlyph>
    <TTGlyph name="C" xMin="9" yMin="-8" xMax="720" yMax="750">
      <contour>
        <pt x="720" y="622" on="1"/>
        <pt x="719" y="613" on="0"/>
        <pt x="713" y="600" on="0"/>
        <pt x="708" y="594" on="1"/>
        <pt x="701" y="587" on="0"/>
        <pt x="699" y="580" on="0"/>
        <pt x="697" y="578" on="1"/>
        <pt x="692" y="571" on="0"/>
        <pt x="690" y="567" on="0"/>
        <pt x="689" y="566" on="1"/>
        <pt x="685" y="562" on="0"/>
        <pt x="682" y="556" on="0"/>
        <pt x="679" y="557" on="1"/>
        <pt x="677" y="548" on="0"/>
        <pt x="663" y="527" on="0"/>
        <pt x="652" y="525" on="1"/>
        <pt x="645" y="525" on="0"/>
        <pt x="632" y="532" on="0"/>
        <pt x="629" y="540" on="1"/>
        <pt x="625" y="541" on="0"/>
        <pt x="620" y="543" on="0"/>
        <pt x="616" y="545" on="1"/>
        <pt x="615" y="550" on="0"/>
        <pt x="608" y="551" on="0"/>
        <pt x="608" y="556" on="1"/>
        <pt x="602" y="558" on="0"/>
        <pt x="595" y="565" on="0"/>
        <pt x="590" y="568" on="1"/>
        <pt x="586" y="571" on="0"/>
        <pt x="576" y="579" on="0"/>
        <pt x="573" y="586" on="1"/>
        <pt x="565" y="591" on="0"/>
        <pt x="549" y="601" on="0"/>
        <pt x="540" y="606" on="1"/>
        <pt x="532" y="610" on="0"/>
        <pt x="513" y="621" on="0"/>
        <pt x="502" y="622" on="1"/>
        <pt x="500" y="626" on="0"/>
        <pt x="491" y="629" on="0"/>
        <pt x="487" y="632" on="1"/>
        <pt x="476" y="633" on="0"/>
        <pt x="455" y="637" on="0"/>
        <pt x="443" y="639" on="1"/>
        <pt x="432" y="635" on="0"/>
        <pt x="399" y="638" on="0"/>
        <pt x="388" y="641" on="1"/>
        <pt x="385" y="641" on="0"/>
        <pt x="379" y="637" on="0"/>
        <pt x="375" y="636" on="1"/>
        <pt x="367" y="636" on="0"/>
        <pt x="360" y="634" on="0"/>
        <pt x="358" y="633" on="1"/>
        <pt x="354" y="632" on="0"/>
        <pt x="346" y="633" on="0"/>
        <pt x="342" y="632" on="1"/>
        <pt x="337" y="630" on="0"/>
        <pt x="329" y="626" on="0"/>
        <pt x="324" y="626" on="1"/>
        <pt x="319" y="625" on="0"/>
        <pt x="317" y="616" on="0"/>
        <pt x="315" y="614" on="1"/>
        <pt x="303" y="612" on="0"/>
        <pt x="287" y="600" on="0"/>
        <pt x="280" y="592" on="1"/>
        <pt x="266" y="585" on="0"/>
        <pt x="249" y="578" on="0"/>
        <pt x="245" y="569" on="1"/>
        <pt x="239" y="569" on="0"/>
        <pt x="232" y="564" on="0"/>
        <pt x="226" y="559" on="0"/>
        <pt x="220" y="554" on="0"/>
        <pt x="215" y="554" on="1"/>
        <pt x="212" y="549" on="0"/>
        <pt x="208" y="541" on="0"/>
        <pt x="205" y="538" on="1"/>
        <pt x="194" y="532" on="0"/>
        <pt x="189" y="527" on="0"/>
        <pt x="184" y="523" on="1"/>
        <pt x="180" y="519" on="0"/>
        <pt x="177" y="516" on="0"/>
        <pt x="174" y="512" on="1"/>
        <pt x="171" y="506" on="0"/>
        <pt x="162" y="488" on="0"/>
        <pt x="156" y="484" on="1"/>
        <pt x="154" y="474" on="0"/>
        <pt x="146" y="461" on="0"/>
        <pt x="141" y="455" on="1"/>
        <pt x="139" y="452" on="0"/>
        <pt x="141" y="446" on="0"/>
        <pt x="139" y="443" on="1"/>
        <pt x="138" y="439" on="0"/>
        <pt x="132" y="431" on="0"/>
        <pt x="131" y="427" on="1"/>
        <pt x="130" y="422" on="0"/>
        <pt x="132" y="413" on="0"/>
        <pt x="132" y="409" on="1"/>
        <pt x="132" y="405" on="0"/>
        <pt x="129" y="400" on="0"/>
        <pt x="129" y="397" on="1"/>
        <pt x="127" y="385" on="0"/>
        <pt x="127" y="357" on="0"/>
        <pt x="126" y="346" on="1"/>
        <pt x="126" y="342" on="0"/>
        <pt x="127" y="331" on="0"/>
        <pt x="127" y="326" on="1"/>
        <pt x="128" y="321" on="0"/>
        <pt x="128" y="310" on="0"/>
        <pt x="128" y="307" on="1"/>
        <pt x="129" y="303" on="0"/>
        <pt x="133" y="298" on="0"/>
        <pt x="134" y="294" on="1"/>
        <pt x="136" y="290" on="0"/>
        <pt x="135" y="282" on="0"/>
        <pt x="139" y="280" on="1"/>
        <pt x="135" y="271" on="0"/>
        <pt x="144" y="265" on="0"/>
        <pt x="142" y="256" on="1"/>
        <pt x="148" y="249" on="0"/>
        <pt x="157" y="240" on="0"/>
        <pt x="158" y="238" on="1"/>
        <pt x="164" y="229" on="0"/>
        <pt x="169" y="223" on="0"/>
        <pt x="171" y="219" on="1"/>
        <pt x="175" y="214" on="0"/>
        <pt x="186" y="200" on="0"/>
        <pt x="191" y="194" on="1"/>
        <pt x="196" y="189" on="0"/>
        <pt x="201" y="184" on="0"/>
        <pt x="205" y="179" on="1"/>
        <pt x="208" y="174" on="0"/>
        <pt x="216" y="171" on="0"/>
        <pt x="221" y="167" on="1"/>
        <pt x="223" y="165" on="0"/>
        <pt x="227" y="160" on="0"/>
        <pt x="232" y="159" on="1"/>
        <pt x="237" y="154" on="0"/>
        <pt x="252" y="149" on="0"/>
        <pt x="254" y="141" on="1"/>
        <pt x="265" y="137" on="0"/>
        <pt x="285" y="126" on="0"/>
        <pt x="299" y="122" on="1"/>
        <pt x="313" y="120" on="0"/>
        <pt x="330" y="119" on="0"/>
        <pt x="334" y="118" on="1"/>
        <pt x="342" y="117" on="0"/>
        <pt x="353" y="117" on="0"/>
        <pt x="362" y="118" on="1"/>
        <pt x="373" y="116" on="0"/>
        <pt x="381" y="119" on="0"/>
        <pt x="384" y="119" on="1"/>
        <pt x="387" y="119" on="0"/>
        <pt x="393" y="117" on="0"/>
        <pt x="396" y="117" on="1"/>
        <pt x="408" y="116" on="0"/>
        <pt x="431" y="120" on="0"/>
        <pt x="443" y="116" on="1"/>
        <pt x="446" y="117" on="0"/>
        <pt x="451" y="120" on="0"/>
        <pt x="455" y="121" on="1"/>
        <pt x="466" y="118" on="0"/>
        <pt x="485" y="125" on="0"/>
        <pt x="490" y="121" on="1"/>
        <pt x="495" y="121" on="0"/>
        <pt x="498" y="125" on="0"/>
        <pt x="501" y="126" on="1"/>
        <pt x="506" y="127" on="0"/>
        <pt x="510" y="124" on="0"/>
        <pt x="514" y="124" on="1"/>
        <pt x="519" y="125" on="0"/>
        <pt x="527" y="131" on="0"/>
        <pt x="532" y="133" on="1"/>
        <pt x="535" y="135" on="0"/>
        <pt x="542" y="134" on="0"/>
        <pt x="546" y="135" on="1"/>
        <pt x="559" y="138" on="0"/>
        <pt x="574" y="142" on="0"/>
        <pt x="579" y="142" on="1"/>
        <pt x="589" y="143" on="0"/>
        <pt x="608" y="144" on="0"/>
        <pt x="614" y="152" on="1"/>
        <pt x="631" y="154" on="0"/>
        <pt x="647" y="158" on="0"/>
        <pt x="655" y="159" on="1"/>
        <pt x="659" y="156" on="0"/>
        <pt x="658" y="143" on="0"/>
        <pt x="665" y="142" on="1"/>
        <pt x="664" y="137" on="0"/>
        <pt x="666" y="132" on="0"/>
        <pt x="667" y="129" on="1"/>
        <pt x="669" y="124" on="0"/>
        <pt x="676" y="113" on="0"/>
        <pt x="677" y="105" on="1"/>
        <pt x="678" y="102" on="0"/>
        <pt x="676" y="97" on="0"/>
        <pt x="676" y="94" on="1"/>
        <pt x="677" y="84" on="0"/>
        <pt x="680" y="80" on="0"/>
        <pt x="680" y="78" on="1"/>
        <pt x="681" y="67" on="0"/>
        <pt x="683" y="57" on="0"/>
        <pt x="683" y="54" on="1"/>
        <pt x="682" y="51" on="0"/>
        <pt x="678" y="44" on="0"/>
        <pt x="678" y="41" on="1"/>
        <pt x="670" y="39" on="0"/>
        <pt x="649" y="36" on="0"/>
        <pt x="644" y="42" on="1"/>
        <pt x="636" y="40" on="0"/>
        <pt x="625" y="34" on="0"/>
        <pt x="617" y="30" on="1"/>
        <pt x="609" y="25" on="0"/>
        <pt x="598" y="23" on="0"/>
        <pt x="593" y="22" on="1"/>
        <pt x="589" y="20" on="0"/>
        <pt x="582" y="18" on="0"/>
        <pt x="577" y="18" on="1"/>
        <pt x="572" y="14" on="0"/>
        <pt x="562" y="8" on="0"/>
        <pt x="555" y="6" on="1"/>
        <pt x="543" y="1" on="0"/>
        <pt x="525" y="2" on="0"/>
        <pt x="518" y="0" on="1"/>
        <pt x="513" y="-1" on="0"/>
        <pt x="504" y="-4" on="0"/>
        <pt x="500" y="-6" on="1"/>
        <pt x="491" y="-6" on="0"/>
        <pt x="484" y="-5" on="0"/>
        <pt x="481" y="-6" on="1"/>
        <pt x="476" y="-6" on="0"/>
        <pt x="465" y="-3" on="0"/>
        <pt x="460" y="-4" on="1"/>
        <pt x="456" y="-4" on="0"/>
        <pt x="448" y="-7" on="0"/>
        <pt x="443" y="-8" on="1"/>
        <pt x="440" y="-8" on="0"/>
        <pt x="434" y="-6" on="0"/>
        <pt x="430" y="-6" on="1"/>
        <pt x="428" y="-6" on="0"/>
        <pt x="421" y="-8" on="0"/>
        <pt x="419" y="-7" on="1"/>
        <pt x="405" y="-7" on="0"/>
        <pt x="376" y="-3" on="0"/>
        <pt x="362" y="-5" on="1"/>
        <pt x="351" y="0" on="0"/>
        <pt x="344" y="-1" on="0"/>
        <pt x="340" y="-1" on="1"/>
        <pt x="337" y="4" on="0"/>
        <pt x="321" y="2" on="0"/>
        <pt x="316" y="6" on="1"/>
        <pt x="313" y="9" on="0"/>
        <pt x="307" y="9" on="0"/>
        <pt x="305" y="9" on="1"/>
        <pt x="295" y="14" on="0"/>
        <pt x="291" y="22" on="1"/>
        <pt x="289" y="20" on="0"/>
        <pt x="281" y="20" on="0"/>
        <pt x="278" y="20" on="1"/>
        <pt x="273" y="23" on="0"/>
        <pt x="267" y="29" on="0"/>
        <pt x="262" y="31" on="1"/>
        <pt x="253" y="32" on="0"/>
        <pt x="237" y="35" on="0"/>
        <pt x="233" y="44" on="1"/>
        <pt x="229" y="45" on="0"/>
        <pt x="223" y="45" on="0"/>
        <pt x="220" y="46" on="1"/>
        <pt x="211" y="50" on="0"/>
        <pt x="204" y="51" on="0"/>
        <pt x="201" y="53" on="1"/>
        <pt x="196" y="57" on="0"/>
        <pt x="191" y="58" on="0"/>
        <pt x="190" y="58" on="1"/>
        <pt x="173" y="72" on="0"/>
        <pt x="142" y="92" on="0"/>
        <pt x="129" y="101" on="1"/>
        <pt x="125" y="108" on="0"/>
        <pt x="119" y="120" on="0"/>
        <pt x="111" y="122" on="1"/>
        <pt x="112" y="126" on="0"/>
        <pt x="105" y="128" on="0"/>
        <pt x="106" y="133" on="1"/>
        <pt x="102" y="136" on="0"/>
        <pt x="99" y="139" on="1"/>
        <pt x="98" y="140" on="0"/>
        <pt x="98" y="141" on="1"/>
        <pt x="94" y="146" on="0"/>
        <pt x="85" y="152" on="0"/>
        <pt x="84" y="155" on="1"/>
        <pt x="82" y="160" on="0"/>
        <pt x="74" y="170" on="0"/>
        <pt x="70" y="175" on="1"/>
        <pt x="56" y="192" on="0"/>
        <pt x="53" y="205" on="1"/>
        <pt x="48" y="218" on="0"/>
        <pt x="40" y="225" on="0"/>
        <pt x="41" y="232" on="1"/>
        <pt x="39" y="235" on="0"/>
        <pt x="35" y="240" on="0"/>
        <pt x="33" y="244" on="1"/>
        <pt x="34" y="253" on="0"/>
        <pt x="29" y="263" on="0"/>
        <pt x="25" y="268" on="1"/>
        <pt x="26" y="273" on="0"/>
        <pt x="28" y="278" on="0"/>
        <pt x="27" y="284" on="1"/>
        <pt x="25" y="289" on="0"/>
        <pt x="19" y="300" on="0"/>
        <pt x="17" y="307" on="1"/>
        <pt x="15" y="312" on="0"/>
        <pt x="16" y="317" on="0"/>
        <pt x="14" y="325" on="1"/>
        <pt x="13" y="330" on="0"/>
        <pt x="9" y="349" on="0"/>
        <pt x="10" y="356" on="1"/>
        <pt x="11" y="361" on="0"/>
        <pt x="15" y="369" on="0"/>
        <pt x="17" y="373" on="1"/>
        <pt x="14" y="390" on="0"/>
        <pt x="22" y="401" on="1"/>
        <pt x="17" y="425" on="0"/>
        <pt x="26" y="449" on="1"/>
        <pt x="29" y="456" on="0"/>
        <pt x="30" y="470" on="0"/>
        <pt x="32" y="475" on="1"/>
        <pt x="32" y="477" on="0"/>
        <pt x="37" y="485" on="0"/>
        <pt x="35" y="492" on="1"/>
        <pt x="37" y="495" on="0"/>
        <pt x="40" y="500" on="0"/>
        <pt x="42" y="503" on="1"/>
        <pt x="44" y="515" on="0"/>
        <pt x="55" y="538" on="0"/>
        <pt x="62" y="549" on="1"/>
        <pt x="72" y="562" on="0"/>
        <pt x="82" y="585" on="0"/>
        <pt x="88" y="593" on="1"/>
        <pt x="93" y="599" on="0"/>
        <pt x="105" y="609" on="0"/>
        <pt x="109" y="617" on="1"/>
        <pt x="115" y="616" on="0"/>
        <pt x="119" y="625" on="0"/>
        <pt x="124" y="625" on="1"/>
        <pt x="125" y="629" on="0"/>
        <pt x="131" y="635" on="1"/>
        <pt x="139" y="645" on="0"/>
        <pt x="149" y="654" on="0"/>
        <pt x="151" y="659" on="1"/>
        <pt x="157" y="659" on="0"/>
        <pt x="162" y="667" on="0"/>
        <pt x="165" y="671" on="1"/>
        <pt x="172" y="673" on="0"/>
        <pt x="178" y="682" on="0"/>
        <pt x="186" y="683" on="1"/>
        <pt x="188" y="689" on="0"/>
        <pt x="203" y="690" on="0"/>
        <pt x="205" y="697" on="1"/>
        <pt x="213" y="698" on="0"/>
        <pt x="229" y="707" on="0"/>
        <pt x="237" y="710" on="1"/>
        <pt x="241" y="712" on="0"/>
        <pt x="249" y="715" on="0"/>
        <pt x="253" y="717" on="1"/>
        <pt x="262" y="719" on="0"/>
        <pt x="266" y="722" on="0"/>
        <pt x="268" y="723" on="1"/>
        <pt x="272" y="724" on="0"/>
        <pt x="282" y="724" on="0"/>
        <pt x="287" y="725" on="1"/>
        <pt x="293" y="727" on="0"/>
        <pt x="305" y="733" on="0"/>
        <pt x="311" y="735" on="1"/>
        <pt x="314" y="736" on="0"/>
        <pt x="323" y="737" on="0"/>
        <pt x="327" y="738" on="1"/>
        <pt x="331" y="739" on="0"/>
        <pt x="340" y="742" on="0"/>
        <pt x="346" y="740" on="1"/>
        <pt x="349" y="740" on="0"/>
        <pt x="356" y="740" on="0"/>
        <pt x="362" y="742" on="1"/>
        <pt x="373" y="744" on="0"/>
        <pt x="407" y="750" on="0"/>
        <pt x="416" y="742" on="1"/>
        <pt x="422" y="745" on="0"/>
        <pt x="434" y="750" on="0"/>
        <pt x="442" y="745" on="1"/>
        <pt x="445" y="745" on="0"/>
        <pt x="452" y="748" on="0"/>
        <pt x="456" y="749" on="1"/>
        <pt x="459" y="749" on="0"/>
        <pt x="464" y="746" on="0"/>
        <pt x="468" y="746" on="1"/>
        <pt x="473" y="745" on="0"/>
        <pt x="480" y="746" on="0"/>
        <pt x="485" y="745" on="1"/>
        <pt x="492" y="744" on="0"/>
        <pt x="504" y="740" on="0"/>
        <pt x="511" y="738" on="1"/>
        <pt x="515" y="737" on="0"/>
        <pt x="522" y="738" on="0"/>
        <pt x="526" y="736" on="1"/>
        <pt x="529" y="736" on="0"/>
        <pt x="536" y="733" on="0"/>
        <pt x="538" y="733" on="1"/>
        <pt x="541" y="733" on="0"/>
        <pt x="547" y="735" on="0"/>
        <pt x="549" y="734" on="1"/>
        <pt x="558" y="732" on="0"/>
        <pt x="574" y="723" on="0"/>
        <pt x="584" y="724" on="1"/>
        <pt x="595" y="714" on="0"/>
        <pt x="625" y="702" on="0"/>
        <pt x="633" y="688" on="1"/>
        <pt x="636" y="687" on="0"/>
        <pt x="642" y="684" on="0"/>
        <pt x="645" y="683" on="1"/>
        <pt x="652" y="675" on="0"/>
        <pt x="667" y="659" on="0"/>
        <pt x="678" y="655" on="1"/>
        <pt x="680" y="650" on="0"/>
        <pt x="689" y="649" on="0"/>
        <pt x="694" y="647" on="1"/>
        <pt x="701" y="641" on="0"/>
        <pt x="710" y="638" on="0"/>
        <pt x="712" y="637" on="1"/>
        <pt x="714" y="632" on="0"/>
        <pt x="718" y="626" on="0"/>
      </contour>
    </TTGlyph>
    <TTGlyph name="Ccedilla" xMin="9" yMin="-239" xMax="720" yMax="750">
      <contour>
        <pt x="502" y="-129" on="1"/>
        <pt x="503" y="-155" on="0"/>
        <pt x="492" y="-184" on="0"/>
        <pt x="484" y="-201" on="1"/>
        <pt x="477" y="-204" on="0"/>
        <pt x="471" y="-212" on="0"/>
        <pt x="464" y="-216" on="1"/>
        <pt x="454" y="-221" on="0"/>
        <pt x="444" y="-226" on="0"/>
        <pt x="441" y="-227" on="1"/>
        <pt x="439" y="-228" on="0"/>
        <pt x="432" y="-226" on="0"/>
        <pt x="428" y="-227" on="1"/>
        <pt x="418" y="-230" on="0"/>
        <pt x="408" y="-229" on="0"/>
        <pt x="404" y="-230" on="1"/>
        <pt x="399" y="-232" on="0"/>
        <pt x="387" y="-238" on="0"/>
        <pt x="382" y="-239" on="1"/>
        <pt x="373" y="-239" on="0"/>
        <pt x="355" y="-231" on="0"/>
        <pt x="347" y="-233" on="1"/>
        <pt x="343" y="-229" on="0"/>
        <pt x="335" y="-224" on="0"/>
        <pt x="331" y="-221" on="1"/>
        <pt x="326" y="-217" on="0"/>
        <pt x="318" y="-210" on="0"/>
        <pt x="313" y="-205" on="1"/>
        <pt x="311" y="-203" on="0"/>
        <pt x="308" y="-189" on="0"/>
        <pt x="304" y="-185" on="1"/>
        <pt x="307" y="-176" on="0"/>
        <pt x="310" y="-164" on="0"/>
        <pt x="318" y="-160" on="1"/>
        <pt x="329" y="-155" on="0"/>
        <pt x="342" y="-164" on="0"/>
        <pt x="350" y="-172" on="1"/>
        <pt x="364" y="-171" on="0"/>
        <pt x="383" y="-180" on="0"/>
        <pt x="389" y="-187" on="1"/>
        <pt x="396" y="-188" on="0"/>
        <pt x="406" y="-185" on="0"/>
        <pt x="416" y="-182" on="0"/>
        <pt x="426" y="-181" on="0"/>
        <pt x="433" y="-182" on="1"/>
        <pt x="446" y="-171" on="0"/>
        <pt x="454" y="-151" on="1"/>
        <pt x="452" y="-143" on="0"/>
        <pt x="444" y="-131" on="0"/>
        <pt x="442" y="-123" on="1"/>
        <pt x="431" y="-118" on="0"/>
        <pt x="398" y="-117" on="0"/>
        <pt x="387" y="-112" on="1"/>
        <pt x="373" y="-114" on="0"/>
        <pt x="344" y="-119" on="0"/>
        <pt x="334" y="-121" on="1"/>
        <pt x="331" y="-117" on="0"/>
        <pt x="323" y="-109" on="0"/>
        <pt x="322" y="-102" on="1"/>
        <pt x="321" y="-93" on="0"/>
        <pt x="330" y="-79" on="0"/>
        <pt x="338" y="-77" on="1"/>
        <pt x="343" y="-69" on="0"/>
        <pt x="345" y="-56" on="0"/>
        <pt x="349" y="-51" on="1"/>
        <pt x="352" y="-47" on="0"/>
        <pt x="360" y="-31" on="0"/>
        <pt x="368" y="-27" on="1"/>
        <pt x="368" y="-19" on="0"/>
        <pt x="373" y="-9" on="0"/>
        <pt x="376" y="-4" on="1"/>
        <pt x="373" y="-4" on="0"/>
        <pt x="367" y="-4" on="0"/>
        <pt x="362" y="-5" on="1"/>
        <pt x="351" y="0" on="0"/>
        <pt x="344" y="-1" on="0"/>
        <pt x="340" y="-1" on="1"/>
        <pt x="337" y="4" on="0"/>
        <pt x="321" y="2" on="0"/>
        <pt x="316" y="6" on="1"/>
        <pt x="313" y="9" on="0"/>
        <pt x="307" y="9" on="0"/>
        <pt x="305" y="10" on="1"/>
        <pt x="295" y="13" on="0"/>
        <pt x="291" y="22" on="1"/>
        <pt x="289" y="20" on="0"/>
        <pt x="281" y="20" on="0"/>
        <pt x="278" y="20" on="1"/>
        <pt x="273" y="23" on="0"/>
        <pt x="267" y="29" on="0"/>
        <pt x="263" y="31" on="1"/>
        <pt x="253" y="32" on="0"/>
        <pt x="237" y="35" on="0"/>
        <pt x="233" y="44" on="1"/>
        <pt x="229" y="45" on="0"/>
        <pt x="223" y="45" on="0"/>
        <pt x="220" y="46" on="1"/>
        <pt x="211" y="50" on="0"/>
        <pt x="205" y="51" on="0"/>
        <pt x="201" y="53" on="1"/>
        <pt x="196" y="57" on="0"/>
        <pt x="191" y="58" on="0"/>
        <pt x="190" y="58" on="1"/>
        <pt x="173" y="72" on="0"/>
        <pt x="142" y="92" on="0"/>
        <pt x="129" y="101" on="1"/>
        <pt x="125" y="108" on="0"/>
        <pt x="119" y="120" on="0"/>
        <pt x="111" y="122" on="1"/>
        <pt x="112" y="126" on="0"/>
        <pt x="105" y="128" on="0"/>
        <pt x="106" y="133" on="1"/>
        <pt x="102" y="136" on="0"/>
        <pt x="99" y="139" on="1"/>
        <pt x="98" y="140" on="0"/>
        <pt x="98" y="141" on="1"/>
        <pt x="94" y="146" on="0"/>
        <pt x="85" y="152" on="0"/>
        <pt x="84" y="155" on="1"/>
        <pt x="82" y="160" on="0"/>
        <pt x="74" y="170" on="0"/>
        <pt x="70" y="175" on="1"/>
        <pt x="56" y="192" on="0"/>
        <pt x="53" y="206" on="1"/>
        <pt x="48" y="218" on="0"/>
        <pt x="40" y="225" on="0"/>
        <pt x="41" y="232" on="1"/>
        <pt x="39" y="235" on="0"/>
        <pt x="35" y="240" on="0"/>
        <pt x="33" y="244" on="1"/>
        <pt x="34" y="253" on="0"/>
        <pt x="29" y="263" on="0"/>
        <pt x="26" y="268" on="1"/>
        <pt x="26" y="273" on="0"/>
        <pt x="28" y="278" on="0"/>
        <pt x="27" y="284" on="1"/>
        <pt x="25" y="289" on="0"/>
        <pt x="19" y="300" on="0"/>
        <pt x="17" y="307" on="1"/>
        <pt x="15" y="312" on="0"/>
        <pt x="16" y="317" on="0"/>
        <pt x="14" y="326" on="1"/>
        <pt x="13" y="330" on="0"/>
        <pt x="9" y="349" on="0"/>
        <pt x="10" y="356" on="1"/>
        <pt x="11" y="361" on="0"/>
        <pt x="15" y="369" on="0"/>
        <pt x="17" y="373" on="1"/>
        <pt x="14" y="390" on="0"/>
        <pt x="22" y="401" on="1"/>
        <pt x="17" y="425" on="0"/>
        <pt x="26" y="449" on="1"/>
        <pt x="29" y="456" on="0"/>
        <pt x="30" y="470" on="0"/>
        <pt x="32" y="475" on="1"/>
        <pt x="32" y="477" on="0"/>
        <pt x="37" y="485" on="0"/>
        <pt x="35" y="492" on="1"/>
        <pt x="37" y="495" on="0"/>
        <pt x="40" y="500" on="0"/>
        <pt x="42" y="503" on="1"/>
        <pt x="44" y="515" on="0"/>
        <pt x="55" y="538" on="0"/>
        <pt x="62" y="549" on="1"/>
        <pt x="72" y="562" on="0"/>
        <pt x="82" y="585" on="0"/>
        <pt x="88" y="593" on="1"/>
        <pt x="93" y="599" on="0"/>
        <pt x="105" y="609" on="0"/>
        <pt x="109" y="617" on="1"/>
        <pt x="115" y="616" on="0"/>
        <pt x="119" y="625" on="0"/>
        <pt x="124" y="625" on="1"/>
        <pt x="125" y="629" on="0"/>
        <pt x="129" y="633" on="0"/>
        <pt x="131" y="635" on="1"/>
        <pt x="139" y="645" on="0"/>
        <pt x="149" y="654" on="0"/>
        <pt x="151" y="659" on="1"/>
        <pt x="157" y="659" on="0"/>
        <pt x="162" y="667" on="0"/>
        <pt x="165" y="671" on="1"/>
        <pt x="172" y="673" on="0"/>
        <pt x="178" y="682" on="0"/>
        <pt x="186" y="683" on="1"/>
        <pt x="188" y="689" on="0"/>
        <pt x="203" y="690" on="0"/>
        <pt x="205" y="697" on="1"/>
        <pt x="213" y="698" on="0"/>
        <pt x="229" y="707" on="0"/>
        <pt x="237" y="710" on="1"/>
        <pt x="241" y="712" on="0"/>
        <pt x="249" y="715" on="0"/>
        <pt x="253" y="717" on="1"/>
        <pt x="262" y="719" on="0"/>
        <pt x="266" y="722" on="0"/>
        <pt x="268" y="723" on="1"/>
        <pt x="272" y="724" on="0"/>
        <pt x="282" y="724" on="0"/>
        <pt x="287" y="726" on="1"/>
        <pt x="293" y="728" on="0"/>
        <pt x="304" y="733" on="0"/>
        <pt x="311" y="735" on="1"/>
        <pt x="314" y="736" on="0"/>
        <pt x="323" y="736" on="0"/>
        <pt x="327" y="738" on="1"/>
        <pt x="331" y="739" on="0"/>
        <pt x="340" y="742" on="0"/>
        <pt x="346" y="740" on="1"/>
        <pt x="349" y="740" on="0"/>
        <pt x="356" y="740" on="0"/>
        <pt x="362" y="742" on="1"/>
        <pt x="373" y="744" on="0"/>
        <pt x="407" y="750" on="0"/>
        <pt x="416" y="742" on="1"/>
        <pt x="422" y="745" on="0"/>
        <pt x="434" y="750" on="0"/>
        <pt x="442" y="745" on="1"/>
        <pt x="445" y="745" on="0"/>
        <pt x="452" y="748" on="0"/>
        <pt x="456" y="749" on="1"/>
        <pt x="459" y="749" on="0"/>
        <pt x="464" y="746" on="0"/>
        <pt x="469" y="746" on="1"/>
        <pt x="473" y="745" on="0"/>
        <pt x="480" y="746" on="0"/>
        <pt x="485" y="745" on="1"/>
        <pt x="492" y="744" on="0"/>
        <pt x="504" y="740" on="0"/>
        <pt x="511" y="738" on="1"/>
        <pt x="515" y="737" on="0"/>
        <pt x="522" y="738" on="0"/>
        <pt x="526" y="736" on="1"/>
        <pt x="528" y="736" on="0"/>
        <pt x="535" y="733" on="0"/>
        <pt x="538" y="733" on="1"/>
        <pt x="541" y="733" on="0"/>
        <pt x="547" y="735" on="0"/>
        <pt x="549" y="734" on="1"/>
        <pt x="558" y="732" on="0"/>
        <pt x="574" y="723" on="0"/>
        <pt x="584" y="724" on="1"/>
        <pt x="595" y="714" on="0"/>
        <pt x="625" y="702" on="0"/>
        <pt x="633" y="688" on="1"/>
        <pt x="636" y="687" on="0"/>
        <pt x="642" y="684" on="0"/>
        <pt x="645" y="683" on="1"/>
        <pt x="652" y="675" on="0"/>
        <pt x="667" y="659" on="0"/>
        <pt x="678" y="655" on="1"/>
        <pt x="680" y="650" on="0"/>
        <pt x="689" y="649" on="0"/>
        <pt x="694" y="647" on="1"/>
        <pt x="701" y="641" on="0"/>
        <pt x="710" y="638" on="0"/>
        <pt x="713" y="637" on="1"/>
        <pt x="714" y="632" on="0"/>
        <pt x="718" y="626" on="0"/>
        <pt x="720" y="622" on="1"/>
        <pt x="719" y="613" on="0"/>
        <pt x="713" y="600" on="0"/>
        <pt x="708" y="594" on="1"/>
        <pt x="701" y="587" on="0"/>
        <pt x="699" y="580" on="0"/>
        <pt x="697" y="578" on="1"/>
        <pt x="692" y="571" on="0"/>
        <pt x="690" y="567" on="0"/>
        <pt x="689" y="566" on="1"/>
        <pt x="685" y="562" on="0"/>
        <pt x="682" y="556" on="0"/>
        <pt x="679" y="557" on="1"/>
        <pt x="677" y="548" on="0"/>
        <pt x="663" y="526" on="0"/>
        <pt x="652" y="525" on="1"/>
        <pt x="645" y="525" on="0"/>
        <pt x="632" y="532" on="0"/>
        <pt x="629" y="540" on="1"/>
        <pt x="625" y="541" on="0"/>
        <pt x="620" y="543" on="0"/>
        <pt x="616" y="545" on="1"/>
        <pt x="615" y="550" on="0"/>
        <pt x="608" y="551" on="0"/>
        <pt x="608" y="556" on="1"/>
        <pt x="602" y="558" on="0"/>
        <pt x="595" y="565" on="0"/>
        <pt x="590" y="568" on="1"/>
        <pt x="586" y="571" on="0"/>
        <pt x="576" y="579" on="0"/>
        <pt x="574" y="586" on="1"/>
        <pt x="565" y="591" on="0"/>
        <pt x="549" y="601" on="0"/>
        <pt x="540" y="606" on="1"/>
        <pt x="532" y="610" on="0"/>
        <pt x="513" y="621" on="0"/>
        <pt x="502" y="622" on="1"/>
        <pt x="500" y="626" on="0"/>
        <pt x="491" y="629" on="0"/>
        <pt x="487" y="632" on="1"/>
        <pt x="476" y="633" on="0"/>
        <pt x="455" y="637" on="0"/>
        <pt x="443" y="639" on="1"/>
        <pt x="432" y="635" on="0"/>
        <pt x="399" y="638" on="0"/>
        <pt x="388" y="641" on="1"/>
        <pt x="385" y="641" on="0"/>
        <pt x="379" y="637" on="0"/>
        <pt x="375" y="636" on="1"/>
        <pt x="367" y="636" on="0"/>
        <pt x="360" y="634" on="0"/>
        <pt x="358" y="633" on="1"/>
        <pt x="354" y="632" on="0"/>
        <pt x="346" y="633" on="0"/>
        <pt x="342" y="632" on="1"/>
        <pt x="337" y="630" on="0"/>
        <pt x="329" y="626" on="0"/>
        <pt x="324" y="626" on="1"/>
        <pt x="319" y="625" on="0"/>
        <pt x="317" y="616" on="0"/>
        <pt x="315" y="614" on="1"/>
        <pt x="303" y="612" on="0"/>
        <pt x="287" y="600" on="0"/>
        <pt x="280" y="592" on="1"/>
        <pt x="266" y="585" on="0"/>
        <pt x="249" y="578" on="0"/>
        <pt x="245" y="569" on="1"/>
        <pt x="239" y="569" on="0"/>
        <pt x="232" y="564" on="0"/>
        <pt x="226" y="559" on="0"/>
        <pt x="220" y="554" on="0"/>
        <pt x="215" y="554" on="1"/>
        <pt x="212" y="549" on="0"/>
        <pt x="208" y="541" on="0"/>
        <pt x="205" y="538" on="1"/>
        <pt x="194" y="532" on="0"/>
        <pt x="189" y="527" on="0"/>
        <pt x="184" y="523" on="1"/>
        <pt x="180" y="519" on="0"/>
        <pt x="177" y="516" on="0"/>
        <pt x="174" y="512" on="1"/>
        <pt x="171" y="506" on="0"/>
        <pt x="162" y="488" on="0"/>
        <pt x="156" y="484" on="1"/>
        <pt x="154" y="474" on="0"/>
        <pt x="146" y="461" on="0"/>
        <pt x="141" y="455" on="1"/>
        <pt x="139" y="452" on="0"/>
        <pt x="141" y="446" on="0"/>
        <pt x="139" y="443" on="1"/>
        <pt x="138" y="438" on="0"/>
        <pt x="132" y="431" on="0"/>
        <pt x="131" y="427" on="1"/>
        <pt x="130" y="422" on="0"/>
        <pt x="132" y="413" on="0"/>
        <pt x="132" y="409" on="1"/>
        <pt x="132" y="405" on="0"/>
        <pt x="129" y="400" on="0"/>
        <pt x="129" y="397" on="1"/>
        <pt x="127" y="385" on="0"/>
        <pt x="127" y="357" on="0"/>
        <pt x="126" y="346" on="1"/>
        <pt x="126" y="341" on="0"/>
        <pt x="127" y="331" on="0"/>
        <pt x="127" y="326" on="1"/>
        <pt x="128" y="321" on="0"/>
        <pt x="128" y="310" on="0"/>
        <pt x="128" y="308" on="1"/>
        <pt x="129" y="303" on="0"/>
        <pt x="133" y="298" on="0"/>
        <pt x="135" y="294" on="1"/>
        <pt x="137" y="290" on="0"/>
        <pt x="135" y="282" on="0"/>
        <pt x="139" y="280" on="1"/>
        <pt x="135" y="271" on="0"/>
        <pt x="144" y="265" on="0"/>
        <pt x="142" y="256" on="1"/>
        <pt x="148" y="249" on="0"/>
        <pt x="157" y="240" on="0"/>
        <pt x="159" y="238" on="1"/>
        <pt x="164" y="229" on="0"/>
        <pt x="169" y="223" on="0"/>
        <pt x="171" y="219" on="1"/>
        <pt x="175" y="214" on="0"/>
        <pt x="186" y="200" on="0"/>
        <pt x="191" y="194" on="1"/>
        <pt x="196" y="189" on="0"/>
        <pt x="201" y="184" on="0"/>
        <pt x="205" y="179" on="1"/>
        <pt x="208" y="174" on="0"/>
        <pt x="216" y="171" on="0"/>
        <pt x="221" y="167" on="1"/>
        <pt x="223" y="165" on="0"/>
        <pt x="227" y="160" on="0"/>
        <pt x="232" y="159" on="1"/>
        <pt x="237" y="154" on="0"/>
        <pt x="252" y="149" on="0"/>
        <pt x="254" y="141" on="1"/>
        <pt x="265" y="137" on="0"/>
        <pt x="285" y="126" on="0"/>
        <pt x="299" y="122" on="1"/>
        <pt x="313" y="120" on="0"/>
        <pt x="330" y="119" on="0"/>
        <pt x="334" y="118" on="1"/>
        <pt x="342" y="117" on="0"/>
        <pt x="353" y="117" on="0"/>
        <pt x="362" y="118" on="1"/>
        <pt x="373" y="116" on="0"/>
        <pt x="381" y="119" on="0"/>
        <pt x="384" y="119" on="1"/>
        <pt x="386" y="119" on="0"/>
        <pt x="393" y="117" on="0"/>
        <pt x="396" y="117" on="1"/>
        <pt x="408" y="116" on="0"/>
        <pt x="431" y="120" on="0"/>
        <pt x="443" y="116" on="1"/>
        <pt x="446" y="117" on="0"/>
        <pt x="452" y="120" on="0"/>
        <pt x="455" y="121" on="1"/>
        <pt x="466" y="118" on="0"/>
        <pt x="485" y="125" on="0"/>
        <pt x="492" y="121" on="1"/>
        <pt x="503" y="126" on="0"/>
        <pt x="510" y="124" on="0"/>
        <pt x="514" y="124" on="1"/>
        <pt x="519" y="125" on="0"/>
        <pt x="527" y="131" on="0"/>
        <pt x="532" y="133" on="1"/>
        <pt x="535" y="135" on="0"/>
        <pt x="542" y="134" on="0"/>
        <pt x="546" y="135" on="1"/>
        <pt x="559" y="138" on="0"/>
        <pt x="574" y="142" on="0"/>
        <pt x="579" y="142" on="1"/>
        <pt x="589" y="143" on="0"/>
        <pt x="608" y="144" on="0"/>
        <pt x="614" y="152" on="1"/>
        <pt x="631" y="154" on="0"/>
        <pt x="647" y="158" on="0"/>
        <pt x="655" y="159" on="1"/>
        <pt x="659" y="156" on="0"/>
        <pt x="658" y="143" on="0"/>
        <pt x="665" y="142" on="1"/>
        <pt x="664" y="137" on="0"/>
        <pt x="666" y="132" on="0"/>
        <pt x="667" y="129" on="1"/>
        <pt x="669" y="124" on="0"/>
        <pt x="676" y="113" on="0"/>
        <pt x="677" y="105" on="1"/>
        <pt x="678" y="102" on="0"/>
        <pt x="676" y="97" on="0"/>
        <pt x="676" y="94" on="1"/>
        <pt x="677" y="84" on="0"/>
        <pt x="680" y="80" on="0"/>
        <pt x="680" y="78" on="1"/>
        <pt x="681" y="67" on="0"/>
        <pt x="683" y="57" on="0"/>
        <pt x="683" y="54" on="1"/>
        <pt x="682" y="51" on="0"/>
        <pt x="678" y="44" on="0"/>
        <pt x="678" y="41" on="1"/>
        <pt x="670" y="39" on="0"/>
        <pt x="649" y="36" on="0"/>
        <pt x="644" y="42" on="1"/>
        <pt x="636" y="40" on="0"/>
        <pt x="625" y="34" on="0"/>
        <pt x="617" y="30" on="1"/>
        <pt x="609" y="25" on="0"/>
        <pt x="598" y="23" on="0"/>
        <pt x="593" y="22" on="1"/>
        <pt x="589" y="20" on="0"/>
        <pt x="582" y="18" on="0"/>
        <pt x="577" y="18" on="1"/>
        <pt x="572" y="14" on="0"/>
        <pt x="562" y="8" on="0"/>
        <pt x="555" y="6" on="1"/>
        <pt x="543" y="1" on="0"/>
        <pt x="525" y="2" on="0"/>
        <pt x="518" y="0" on="1"/>
        <pt x="513" y="-1" on="0"/>
        <pt x="504" y="-4" on="0"/>
        <pt x="500" y="-6" on="1"/>
        <pt x="491" y="-6" on="0"/>
        <pt x="484" y="-5" on="0"/>
        <pt x="481" y="-6" on="1"/>
        <pt x="476" y="-6" on="0"/>
        <pt x="465" y="-3" on="0"/>
        <pt x="460" y="-4" on="1"/>
        <pt x="456" y="-4" on="0"/>
        <pt x="448" y="-7" on="0"/>
        <pt x="443" y="-8" on="1"/>
        <pt x="440" y="-8" on="0"/>
        <pt x="434" y="-6" on="0"/>
        <pt x="430" y="-6" on="1"/>
        <pt x="428" y="-14" on="0"/>
        <pt x="417" y="-34" on="0"/>
        <pt x="414" y="-41" on="1"/>
        <pt x="412" y="-43" on="0"/>
        <pt x="403" y="-59" on="0"/>
        <pt x="401" y="-61" on="1"/>
        <pt x="402" y="-64" on="0"/>
        <pt x="410" y="-64" on="0"/>
        <pt x="421" y="-63" on="0"/>
        <pt x="431" y="-63" on="0"/>
        <pt x="434" y="-65" on="1"/>
        <pt x="435" y="-65" on="0"/>
        <pt x="443" y="-59" on="0"/>
        <pt x="445" y="-61" on="1"/>
        <pt x="448" y="-62" on="0"/>
        <pt x="457" y="-68" on="0"/>
        <pt x="459" y="-69" on="1"/>
        <pt x="462" y="-71" on="0"/>
        <pt x="468" y="-72" on="0"/>
        <pt x="470" y="-74" on="1"/>
        <pt x="472" y="-80" on="0"/>
        <pt x="481" y="-85" on="0"/>
        <pt x="481" y="-93" on="1"/>
        <pt x="488" y="-94" on="0"/>
        <pt x="494" y="-103" on="0"/>
        <pt x="496" y="-114" on="0"/>
        <pt x="498" y="-125" on="0"/>
      </contour>
    </TTGlyph>
    <TTGlyph name="D" xMin="82" yMin="31" xMax="662" yMax="745">
      <contour>
        <pt x="660" y="380" on="1"/>
        <pt x="660" y="367" on="1"/>
        <pt x="662" y="348" on="0"/>
        <pt x="652" y="311" on="0"/>
        <pt x="647" y="297" on="1"/>
        <pt x="644" y="289" on="0"/>
        <pt x="637" y="271" on="0"/>
        <pt x="635" y="261" on="1"/>
        <pt x="627" y="251" on="0"/>
        <pt x="614" y="227" on="0"/>
        <pt x="607" y="216" on="1"/>
        <pt x="605" y="214" on="0"/>
        <pt x="604" y="208" on="0"/>
        <pt x="602" y="206" on="1"/>
        <pt x="597" y="201" on="0"/>
        <pt x="593" y="193" on="0"/>
        <pt x="591" y="189" on="1"/>
        <pt x="584" y="181" on="0"/>
        <pt x="566" y="170" on="0"/>
        <pt x="563" y="159" on="1"/>
        <pt x="554" y="156" on="0"/>
        <pt x="545" y="140" on="0"/>
        <pt x="537" y="135" on="1"/>
        <pt x="535" y="133" on="0"/>
        <pt x="527" y="132" on="0"/>
        <pt x="524" y="130" on="1"/>
        <pt x="513" y="123" on="0"/>
        <pt x="503" y="114" on="1"/>
        <pt x="501" y="112" on="0"/>
        <pt x="491" y="108" on="0"/>
        <pt x="486" y="106" on="1"/>
        <pt x="481" y="104" on="0"/>
        <pt x="476" y="95" on="0"/>
        <pt x="471" y="93" on="1"/>
        <pt x="463" y="91" on="0"/>
        <pt x="454" y="86" on="0"/>
        <pt x="450" y="84" on="1"/>
        <pt x="443" y="82" on="0"/>
        <pt x="440" y="78" on="0"/>
        <pt x="439" y="78" on="1"/>
        <pt x="432" y="76" on="0"/>
        <pt x="421" y="70" on="0"/>
        <pt x="415" y="72" on="1"/>
        <pt x="410" y="68" on="0"/>
        <pt x="399" y="66" on="0"/>
        <pt x="394" y="63" on="1"/>
        <pt x="385" y="60" on="0"/>
        <pt x="375" y="55" on="1"/>
        <pt x="365" y="51" on="0"/>
        <pt x="359" y="51" on="0"/>
        <pt x="357" y="51" on="1"/>
        <pt x="352" y="48" on="0"/>
        <pt x="346" y="47" on="0"/>
        <pt x="343" y="46" on="1"/>
        <pt x="332" y="44" on="0"/>
        <pt x="329" y="45" on="0"/>
        <pt x="327" y="45" on="1"/>
        <pt x="324" y="45" on="0"/>
        <pt x="314" y="42" on="0"/>
        <pt x="309" y="45" on="1"/>
        <pt x="305" y="43" on="0"/>
        <pt x="297" y="39" on="0"/>
        <pt x="291" y="38" on="1"/>
        <pt x="288" y="37" on="0"/>
        <pt x="278" y="39" on="0"/>
        <pt x="273" y="38" on="1"/>
        <pt x="266" y="36" on="0"/>
        <pt x="262" y="37" on="0"/>
        <pt x="261" y="37" on="1"/>
        <pt x="257" y="37" on="0"/>
        <pt x="238" y="31" on="0"/>
        <pt x="233" y="31" on="1"/>
        <pt x="225" y="31" on="0"/>
        <pt x="215" y="35" on="1"/>
        <pt x="211" y="36" on="0"/>
        <pt x="205" y="37" on="0"/>
        <pt x="204" y="41" on="1"/>
        <pt x="199" y="42" on="0"/>
        <pt x="198" y="35" on="0"/>
        <pt x="193" y="37" on="1"/>
        <pt x="186" y="44" on="0"/>
        <pt x="179" y="45" on="1"/>
        <pt x="171" y="40" on="0"/>
        <pt x="167" y="43" on="0"/>
        <pt x="163" y="42" on="1"/>
        <pt x="161" y="38" on="0"/>
        <pt x="149" y="37" on="0"/>
        <pt x="145" y="33" on="1"/>
        <pt x="134" y="35" on="0"/>
        <pt x="114" y="31" on="0"/>
        <pt x="102" y="32" on="1"/>
        <pt x="100" y="34" on="0"/>
        <pt x="95" y="39" on="0"/>
        <pt x="93" y="42" on="1"/>
        <pt x="87" y="48" on="0"/>
        <pt x="87" y="53" on="1"/>
        <pt x="86" y="59" on="0"/>
        <pt x="88" y="70" on="0"/>
        <pt x="90" y="75" on="1"/>
        <pt x="89" y="79" on="0"/>
        <pt x="88" y="85" on="0"/>
        <pt x="88" y="88" on="1"/>
        <pt x="87" y="92" on="0"/>
        <pt x="90" y="96" on="0"/>
        <pt x="91" y="100" on="1"/>
        <pt x="90" y="113" on="0"/>
        <pt x="94" y="137" on="0"/>
        <pt x="94" y="147" on="1"/>
        <pt x="94" y="160" on="0"/>
        <pt x="93" y="188" on="0"/>
        <pt x="92" y="203" on="1"/>
        <pt x="90" y="211" on="0"/>
        <pt x="91" y="227" on="0"/>
        <pt x="91" y="233" on="1"/>
        <pt x="90" y="250" on="0"/>
        <pt x="91" y="295" on="0"/>
        <pt x="91" y="314" on="1"/>
        <pt x="92" y="323" on="0"/>
        <pt x="90" y="331" on="0"/>
        <pt x="90" y="335" on="1"/>
        <pt x="90" y="339" on="0"/>
        <pt x="92" y="346" on="0"/>
        <pt x="92" y="351" on="1"/>
        <pt x="92" y="362" on="0"/>
        <pt x="91" y="386" on="0"/>
        <pt x="93" y="397" on="1"/>
        <pt x="91" y="401" on="0"/>
        <pt x="88" y="408" on="0"/>
        <pt x="86" y="413" on="1"/>
        <pt x="88" y="420" on="0"/>
        <pt x="85" y="435" on="0"/>
        <pt x="85" y="442" on="1"/>
        <pt x="86" y="454" on="0"/>
        <pt x="88" y="470" on="0"/>
        <pt x="83" y="477" on="1"/>
        <pt x="86" y="489" on="0"/>
        <pt x="82" y="512" on="0"/>
        <pt x="82" y="523" on="1"/>
        <pt x="82" y="529" on="0"/>
        <pt x="83" y="540" on="0"/>
        <pt x="83" y="546" on="1"/>
        <pt x="85" y="552" on="0"/>
        <pt x="83" y="557" on="0"/>
        <pt x="83" y="559" on="1"/>
        <pt x="85" y="568" on="0"/>
        <pt x="82" y="576" on="0"/>
        <pt x="82" y="581" on="1"/>
        <pt x="82" y="586" on="0"/>
        <pt x="85" y="596" on="0"/>
        <pt x="87" y="600" on="1"/>
        <pt x="89" y="605" on="0"/>
        <pt x="88" y="619" on="0"/>
        <pt x="88" y="627" on="1"/>
        <pt x="88" y="631" on="0"/>
        <pt x="90" y="638" on="0"/>
        <pt x="90" y="642" on="1"/>
        <pt x="90" y="650" on="0"/>
        <pt x="88" y="665" on="0"/>
        <pt x="89" y="672" on="1"/>
        <pt x="89" y="676" on="0"/>
        <pt x="92" y="683" on="0"/>
        <pt x="92" y="686" on="1"/>
        <pt x="93" y="691" on="0"/>
        <pt x="89" y="703" on="0"/>
        <pt x="93" y="708" on="1"/>
        <pt x="94" y="713" on="0"/>
        <pt x="86" y="717" on="0"/>
        <pt x="90" y="721" on="1"/>
        <pt x="91" y="726" on="0"/>
        <pt x="97" y="734" on="1"/>
        <pt x="103" y="735" on="0"/>
        <pt x="109" y="734" on="0"/>
        <pt x="112" y="730" on="1"/>
        <pt x="116" y="732" on="0"/>
        <pt x="120" y="737" on="0"/>
        <pt x="124" y="738" on="1"/>
        <pt x="132" y="740" on="0"/>
        <pt x="152" y="741" on="0"/>
        <pt x="160" y="741" on="1"/>
        <pt x="165" y="741" on="0"/>
        <pt x="174" y="740" on="0"/>
        <pt x="179" y="740" on="1"/>
        <pt x="187" y="741" on="0"/>
        <pt x="203" y="744" on="0"/>
        <pt x="211" y="744" on="1"/>
        <pt x="217" y="744" on="0"/>
        <pt x="227" y="742" on="1"/>
        <pt x="234" y="742" on="0"/>
        <pt x="245" y="741" on="0"/>
        <pt x="251" y="742" on="1"/>
        <pt x="262" y="743" on="0"/>
        <pt x="274" y="744" on="0"/>
        <pt x="279" y="745" on="1"/>
        <pt x="287" y="745" on="0"/>
        <pt x="298" y="742" on="0"/>
        <pt x="305" y="741" on="1"/>
        <pt x="310" y="740" on="0"/>
        <pt x="317" y="740" on="0"/>
        <pt x="322" y="739" on="1"/>
        <pt x="326" y="738" on="0"/>
        <pt x="333" y="735" on="0"/>
        <pt x="337" y="734" on="1"/>
        <pt x="347" y="732" on="0"/>
        <pt x="372" y="733" on="0"/>
        <pt x="381" y="726" on="1"/>
        <pt x="384" y="726" on="0"/>
        <pt x="389" y="727" on="0"/>
        <pt x="392" y="726" on="1"/>
        <pt x="403" y="723" on="0"/>
        <pt x="411" y="725" on="0"/>
        <pt x="414" y="724" on="1"/>
        <pt x="417" y="723" on="0"/>
        <pt x="424" y="720" on="0"/>
        <pt x="427" y="719" on="1"/>
        <pt x="434" y="717" on="0"/>
        <pt x="449" y="719" on="0"/>
        <pt x="457" y="717" on="1"/>
        <pt x="464" y="713" on="0"/>
        <pt x="469" y="712" on="0"/>
        <pt x="471" y="711" on="1"/>
        <pt x="475" y="708" on="0"/>
        <pt x="482" y="708" on="0"/>
        <pt x="484" y="706" on="1"/>
        <pt x="495" y="698" on="0"/>
        <pt x="514" y="685" on="0"/>
        <pt x="522" y="679" on="1"/>
        <pt x="529" y="672" on="0"/>
        <pt x="536" y="668" on="0"/>
        <pt x="538" y="664" on="1"/>
        <pt x="544" y="656" on="0"/>
        <pt x="558" y="641" on="0"/>
        <pt x="565" y="633" on="1"/>
        <pt x="573" y="627" on="0"/>
        <pt x="577" y="623" on="1"/>
        <pt x="589" y="610" on="0"/>
        <pt x="605" y="583" on="0"/>
        <pt x="613" y="569" on="1"/>
        <pt x="613" y="565" on="0"/>
        <pt x="616" y="561" on="0"/>
        <pt x="615" y="556" on="1"/>
        <pt x="620" y="550" on="0"/>
        <pt x="627" y="535" on="0"/>
        <pt x="631" y="527" on="1"/>
        <pt x="636" y="517" on="0"/>
        <pt x="637" y="506" on="0"/>
        <pt x="639" y="501" on="1"/>
        <pt x="640" y="497" on="0"/>
        <pt x="643" y="489" on="0"/>
        <pt x="645" y="485" on="1"/>
        <pt x="647" y="474" on="0"/>
        <pt x="654" y="460" on="0"/>
        <pt x="655" y="455" on="1"/>
        <pt x="656" y="443" on="0"/>
        <pt x="659" y="433" on="0"/>
        <pt x="660" y="429" on="1"/>
        <pt x="662" y="418" on="0"/>
        <pt x="660" y="391" on="0"/>
      </contour>
      <contour>
        <pt x="557" y="400" on="1"/>
        <pt x="557" y="405" on="0"/>
        <pt x="555" y="415" on="0"/>
        <pt x="554" y="417" on="1"/>
        <pt x="552" y="423" on="0"/>
        <pt x="550" y="427" on="0"/>
        <pt x="550" y="428" on="1"/>
        <pt x="549" y="438" on="0"/>
        <pt x="548" y="447" on="0"/>
        <pt x="547" y="450" on="1"/>
        <pt x="546" y="453" on="0"/>
        <pt x="543" y="464" on="0"/>
        <pt x="542" y="465" on="1"/>
        <pt x="540" y="467" on="0"/>
        <pt x="537" y="474" on="0"/>
        <pt x="536" y="475" on="1"/>
        <pt x="531" y="480" on="0"/>
        <pt x="527" y="497" on="0"/>
        <pt x="524" y="504" on="1"/>
        <pt x="519" y="512" on="0"/>
        <pt x="517" y="519" on="0"/>
        <pt x="517" y="521" on="1"/>
        <pt x="513" y="526" on="0"/>
        <pt x="504" y="532" on="0"/>
        <pt x="504" y="540" on="1"/>
        <pt x="499" y="542" on="0"/>
        <pt x="491" y="551" on="0"/>
        <pt x="487" y="554" on="1"/>
        <pt x="484" y="559" on="0"/>
        <pt x="480" y="562" on="0"/>
        <pt x="478" y="564" on="1"/>
        <pt x="471" y="570" on="0"/>
        <pt x="465" y="574" on="0"/>
        <pt x="464" y="579" on="1"/>
        <pt x="453" y="582" on="0"/>
        <pt x="439" y="595" on="0"/>
        <pt x="428" y="598" on="1"/>
        <pt x="425" y="601" on="0"/>
        <pt x="422" y="609" on="0"/>
        <pt x="417" y="610" on="1"/>
        <pt x="412" y="611" on="0"/>
        <pt x="400" y="609" on="0"/>
        <pt x="395" y="610" on="1"/>
        <pt x="390" y="611" on="0"/>
        <pt x="384" y="616" on="0"/>
        <pt x="380" y="617" on="1"/>
        <pt x="377" y="618" on="0"/>
        <pt x="371" y="615" on="0"/>
        <pt x="367" y="615" on="1"/>
        <pt x="362" y="616" on="0"/>
        <pt x="355" y="621" on="0"/>
        <pt x="352" y="622" on="1"/>
        <pt x="342" y="623" on="0"/>
        <pt x="322" y="621" on="0"/>
        <pt x="311" y="622" on="1"/>
        <pt x="303" y="624" on="0"/>
        <pt x="288" y="627" on="0"/>
        <pt x="280" y="628" on="1"/>
        <pt x="271" y="626" on="0"/>
        <pt x="265" y="628" on="0"/>
        <pt x="263" y="628" on="1"/>
        <pt x="249" y="628" on="0"/>
        <pt x="238" y="627" on="0"/>
        <pt x="231" y="627" on="1"/>
        <pt x="227" y="627" on="0"/>
        <pt x="220" y="630" on="0"/>
        <pt x="217" y="629" on="1"/>
        <pt x="209" y="627" on="0"/>
        <pt x="207" y="628" on="0"/>
        <pt x="205" y="628" on="1"/>
        <pt x="202" y="627" on="0"/>
        <pt x="194" y="626" on="0"/>
        <pt x="190" y="625" on="1"/>
        <pt x="185" y="605" on="0"/>
        <pt x="188" y="568" on="0"/>
        <pt x="185" y="549" on="1"/>
        <pt x="182" y="538" on="0"/>
        <pt x="183" y="526" on="0"/>
        <pt x="183" y="521" on="1"/>
        <pt x="183" y="516" on="0"/>
        <pt x="181" y="507" on="0"/>
        <pt x="181" y="503" on="1"/>
        <pt x="181" y="500" on="0"/>
        <pt x="183" y="492" on="0"/>
        <pt x="184" y="487" on="1"/>
        <pt x="184" y="479" on="0"/>
        <pt x="182" y="461" on="0"/>
        <pt x="183" y="453" on="1"/>
        <pt x="184" y="446" on="0"/>
        <pt x="187" y="433" on="0"/>
        <pt x="189" y="427" on="1"/>
        <pt x="191" y="419" on="0"/>
        <pt x="193" y="404" on="0"/>
        <pt x="194" y="396" on="1"/>
        <pt x="195" y="383" on="0"/>
        <pt x="190" y="361" on="0"/>
        <pt x="190" y="352" on="1"/>
        <pt x="190" y="347" on="0"/>
        <pt x="193" y="341" on="0"/>
        <pt x="193" y="337" on="1"/>
        <pt x="191" y="333" on="0"/>
        <pt x="189" y="326" on="0"/>
        <pt x="188" y="321" on="1"/>
        <pt x="187" y="316" on="0"/>
        <pt x="187" y="306" on="0"/>
        <pt x="186" y="301" on="1"/>
        <pt x="184" y="281" on="0"/>
        <pt x="183" y="232" on="0"/>
        <pt x="176" y="218" on="1"/>
        <pt x="181" y="209" on="0"/>
        <pt x="176" y="188" on="0"/>
        <pt x="175" y="177" on="1"/>
        <pt x="175" y="172" on="0"/>
        <pt x="177" y="164" on="0"/>
        <pt x="177" y="159" on="1"/>
        <pt x="176" y="155" on="0"/>
        <pt x="173" y="149" on="0"/>
        <pt x="173" y="144" on="1"/>
        <pt x="173" y="139" on="0"/>
        <pt x="176" y="133" on="0"/>
        <pt x="176" y="128" on="1"/>
        <pt x="181" y="127" on="0"/>
        <pt x="194" y="128" on="0"/>
        <pt x="198" y="127" on="1"/>
        <pt x="208" y="126" on="0"/>
        <pt x="220" y="123" on="0"/>
        <pt x="225" y="123" on="1"/>
        <pt x="240" y="128" on="0"/>
        <pt x="252" y="129" on="0"/>
        <pt x="257" y="131" on="1"/>
        <pt x="263" y="133" on="0"/>
        <pt x="271" y="135" on="0"/>
        <pt x="275" y="137" on="1"/>
        <pt x="281" y="142" on="0"/>
        <pt x="287" y="142" on="0"/>
        <pt x="289" y="143" on="1"/>
        <pt x="304" y="149" on="0"/>
        <pt x="329" y="153" on="0"/>
        <pt x="337" y="156" on="1"/>
        <pt x="345" y="159" on="0"/>
        <pt x="359" y="167" on="0"/>
        <pt x="370" y="165" on="1"/>
        <pt x="375" y="171" on="0"/>
        <pt x="389" y="172" on="0"/>
        <pt x="396" y="174" on="1"/>
        <pt x="401" y="176" on="0"/>
        <pt x="415" y="183" on="0"/>
        <pt x="419" y="185" on="1"/>
        <pt x="423" y="187" on="0"/>
        <pt x="430" y="189" on="0"/>
        <pt x="435" y="189" on="1"/>
        <pt x="446" y="203" on="0"/>
        <pt x="476" y="222" on="0"/>
        <pt x="484" y="239" on="1"/>
        <pt x="489" y="238" on="0"/>
        <pt x="491" y="243" on="0"/>
        <pt x="496" y="243" on="1"/>
        <pt x="507" y="263" on="0"/>
        <pt x="533" y="296" on="0"/>
        <pt x="539" y="322" on="1"/>
        <pt x="541" y="325" on="0"/>
        <pt x="547" y="330" on="0"/>
        <pt x="549" y="333" on="1"/>
        <pt x="547" y="344" on="0"/>
        <pt x="554" y="362" on="0"/>
        <pt x="555" y="372" on="1"/>
        <pt x="555" y="378" on="0"/>
        <pt x="553" y="385" on="0"/>
        <pt x="554" y="389" on="1"/>
        <pt x="554" y="392" on="0"/>
        <pt x="557" y="397" on="0"/>
      </contour>
    </TTGlyph>
    <TTGlyph name="E" xMin="58" yMin="-20" xMax="539" yMax="751">
      <contour>
        <pt x="531" y="727" on="1"/>
        <pt x="534" y="724" on="0"/>
        <pt x="538" y="715" on="0"/>
        <pt x="539" y="705" on="0"/>
        <pt x="536" y="696" on="0"/>
        <pt x="530" y="695" on="1"/>
        <pt x="534" y="691" on="0"/>
        <pt x="530" y="684" on="0"/>
        <pt x="530" y="679" on="1"/>
        <pt x="529" y="668" on="0"/>
        <pt x="531" y="646" on="0"/>
        <pt x="529" y="636" on="1"/>
        <pt x="528" y="631" on="0"/>
        <pt x="524" y="624" on="0"/>
        <pt x="522" y="620" on="1"/>
        <pt x="520" y="615" on="0"/>
        <pt x="516" y="607" on="0"/>
        <pt x="514" y="605" on="1"/>
        <pt x="506" y="600" on="0"/>
        <pt x="482" y="608" on="0"/>
        <pt x="472" y="604" on="1"/>
        <pt x="464" y="610" on="0"/>
        <pt x="448" y="606" on="0"/>
        <pt x="439" y="613" on="1"/>
        <pt x="430" y="610" on="0"/>
        <pt x="413" y="614" on="0"/>
        <pt x="403" y="615" on="1"/>
        <pt x="400" y="615" on="0"/>
        <pt x="394" y="613" on="0"/>
        <pt x="391" y="614" on="1"/>
        <pt x="386" y="615" on="0"/>
        <pt x="376" y="620" on="0"/>
        <pt x="371" y="620" on="1"/>
        <pt x="367" y="621" on="0"/>
        <pt x="358" y="618" on="0"/>
        <pt x="353" y="618" on="1"/>
        <pt x="336" y="618" on="1"/>
        <pt x="322" y="620" on="0"/>
        <pt x="292" y="622" on="0"/>
        <pt x="273" y="624" on="1"/>
        <pt x="258" y="626" on="0"/>
        <pt x="227" y="626" on="0"/>
        <pt x="210" y="624" on="1"/>
        <pt x="205" y="614" on="0"/>
        <pt x="208" y="593" on="0"/>
        <pt x="209" y="582" on="1"/>
        <pt x="210" y="571" on="0"/>
        <pt x="211" y="549" on="0"/>
        <pt x="212" y="538" on="1"/>
        <pt x="212" y="535" on="0"/>
        <pt x="210" y="528" on="0"/>
        <pt x="210" y="525" on="1"/>
        <pt x="210" y="519" on="0"/>
        <pt x="212" y="501" on="0"/>
        <pt x="212" y="493" on="1"/>
        <pt x="212" y="486" on="0"/>
        <pt x="210" y="475" on="0"/>
        <pt x="213" y="469" on="1"/>
        <pt x="222" y="466" on="0"/>
        <pt x="233" y="466" on="1"/>
        <pt x="240" y="465" on="0"/>
        <pt x="253" y="465" on="0"/>
        <pt x="259" y="465" on="1"/>
        <pt x="270" y="466" on="0"/>
        <pt x="291" y="466" on="0"/>
        <pt x="302" y="466" on="1"/>
        <pt x="319" y="466" on="0"/>
        <pt x="352" y="466" on="0"/>
        <pt x="372" y="468" on="1"/>
        <pt x="381" y="469" on="0"/>
        <pt x="398" y="472" on="0"/>
        <pt x="407" y="467" on="1"/>
        <pt x="412" y="469" on="0"/>
        <pt x="423" y="469" on="0"/>
        <pt x="428" y="470" on="1"/>
        <pt x="433" y="471" on="0"/>
        <pt x="439" y="469" on="0"/>
        <pt x="444" y="469" on="1"/>
        <pt x="460" y="470" on="0"/>
        <pt x="478" y="468" on="0"/>
        <pt x="486" y="468" on="1"/>
        <pt x="491" y="469" on="0"/>
        <pt x="500" y="471" on="0"/>
        <pt x="504" y="470" on="1"/>
        <pt x="509" y="470" on="0"/>
        <pt x="510" y="463" on="0"/>
        <pt x="512" y="460" on="1"/>
        <pt x="516" y="452" on="0"/>
        <pt x="516" y="435" on="0"/>
        <pt x="515" y="423" on="1"/>
        <pt x="516" y="418" on="0"/>
        <pt x="513" y="409" on="0"/>
        <pt x="513" y="406" on="1"/>
        <pt x="512" y="393" on="0"/>
        <pt x="514" y="372" on="0"/>
        <pt x="518" y="361" on="1"/>
        <pt x="516" y="356" on="0"/>
        <pt x="512" y="345" on="0"/>
        <pt x="508" y="341" on="1"/>
        <pt x="504" y="342" on="0"/>
        <pt x="498" y="338" on="0"/>
        <pt x="495" y="338" on="1"/>
        <pt x="490" y="338" on="0"/>
        <pt x="484" y="341" on="0"/>
        <pt x="480" y="343" on="1"/>
        <pt x="478" y="346" on="0"/>
        <pt x="469" y="341" on="0"/>
        <pt x="470" y="348" on="1"/>
        <pt x="460" y="342" on="0"/>
        <pt x="446" y="341" on="0"/>
        <pt x="443" y="337" on="1"/>
        <pt x="438" y="341" on="0"/>
        <pt x="425" y="340" on="0"/>
        <pt x="419" y="338" on="1"/>
        <pt x="414" y="340" on="0"/>
        <pt x="403" y="341" on="0"/>
        <pt x="394" y="342" on="1"/>
        <pt x="389" y="344" on="0"/>
        <pt x="376" y="338" on="0"/>
        <pt x="371" y="337" on="1"/>
        <pt x="361" y="340" on="0"/>
        <pt x="345" y="336" on="0"/>
        <pt x="338" y="333" on="1"/>
        <pt x="333" y="332" on="0"/>
        <pt x="331" y="339" on="0"/>
        <pt x="326" y="338" on="1"/>
        <pt x="322" y="335" on="0"/>
        <pt x="307" y="336" on="0"/>
        <pt x="304" y="332" on="1"/>
        <pt x="299" y="337" on="0"/>
        <pt x="280" y="332" on="0"/>
        <pt x="274" y="338" on="1"/>
        <pt x="272" y="334" on="0"/>
        <pt x="265" y="337" on="0"/>
        <pt x="260" y="336" on="1"/>
        <pt x="256" y="336" on="0"/>
        <pt x="249" y="334" on="0"/>
        <pt x="245" y="334" on="1"/>
        <pt x="240" y="333" on="0"/>
        <pt x="227" y="337" on="0"/>
        <pt x="222" y="334" on="1"/>
        <pt x="217" y="331" on="0"/>
        <pt x="219" y="321" on="0"/>
        <pt x="218" y="315" on="1"/>
        <pt x="217" y="312" on="0"/>
        <pt x="215" y="306" on="0"/>
        <pt x="215" y="303" on="1"/>
        <pt x="215" y="299" on="0"/>
        <pt x="218" y="292" on="0"/>
        <pt x="217" y="288" on="1"/>
        <pt x="217" y="280" on="0"/>
        <pt x="212" y="262" on="0"/>
        <pt x="210" y="253" on="1"/>
        <pt x="206" y="237" on="0"/>
        <pt x="206" y="219" on="0"/>
        <pt x="201" y="212" on="1"/>
        <pt x="204" y="206" on="0"/>
        <pt x="204" y="201" on="1"/>
        <pt x="205" y="193" on="0"/>
        <pt x="205" y="175" on="0"/>
        <pt x="205" y="167" on="1"/>
        <pt x="205" y="161" on="0"/>
        <pt x="205" y="148" on="0"/>
        <pt x="203" y="141" on="1"/>
        <pt x="202" y="138" on="0"/>
        <pt x="200" y="132" on="0"/>
        <pt x="200" y="129" on="1"/>
        <pt x="199" y="124" on="0"/>
        <pt x="203" y="112" on="0"/>
        <pt x="201" y="106" on="1"/>
        <pt x="210" y="101" on="0"/>
        <pt x="231" y="103" on="0"/>
        <pt x="245" y="103" on="1"/>
        <pt x="262" y="104" on="0"/>
        <pt x="297" y="108" on="0"/>
        <pt x="311" y="108" on="1"/>
        <pt x="319" y="108" on="0"/>
        <pt x="332" y="104" on="0"/>
        <pt x="339" y="106" on="1"/>
        <pt x="346" y="108" on="0"/>
        <pt x="365" y="111" on="0"/>
        <pt x="373" y="110" on="1"/>
        <pt x="384" y="111" on="0"/>
        <pt x="397" y="109" on="0"/>
        <pt x="403" y="109" on="1"/>
        <pt x="412" y="109" on="0"/>
        <pt x="427" y="110" on="0"/>
        <pt x="435" y="111" on="1"/>
        <pt x="439" y="112" on="0"/>
        <pt x="446" y="114" on="0"/>
        <pt x="450" y="114" on="1"/>
        <pt x="457" y="113" on="0"/>
        <pt x="463" y="114" on="0"/>
        <pt x="465" y="114" on="1"/>
        <pt x="471" y="112" on="0"/>
        <pt x="475" y="114" on="0"/>
        <pt x="476" y="114" on="1"/>
        <pt x="480" y="112" on="0"/>
        <pt x="492" y="117" on="0"/>
        <pt x="501" y="115" on="1"/>
        <pt x="504" y="113" on="0"/>
        <pt x="505" y="104" on="0"/>
        <pt x="508" y="102" on="1"/>
        <pt x="507" y="97" on="0"/>
        <pt x="513" y="95" on="0"/>
        <pt x="514" y="91" on="1"/>
        <pt x="516" y="67" on="0"/>
        <pt x="510" y="20" on="0"/>
        <pt x="509" y="-6" on="1"/>
        <pt x="507" y="-9" on="0"/>
        <pt x="501" y="-12" on="0"/>
        <pt x="497" y="-14" on="1"/>
        <pt x="494" y="-16" on="0"/>
        <pt x="487" y="-20" on="0"/>
        <pt x="483" y="-20" on="1"/>
        <pt x="479" y="-20" on="0"/>
        <pt x="471" y="-17" on="0"/>
        <pt x="467" y="-16" on="1"/>
        <pt x="462" y="-16" on="0"/>
        <pt x="453" y="-18" on="0"/>
        <pt x="447" y="-18" on="1"/>
        <pt x="439" y="-18" on="0"/>
        <pt x="420" y="-16" on="0"/>
        <pt x="410" y="-15" on="1"/>
        <pt x="399" y="-14" on="0"/>
        <pt x="380" y="-13" on="0"/>
        <pt x="375" y="-10" on="1"/>
        <pt x="370" y="-9" on="0"/>
        <pt x="366" y="-14" on="0"/>
        <pt x="361" y="-14" on="1"/>
        <pt x="351" y="-11" on="0"/>
        <pt x="328" y="-11" on="0"/>
        <pt x="315" y="-10" on="1"/>
        <pt x="306" y="-9" on="0"/>
        <pt x="289" y="-12" on="0"/>
        <pt x="279" y="-12" on="1"/>
        <pt x="271" y="-13" on="0"/>
        <pt x="254" y="-11" on="0"/>
        <pt x="246" y="-12" on="1"/>
        <pt x="237" y="-12" on="0"/>
        <pt x="222" y="-15" on="0"/>
        <pt x="214" y="-14" on="1"/>
        <pt x="209" y="-14" on="0"/>
        <pt x="202" y="-11" on="0"/>
        <pt x="197" y="-11" on="1"/>
        <pt x="191" y="-12" on="0"/>
        <pt x="183" y="-9" on="0"/>
        <pt x="179" y="-9" on="1"/>
        <pt x="171" y="-7" on="0"/>
        <pt x="153" y="-6" on="0"/>
        <pt x="145" y="-1" on="1"/>
        <pt x="141" y="-3" on="0"/>
        <pt x="134" y="-1" on="0"/>
        <pt x="130" y="-1" on="1"/>
        <pt x="125" y="-2" on="0"/>
        <pt x="119" y="-1" on="0"/>
        <pt x="117" y="-1" on="1"/>
        <pt x="110" y="-2" on="0"/>
        <pt x="97" y="-7" on="0"/>
        <pt x="90" y="-5" on="1"/>
        <pt x="83" y="0" on="0"/>
        <pt x="81" y="8" on="0"/>
        <pt x="79" y="13" on="1"/>
        <pt x="78" y="16" on="0"/>
        <pt x="75" y="23" on="0"/>
        <pt x="75" y="27" on="1"/>
        <pt x="74" y="32" on="0"/>
        <pt x="76" y="39" on="0"/>
        <pt x="75" y="43" on="1"/>
        <pt x="74" y="48" on="0"/>
        <pt x="70" y="57" on="0"/>
        <pt x="68" y="61" on="1"/>
        <pt x="70" y="72" on="0"/>
        <pt x="66" y="92" on="0"/>
        <pt x="67" y="104" on="1"/>
        <pt x="67" y="113" on="0"/>
        <pt x="69" y="121" on="0"/>
        <pt x="69" y="124" on="1"/>
        <pt x="69" y="127" on="0"/>
        <pt x="67" y="133" on="0"/>
        <pt x="66" y="136" on="1"/>
        <pt x="65" y="141" on="0"/>
        <pt x="67" y="142" on="0"/>
        <pt x="66" y="147" on="1"/>
        <pt x="65" y="155" on="0"/>
        <pt x="58" y="173" on="0"/>
        <pt x="61" y="182" on="1"/>
        <pt x="63" y="188" on="0"/>
        <pt x="60" y="194" on="0"/>
        <pt x="60" y="196" on="1"/>
        <pt x="60" y="201" on="0"/>
        <pt x="63" y="212" on="0"/>
        <pt x="65" y="218" on="1"/>
        <pt x="65" y="223" on="0"/>
        <pt x="63" y="230" on="0"/>
        <pt x="62" y="234" on="1"/>
        <pt x="64" y="241" on="0"/>
        <pt x="61" y="244" on="0"/>
        <pt x="61" y="247" on="1"/>
        <pt x="61" y="251" on="0"/>
        <pt x="63" y="259" on="0"/>
        <pt x="63" y="263" on="1"/>
        <pt x="62" y="271" on="0"/>
        <pt x="65" y="284" on="0"/>
        <pt x="60" y="288" on="1"/>
        <pt x="65" y="298" on="0"/>
        <pt x="60" y="319" on="0"/>
        <pt x="60" y="331" on="1"/>
        <pt x="59" y="336" on="0"/>
        <pt x="61" y="344" on="0"/>
        <pt x="62" y="349" on="1"/>
        <pt x="62" y="353" on="0"/>
        <pt x="60" y="360" on="0"/>
        <pt x="60" y="364" on="1"/>
        <pt x="61" y="370" on="0"/>
        <pt x="61" y="381" on="0"/>
        <pt x="61" y="388" on="1"/>
        <pt x="61" y="391" on="0"/>
        <pt x="63" y="397" on="0"/>
        <pt x="63" y="400" on="1"/>
        <pt x="62" y="402" on="0"/>
        <pt x="60" y="411" on="0"/>
        <pt x="60" y="414" on="1"/>
        <pt x="60" y="423" on="0"/>
        <pt x="63" y="425" on="1"/>
        <pt x="61" y="430" on="0"/>
        <pt x="58" y="436" on="0"/>
        <pt x="62" y="441" on="1"/>
        <pt x="58" y="452" on="0"/>
        <pt x="61" y="456" on="0"/>
        <pt x="61" y="460" on="1"/>
        <pt x="60" y="471" on="0"/>
        <pt x="58" y="488" on="0"/>
        <pt x="58" y="496" on="1"/>
        <pt x="58" y="499" on="0"/>
        <pt x="60" y="506" on="0"/>
        <pt x="60" y="509" on="1"/>
        <pt x="60" y="514" on="0"/>
        <pt x="58" y="520" on="0"/>
        <pt x="59" y="524" on="1"/>
        <pt x="64" y="541" on="0"/>
        <pt x="64" y="560" on="0"/>
        <pt x="69" y="567" on="1"/>
        <pt x="62" y="580" on="0"/>
        <pt x="70" y="615" on="0"/>
        <pt x="70" y="633" on="1"/>
        <pt x="71" y="645" on="0"/>
        <pt x="68" y="672" on="0"/>
        <pt x="70" y="687" on="1"/>
        <pt x="71" y="698" on="0"/>
        <pt x="67" y="712" on="0"/>
        <pt x="67" y="717" on="1"/>
        <pt x="67" y="722" on="0"/>
        <pt x="71" y="732" on="0"/>
        <pt x="73" y="737" on="1"/>
        <pt x="75" y="741" on="0"/>
        <pt x="78" y="748" on="0"/>
        <pt x="82" y="750" on="1"/>
        <pt x="125" y="742" on="0"/>
        <pt x="208" y="751" on="0"/>
        <pt x="246" y="748" on="1"/>
        <pt x="257" y="746" on="0"/>
        <pt x="278" y="741" on="0"/>
        <pt x="289" y="740" on="1"/>
        <pt x="296" y="739" on="0"/>
        <pt x="310" y="742" on="0"/>
        <pt x="321" y="743" on="1"/>
        <pt x="331" y="741" on="0"/>
        <pt x="338" y="742" on="0"/>
        <pt x="340" y="742" on="1"/>
        <pt x="345" y="742" on="0"/>
        <pt x="353" y="739" on="0"/>
        <pt x="358" y="739" on="1"/>
        <pt x="366" y="737" on="0"/>
        <pt x="380" y="737" on="0"/>
        <pt x="388" y="736" on="1"/>
        <pt x="394" y="736" on="0"/>
        <pt x="408" y="738" on="0"/>
        <pt x="415" y="737" on="1"/>
        <pt x="424" y="737" on="0"/>
        <pt x="450" y="732" on="0"/>
        <pt x="462" y="731" on="1"/>
        <pt x="470" y="732" on="0"/>
        <pt x="477" y="730" on="0"/>
        <pt x="480" y="729" on="1"/>
        <pt x="494" y="727" on="0"/>
        <pt x="518" y="729" on="0"/>
      </contour>
    </TTGlyph>
    <TTGlyph name="Eacute" xMin="58" yMin="-20" xMax="539" yMax="982">
      <component glyphName="E" x="0" y="0" flags="0x204"/>
      <component glyphName="acute" x="-81" y="133" flags="0x4"/>
    </TTGlyph>
    <TTGlyph name="Ecircumflex" xMin="58" yMin="-20" xMax="539" yMax="1020">
      <component glyphName="E" x="0" y="0" flags="0x204"/>
      <component glyphName="circumflex" x="-112" y="164" flags="0x4"/>
    </TTGlyph>
    <TTGlyph name="Edieresis" xMin="58" yMin="-20" xMax="539" yMax="981">
      <component glyphName="E" x="0" y="0" flags="0x204"/>
      <component glyphName="dieresis" x="-112" y="143" flags="0x4"/>
    </TTGlyph>
    <TTGlyph name="Egrave" xMin="58" yMin="-20" xMax="539" yMax="992">
      <component glyphName="E" x="0" y="0" flags="0x204"/>
      <component glyphName="grave" x="-132" y="143" flags="0x4"/>
    </TTGlyph>
    <TTGlyph name="Eth" xMin="20" yMin="-29" xMax="746" yMax="751">
      <contour>
        <pt x="744" y="429" on="1"/>
        <pt x="744" y="426" on="0"/>
        <pt x="741" y="415" on="0"/>
        <pt x="740" y="410" on="1"/>
        <pt x="740" y="405" on="0"/>
        <pt x="742" y="397" on="0"/>
        <pt x="742" y="393" on="1"/>
        <pt x="739" y="372" on="1"/>
        <pt x="739" y="364" on="0"/>
        <pt x="739" y="346" on="0"/>
        <pt x="737" y="336" on="1"/>
        <pt x="736" y="331" on="0"/>
        <pt x="732" y="321" on="1"/>
        <pt x="730" y="313" on="0"/>
        <pt x="727" y="308" on="0"/>
        <pt x="727" y="306" on="1"/>
        <pt x="725" y="300" on="0"/>
        <pt x="727" y="288" on="0"/>
        <pt x="725" y="283" on="1"/>
        <pt x="723" y="280" on="0"/>
        <pt x="720" y="275" on="0"/>
        <pt x="718" y="271" on="1"/>
        <pt x="716" y="260" on="0"/>
        <pt x="717" y="241" on="0"/>
        <pt x="714" y="230" on="1"/>
        <pt x="712" y="224" on="0"/>
        <pt x="705" y="213" on="0"/>
        <pt x="707" y="203" on="1"/>
        <pt x="700" y="192" on="0"/>
        <pt x="691" y="171" on="0"/>
        <pt x="686" y="160" on="1"/>
        <pt x="684" y="158" on="0"/>
        <pt x="680" y="153" on="0"/>
        <pt x="679" y="151" on="1"/>
        <pt x="675" y="143" on="0"/>
        <pt x="670" y="126" on="0"/>
        <pt x="667" y="116" on="1"/>
        <pt x="666" y="113" on="0"/>
        <pt x="657" y="104" on="0"/>
        <pt x="654" y="101" on="1"/>
        <pt x="650" y="96" on="0"/>
        <pt x="641" y="86" on="0"/>
        <pt x="636" y="80" on="1"/>
        <pt x="632" y="74" on="0"/>
        <pt x="628" y="71" on="0"/>
        <pt x="628" y="69" on="1"/>
        <pt x="617" y="67" on="0"/>
        <pt x="602" y="51" on="0"/>
        <pt x="594" y="45" on="1"/>
        <pt x="587" y="41" on="0"/>
        <pt x="586" y="36" on="0"/>
        <pt x="584" y="35" on="1"/>
        <pt x="576" y="32" on="0"/>
        <pt x="573" y="28" on="0"/>
        <pt x="572" y="27" on="1"/>
        <pt x="561" y="25" on="0"/>
        <pt x="551" y="16" on="0"/>
        <pt x="545" y="14" on="1"/>
        <pt x="535" y="13" on="0"/>
        <pt x="527" y="10" on="0"/>
        <pt x="525" y="8" on="1"/>
        <pt x="520" y="3" on="0"/>
        <pt x="513" y="0" on="1"/>
        <pt x="506" y="-3" on="0"/>
        <pt x="488" y="-5" on="0"/>
        <pt x="483" y="-11" on="1"/>
        <pt x="466" y="-10" on="0"/>
        <pt x="444" y="-19" on="0"/>
        <pt x="429" y="-22" on="1"/>
        <pt x="419" y="-27" on="0"/>
        <pt x="408" y="-27" on="0"/>
        <pt x="403" y="-29" on="1"/>
        <pt x="395" y="-27" on="0"/>
        <pt x="383" y="-27" on="0"/>
        <pt x="379" y="-22" on="1"/>
        <pt x="375" y="-27" on="0"/>
        <pt x="364" y="-23" on="0"/>
        <pt x="357" y="-23" on="1"/>
        <pt x="350" y="-23" on="0"/>
        <pt x="337" y="-26" on="0"/>
        <pt x="330" y="-26" on="1"/>
        <pt x="322" y="-26" on="0"/>
        <pt x="308" y="-24" on="0"/>
        <pt x="300" y="-24" on="1"/>
        <pt x="287" y="-25" on="0"/>
        <pt x="272" y="-23" on="0"/>
        <pt x="267" y="-26" on="1"/>
        <pt x="253" y="-28" on="0"/>
        <pt x="227" y="-22" on="0"/>
        <pt x="219" y="-22" on="1"/>
        <pt x="214" y="-20" on="0"/>
        <pt x="210" y="-14" on="0"/>
        <pt x="205" y="-13" on="1"/>
        <pt x="197" y="-15" on="0"/>
        <pt x="184" y="-14" on="0"/>
        <pt x="172" y="-11" on="0"/>
        <pt x="159" y="-7" on="0"/>
        <pt x="152" y="-7" on="1"/>
        <pt x="145" y="1" on="0"/>
        <pt x="148" y="20" on="0"/>
        <pt x="142" y="28" on="1"/>
        <pt x="144" y="31" on="0"/>
        <pt x="144" y="38" on="0"/>
        <pt x="144" y="41" on="1"/>
        <pt x="144" y="53" on="1"/>
        <pt x="144" y="60" on="0"/>
        <pt x="145" y="74" on="0"/>
        <pt x="145" y="81" on="1"/>
        <pt x="144" y="88" on="0"/>
        <pt x="142" y="105" on="0"/>
        <pt x="146" y="114" on="1"/>
        <pt x="145" y="118" on="0"/>
        <pt x="142" y="123" on="0"/>
        <pt x="141" y="126" on="1"/>
        <pt x="142" y="136" on="0"/>
        <pt x="142" y="155" on="0"/>
        <pt x="140" y="169" on="1"/>
        <pt x="140" y="172" on="0"/>
        <pt x="137" y="177" on="0"/>
        <pt x="137" y="180" on="1"/>
        <pt x="137" y="183" on="0"/>
        <pt x="139" y="189" on="0"/>
        <pt x="139" y="191" on="1"/>
        <pt x="139" y="196" on="0"/>
        <pt x="137" y="205" on="0"/>
        <pt x="138" y="213" on="1"/>
        <pt x="140" y="219" on="0"/>
        <pt x="137" y="225" on="0"/>
        <pt x="137" y="226" on="1"/>
        <pt x="135" y="236" on="0"/>
        <pt x="137" y="250" on="0"/>
        <pt x="132" y="256" on="1"/>
        <pt x="137" y="269" on="0"/>
        <pt x="137" y="298" on="0"/>
        <pt x="135" y="312" on="1"/>
        <pt x="128" y="314" on="0"/>
        <pt x="117" y="318" on="0"/>
        <pt x="110" y="318" on="1"/>
        <pt x="105" y="317" on="0"/>
        <pt x="100" y="314" on="0"/>
        <pt x="96" y="313" on="1"/>
        <pt x="86" y="313" on="0"/>
        <pt x="80" y="311" on="0"/>
        <pt x="78" y="310" on="1"/>
        <pt x="61" y="306" on="0"/>
        <pt x="38" y="303" on="0"/>
        <pt x="25" y="308" on="1"/>
        <pt x="20" y="316" on="0"/>
        <pt x="20" y="339" on="0"/>
        <pt x="26" y="346" on="1"/>
        <pt x="24" y="354" on="0"/>
        <pt x="28" y="369" on="0"/>
        <pt x="30" y="376" on="1"/>
        <pt x="30" y="381" on="0"/>
        <pt x="23" y="385" on="0"/>
        <pt x="24" y="391" on="1"/>
        <pt x="26" y="395" on="0"/>
        <pt x="32" y="400" on="0"/>
        <pt x="34" y="403" on="1"/>
        <pt x="47" y="402" on="0"/>
        <pt x="72" y="408" on="0"/>
        <pt x="83" y="408" on="1"/>
        <pt x="87" y="408" on="0"/>
        <pt x="93" y="405" on="0"/>
        <pt x="96" y="408" on="1"/>
        <pt x="101" y="408" on="0"/>
        <pt x="102" y="400" on="0"/>
        <pt x="106" y="399" on="1"/>
        <pt x="110" y="401" on="0"/>
        <pt x="105" y="409" on="0"/>
        <pt x="110" y="411" on="1"/>
        <pt x="119" y="411" on="0"/>
        <pt x="140" y="404" on="0"/>
        <pt x="147" y="408" on="1"/>
        <pt x="151" y="410" on="0"/>
        <pt x="153" y="414" on="0"/>
        <pt x="156" y="416" on="1"/>
        <pt x="157" y="426" on="0"/>
        <pt x="155" y="443" on="0"/>
        <pt x="160" y="451" on="1"/>
        <pt x="159" y="455" on="0"/>
        <pt x="157" y="461" on="0"/>
        <pt x="157" y="466" on="1"/>
        <pt x="158" y="471" on="0"/>
        <pt x="163" y="483" on="0"/>
        <pt x="164" y="490" on="1"/>
        <pt x="166" y="500" on="0"/>
        <pt x="164" y="517" on="0"/>
        <pt x="162" y="525" on="1"/>
        <pt x="164" y="529" on="0"/>
        <pt x="165" y="540" on="0"/>
        <pt x="166" y="547" on="1"/>
        <pt x="166" y="556" on="0"/>
        <pt x="162" y="578" on="0"/>
        <pt x="168" y="586" on="1"/>
        <pt x="168" y="590" on="0"/>
        <pt x="165" y="594" on="0"/>
        <pt x="163" y="596" on="1"/>
        <pt x="165" y="603" on="0"/>
        <pt x="164" y="623" on="0"/>
        <pt x="169" y="631" on="1"/>
        <pt x="167" y="636" on="0"/>
        <pt x="166" y="649" on="0"/>
        <pt x="169" y="653" on="1"/>
        <pt x="167" y="658" on="0"/>
        <pt x="164" y="670" on="0"/>
        <pt x="164" y="677" on="1"/>
        <pt x="163" y="682" on="0"/>
        <pt x="166" y="689" on="0"/>
        <pt x="166" y="693" on="1"/>
        <pt x="164" y="699" on="0"/>
        <pt x="158" y="705" on="0"/>
        <pt x="156" y="710" on="1"/>
        <pt x="158" y="718" on="0"/>
        <pt x="158" y="730" on="0"/>
        <pt x="163" y="735" on="1"/>
        <pt x="171" y="736" on="0"/>
        <pt x="184" y="740" on="0"/>
        <pt x="191" y="742" on="1"/>
        <pt x="202" y="740" on="0"/>
        <pt x="210" y="742" on="0"/>
        <pt x="213" y="742" on="1"/>
        <pt x="217" y="741" on="0"/>
        <pt x="225" y="739" on="0"/>
        <pt x="229" y="740" on="1"/>
        <pt x="235" y="740" on="0"/>
        <pt x="244" y="744" on="0"/>
        <pt x="249" y="746" on="1"/>
        <pt x="255" y="748" on="0"/>
        <pt x="265" y="749" on="0"/>
        <pt x="270" y="751" on="1"/>
        <pt x="277" y="746" on="0"/>
        <pt x="293" y="748" on="0"/>
        <pt x="302" y="749" on="1"/>
        <pt x="308" y="749" on="0"/>
        <pt x="319" y="746" on="0"/>
        <pt x="326" y="746" on="1"/>
        <pt x="345" y="745" on="0"/>
        <pt x="383" y="751" on="0"/>
        <pt x="399" y="750" on="1"/>
        <pt x="405" y="750" on="0"/>
        <pt x="411" y="748" on="1"/>
        <pt x="422" y="742" on="0"/>
        <pt x="445" y="742" on="0"/>
        <pt x="467" y="744" on="0"/>
        <pt x="486" y="743" on="0"/>
        <pt x="494" y="737" on="1"/>
        <pt x="499" y="736" on="0"/>
        <pt x="503" y="740" on="0"/>
        <pt x="508" y="738" on="1"/>
        <pt x="518" y="736" on="0"/>
        <pt x="520" y="732" on="1"/>
        <pt x="522" y="734" on="0"/>
        <pt x="529" y="731" on="0"/>
        <pt x="534" y="731" on="1"/>
        <pt x="537" y="729" on="0"/>
        <pt x="541" y="723" on="0"/>
        <pt x="543" y="720" on="1"/>
        <pt x="547" y="718" on="0"/>
        <pt x="555" y="716" on="0"/>
        <pt x="556" y="712" on="1"/>
        <pt x="568" y="707" on="0"/>
        <pt x="593" y="694" on="0"/>
        <pt x="598" y="682" on="1"/>
        <pt x="602" y="680" on="0"/>
        <pt x="607" y="676" on="0"/>
        <pt x="611" y="674" on="1"/>
        <pt x="614" y="672" on="0"/>
        <pt x="619" y="666" on="0"/>
        <pt x="623" y="664" on="1"/>
        <pt x="631" y="659" on="0"/>
        <pt x="637" y="652" on="0"/>
        <pt x="640" y="650" on="1"/>
        <pt x="648" y="644" on="0"/>
        <pt x="656" y="634" on="0"/>
        <pt x="658" y="630" on="1"/>
        <pt x="664" y="628" on="0"/>
        <pt x="671" y="620" on="0"/>
        <pt x="676" y="617" on="1"/>
        <pt x="678" y="615" on="0"/>
        <pt x="680" y="608" on="0"/>
        <pt x="682" y="606" on="1"/>
        <pt x="683" y="603" on="0"/>
        <pt x="690" y="602" on="0"/>
        <pt x="692" y="599" on="1"/>
        <pt x="696" y="592" on="0"/>
        <pt x="706" y="581" on="0"/>
        <pt x="710" y="574" on="1"/>
        <pt x="711" y="571" on="0"/>
        <pt x="713" y="566" on="0"/>
        <pt x="713" y="562" on="1"/>
        <pt x="715" y="559" on="0"/>
        <pt x="720" y="552" on="0"/>
        <pt x="722" y="549" on="1"/>
        <pt x="733" y="539" on="0"/>
        <pt x="733" y="538" on="1"/>
        <pt x="735" y="533" on="0"/>
        <pt x="734" y="519" on="0"/>
        <pt x="736" y="514" on="1"/>
        <pt x="738" y="509" on="0"/>
        <pt x="742" y="505" on="0"/>
        <pt x="744" y="501" on="1"/>
        <pt x="746" y="498" on="0"/>
        <pt x="741" y="492" on="0"/>
        <pt x="740" y="489" on="1"/>
        <pt x="740" y="486" on="0"/>
        <pt x="742" y="480" on="0"/>
        <pt x="742" y="477" on="1"/>
        <pt x="740" y="467" on="0"/>
        <pt x="743" y="459" on="0"/>
        <pt x="743" y="456" on="1"/>
        <pt x="743" y="452" on="0"/>
        <pt x="741" y="445" on="0"/>
        <pt x="741" y="441" on="1"/>
        <pt x="741" y="438" on="0"/>
        <pt x="744" y="432" on="0"/>
      </contour>
      <contour>
        <pt x="602" y="367" on="1"/>
        <pt x="603" y="372" on="0"/>
        <pt x="600" y="385" on="0"/>
        <pt x="600" y="391" on="1"/>
        <pt x="601" y="401" on="0"/>
        <pt x="599" y="407" on="0"/>
        <pt x="599" y="408" on="1"/>
        <pt x="600" y="413" on="0"/>
        <pt x="597" y="421" on="0"/>
        <pt x="597" y="423" on="1"/>
        <pt x="599" y="428" on="0"/>
        <pt x="597" y="436" on="0"/>
        <pt x="596" y="439" on="1"/>
        <pt x="594" y="453" on="0"/>
        <pt x="592" y="471" on="0"/>
        <pt x="590" y="477" on="1"/>
        <pt x="589" y="484" on="0"/>
        <pt x="588" y="490" on="0"/>
        <pt x="586" y="495" on="1"/>
        <pt x="583" y="502" on="0"/>
        <pt x="582" y="506" on="0"/>
        <pt x="578" y="511" on="1"/>
        <pt x="570" y="523" on="0"/>
        <pt x="558" y="533" on="0"/>
        <pt x="557" y="541" on="1"/>
        <pt x="550" y="543" on="0"/>
        <pt x="543" y="552" on="0"/>
        <pt x="541" y="558" on="1"/>
        <pt x="534" y="558" on="0"/>
        <pt x="529" y="566" on="0"/>
        <pt x="526" y="569" on="1"/>
        <pt x="517" y="573" on="0"/>
        <pt x="505" y="586" on="0"/>
        <pt x="500" y="594" on="1"/>
        <pt x="492" y="593" on="0"/>
        <pt x="487" y="595" on="1"/>
        <pt x="481" y="597" on="0"/>
        <pt x="477" y="603" on="0"/>
        <pt x="476" y="604" on="1"/>
        <pt x="468" y="606" on="0"/>
        <pt x="463" y="611" on="0"/>
        <pt x="460" y="612" on="1"/>
        <pt x="456" y="614" on="0"/>
        <pt x="444" y="613" on="0"/>
        <pt x="439" y="614" on="1"/>
        <pt x="435" y="615" on="0"/>
        <pt x="422" y="621" on="0"/>
        <pt x="418" y="621" on="1"/>
        <pt x="412" y="626" on="0"/>
        <pt x="394" y="631" on="0"/>
        <pt x="385" y="633" on="1"/>
        <pt x="382" y="633" on="0"/>
        <pt x="374" y="631" on="0"/>
        <pt x="369" y="631" on="1"/>
        <pt x="354" y="629" on="0"/>
        <pt x="329" y="628" on="0"/>
        <pt x="319" y="626" on="1"/>
        <pt x="310" y="624" on="0"/>
        <pt x="296" y="624" on="0"/>
        <pt x="291" y="622" on="1"/>
        <pt x="283" y="619" on="0"/>
        <pt x="266" y="615" on="0"/>
        <pt x="259" y="612" on="1"/>
        <pt x="258" y="593" on="0"/>
        <pt x="258" y="562" on="0"/>
        <pt x="253" y="549" on="1"/>
        <pt x="257" y="541" on="0"/>
        <pt x="254" y="521" on="0"/>
        <pt x="256" y="511" on="1"/>
        <pt x="258" y="497" on="0"/>
        <pt x="253" y="469" on="0"/>
        <pt x="254" y="457" on="1"/>
        <pt x="255" y="452" on="0"/>
        <pt x="258" y="445" on="0"/>
        <pt x="259" y="440" on="1"/>
        <pt x="259" y="438" on="0"/>
        <pt x="257" y="427" on="0"/>
        <pt x="259" y="425" on="1"/>
        <pt x="261" y="423" on="0"/>
        <pt x="269" y="422" on="0"/>
        <pt x="271" y="420" on="1"/>
        <pt x="277" y="425" on="0"/>
        <pt x="290" y="426" on="0"/>
        <pt x="297" y="426" on="1"/>
        <pt x="302" y="426" on="0"/>
        <pt x="313" y="424" on="0"/>
        <pt x="318" y="424" on="1"/>
        <pt x="327" y="425" on="0"/>
        <pt x="331" y="427" on="0"/>
        <pt x="333" y="427" on="1"/>
        <pt x="340" y="425" on="0"/>
        <pt x="344" y="427" on="0"/>
        <pt x="346" y="427" on="1"/>
        <pt x="355" y="424" on="0"/>
        <pt x="362" y="424" on="0"/>
        <pt x="366" y="423" on="1"/>
        <pt x="368" y="419" on="0"/>
        <pt x="375" y="416" on="0"/>
        <pt x="377" y="412" on="1"/>
        <pt x="388" y="398" on="0"/>
        <pt x="380" y="369" on="0"/>
        <pt x="378" y="355" on="1"/>
        <pt x="377" y="351" on="0"/>
        <pt x="380" y="346" on="0"/>
        <pt x="379" y="343" on="1"/>
        <pt x="377" y="335" on="0"/>
        <pt x="380" y="330" on="0"/>
        <pt x="380" y="327" on="1"/>
        <pt x="376" y="322" on="0"/>
        <pt x="370" y="311" on="0"/>
        <pt x="361" y="310" on="1"/>
        <pt x="351" y="311" on="0"/>
        <pt x="343" y="316" on="0"/>
        <pt x="339" y="316" on="1"/>
        <pt x="336" y="316" on="0"/>
        <pt x="330" y="313" on="0"/>
        <pt x="327" y="313" on="1"/>
        <pt x="318" y="312" on="0"/>
        <pt x="301" y="315" on="0"/>
        <pt x="293" y="314" on="1"/>
        <pt x="289" y="314" on="0"/>
        <pt x="288" y="323" on="0"/>
        <pt x="283" y="321" on="1"/>
        <pt x="280" y="318" on="0"/>
        <pt x="274" y="311" on="0"/>
        <pt x="269" y="311" on="1"/>
        <pt x="264" y="311" on="0"/>
        <pt x="254" y="310" on="0"/>
        <pt x="251" y="308" on="1"/>
        <pt x="246" y="296" on="0"/>
        <pt x="252" y="273" on="0"/>
        <pt x="252" y="262" on="1"/>
        <pt x="252" y="258" on="0"/>
        <pt x="249" y="251" on="0"/>
        <pt x="248" y="247" on="1"/>
        <pt x="247" y="240" on="0"/>
        <pt x="249" y="226" on="0"/>
        <pt x="248" y="219" on="1"/>
        <pt x="246" y="209" on="0"/>
        <pt x="241" y="190" on="0"/>
        <pt x="240" y="179" on="1"/>
        <pt x="242" y="171" on="0"/>
        <pt x="240" y="164" on="0"/>
        <pt x="240" y="162" on="1"/>
        <pt x="240" y="158" on="0"/>
        <pt x="243" y="152" on="0"/>
        <pt x="243" y="148" on="1"/>
        <pt x="243" y="141" on="0"/>
        <pt x="240" y="129" on="0"/>
        <pt x="241" y="124" on="1"/>
        <pt x="245" y="110" on="0"/>
        <pt x="244" y="96" on="0"/>
        <pt x="246" y="89" on="1"/>
        <pt x="251" y="85" on="0"/>
        <pt x="262" y="82" on="0"/>
        <pt x="267" y="78" on="1"/>
        <pt x="275" y="80" on="0"/>
        <pt x="292" y="81" on="0"/>
        <pt x="300" y="79" on="1"/>
        <pt x="305" y="77" on="0"/>
        <pt x="313" y="71" on="0"/>
        <pt x="318" y="71" on="1"/>
        <pt x="322" y="71" on="0"/>
        <pt x="328" y="73" on="0"/>
        <pt x="330" y="74" on="1"/>
        <pt x="335" y="75" on="0"/>
        <pt x="340" y="73" on="0"/>
        <pt x="342" y="75" on="1"/>
        <pt x="352" y="73" on="0"/>
        <pt x="366" y="80" on="0"/>
        <pt x="373" y="76" on="1"/>
        <pt x="375" y="78" on="0"/>
        <pt x="380" y="82" on="0"/>
        <pt x="385" y="81" on="1"/>
        <pt x="388" y="85" on="0"/>
        <pt x="398" y="91" on="0"/>
        <pt x="407" y="90" on="1"/>
        <pt x="415" y="94" on="0"/>
        <pt x="428" y="102" on="0"/>
        <pt x="439" y="102" on="1"/>
        <pt x="441" y="105" on="0"/>
        <pt x="450" y="107" on="0"/>
        <pt x="452" y="111" on="1"/>
        <pt x="461" y="111" on="0"/>
        <pt x="472" y="118" on="0"/>
        <pt x="480" y="120" on="1"/>
        <pt x="482" y="125" on="0"/>
        <pt x="490" y="132" on="0"/>
        <pt x="495" y="136" on="1"/>
        <pt x="504" y="143" on="0"/>
        <pt x="510" y="148" on="0"/>
        <pt x="513" y="148" on="1"/>
        <pt x="514" y="158" on="0"/>
        <pt x="525" y="165" on="0"/>
        <pt x="530" y="170" on="1"/>
        <pt x="531" y="175" on="0"/>
        <pt x="537" y="181" on="0"/>
        <pt x="536" y="188" on="1"/>
        <pt x="540" y="189" on="0"/>
        <pt x="543" y="196" on="0"/>
        <pt x="548" y="196" on="1"/>
        <pt x="547" y="201" on="0"/>
        <pt x="554" y="205" on="0"/>
        <pt x="556" y="207" on="1"/>
        <pt x="558" y="212" on="0"/>
        <pt x="559" y="221" on="0"/>
        <pt x="561" y="225" on="1"/>
        <pt x="563" y="227" on="0"/>
        <pt x="568" y="231" on="0"/>
        <pt x="570" y="233" on="1"/>
        <pt x="576" y="242" on="0"/>
        <pt x="578" y="250" on="0"/>
        <pt x="579" y="252" on="1"/>
        <pt x="581" y="259" on="0"/>
        <pt x="584" y="268" on="0"/>
        <pt x="586" y="274" on="1"/>
        <pt x="587" y="279" on="0"/>
        <pt x="594" y="281" on="0"/>
        <pt x="594" y="286" on="1"/>
        <pt x="593" y="290" on="0"/>
        <pt x="591" y="300" on="0"/>
        <pt x="591" y="302" on="1"/>
        <pt x="592" y="306" on="0"/>
        <pt x="596" y="312" on="0"/>
        <pt x="597" y="315" on="1"/>
        <pt x="597" y="318" on="0"/>
        <pt x="595" y="326" on="0"/>
        <pt x="595" y="329" on="1"/>
        <pt x="595" y="334" on="0"/>
        <pt x="596" y="345" on="0"/>
        <pt x="597" y="350" on="1"/>
        <pt x="598" y="354" on="0"/>
        <pt x="602" y="362" on="0"/>
      </contour>
    </TTGlyph>
    <TTGlyph name="Euro" xMin="36" yMin="40" xMax="626" yMax="688">
      <contour>
        <pt x="626" y="579" on="1"/>
        <pt x="623" y="563" on="0"/>
        <pt x="616" y="555" on="1"/>
        <pt x="611" y="549" on="0"/>
        <pt x="610" y="543" on="0"/>
        <pt x="609" y="541" on="1"/>
        <pt x="604" y="533" on="0"/>
        <pt x="601" y="529" on="0"/>
        <pt x="601" y="528" on="1"/>
        <pt x="596" y="517" on="0"/>
        <pt x="585" y="498" on="0"/>
        <pt x="577" y="497" on="1"/>
        <pt x="565" y="495" on="0"/>
        <pt x="560" y="508" on="1"/>
        <pt x="553" y="516" on="0"/>
        <pt x="546" y="519" on="0"/>
        <pt x="545" y="523" on="1"/>
        <pt x="541" y="524" on="0"/>
        <pt x="536" y="530" on="0"/>
        <pt x="532" y="534" on="1"/>
        <pt x="529" y="536" on="0"/>
        <pt x="523" y="543" on="0"/>
        <pt x="521" y="548" on="1"/>
        <pt x="514" y="552" on="0"/>
        <pt x="503" y="560" on="0"/>
        <pt x="497" y="565" on="1"/>
        <pt x="490" y="569" on="0"/>
        <pt x="478" y="578" on="0"/>
        <pt x="470" y="579" on="1"/>
        <pt x="468" y="582" on="0"/>
        <pt x="461" y="585" on="0"/>
        <pt x="459" y="588" on="1"/>
        <pt x="446" y="589" on="0"/>
        <pt x="427" y="594" on="1"/>
        <pt x="420" y="590" on="0"/>
        <pt x="396" y="593" on="0"/>
        <pt x="388" y="595" on="1"/>
        <pt x="380" y="591" on="0"/>
        <pt x="374" y="592" on="0"/>
        <pt x="372" y="591" on="1"/>
        <pt x="366" y="589" on="0"/>
        <pt x="358" y="589" on="0"/>
        <pt x="355" y="587" on="1"/>
        <pt x="352" y="586" on="0"/>
        <pt x="346" y="582" on="0"/>
        <pt x="342" y="582" on="1"/>
        <pt x="329" y="573" on="0"/>
        <pt x="316" y="560" on="0"/>
        <pt x="311" y="553" on="1"/>
        <pt x="302" y="547" on="0"/>
        <pt x="289" y="541" on="0"/>
        <pt x="286" y="534" on="1"/>
        <pt x="278" y="535" on="0"/>
        <pt x="272" y="521" on="0"/>
        <pt x="264" y="520" on="1"/>
        <pt x="262" y="517" on="0"/>
        <pt x="259" y="510" on="0"/>
        <pt x="257" y="507" on="1"/>
        <pt x="250" y="502" on="0"/>
        <pt x="246" y="498" on="0"/>
        <pt x="243" y="495" on="1"/>
        <pt x="252" y="491" on="0"/>
        <pt x="260" y="487" on="0"/>
        <pt x="262" y="487" on="1"/>
        <pt x="275" y="488" on="0"/>
        <pt x="285" y="485" on="0"/>
        <pt x="290" y="485" on="1"/>
        <pt x="293" y="485" on="0"/>
        <pt x="300" y="486" on="0"/>
        <pt x="304" y="486" on="1"/>
        <pt x="309" y="484" on="0"/>
        <pt x="313" y="486" on="0"/>
        <pt x="315" y="486" on="1"/>
        <pt x="318" y="485" on="0"/>
        <pt x="326" y="483" on="0"/>
        <pt x="329" y="483" on="1"/>
        <pt x="336" y="482" on="0"/>
        <pt x="338" y="480" on="0"/>
        <pt x="340" y="479" on="1"/>
        <pt x="347" y="478" on="0"/>
        <pt x="362" y="479" on="0"/>
        <pt x="370" y="479" on="1"/>
        <pt x="379" y="477" on="0"/>
        <pt x="388" y="479" on="0"/>
        <pt x="391" y="480" on="1"/>
        <pt x="405" y="483" on="0"/>
        <pt x="427" y="480" on="0"/>
        <pt x="438" y="475" on="1"/>
        <pt x="446" y="480" on="0"/>
        <pt x="471" y="482" on="0"/>
        <pt x="475" y="472" on="1"/>
        <pt x="473" y="458" on="0"/>
        <pt x="472" y="436" on="0"/>
        <pt x="467" y="425" on="1"/>
        <pt x="467" y="412" on="0"/>
        <pt x="464" y="385" on="0"/>
        <pt x="455" y="379" on="1"/>
        <pt x="444" y="378" on="0"/>
        <pt x="430" y="386" on="0"/>
        <pt x="421" y="384" on="1"/>
        <pt x="418" y="387" on="0"/>
        <pt x="410" y="393" on="1"/>
        <pt x="399" y="391" on="0"/>
        <pt x="381" y="392" on="0"/>
        <pt x="371" y="393" on="1"/>
        <pt x="362" y="393" on="0"/>
        <pt x="358" y="391" on="0"/>
        <pt x="356" y="390" on="1"/>
        <pt x="348" y="389" on="0"/>
        <pt x="344" y="391" on="0"/>
        <pt x="343" y="390" on="1"/>
        <pt x="332" y="387" on="0"/>
        <pt x="320" y="387" on="0"/>
        <pt x="308" y="388" on="1"/>
        <pt x="296" y="389" on="0"/>
        <pt x="286" y="391" on="0"/>
        <pt x="282" y="390" on="1"/>
        <pt x="279" y="390" on="0"/>
        <pt x="272" y="387" on="0"/>
        <pt x="270" y="386" on="1"/>
        <pt x="262" y="388" on="0"/>
        <pt x="257" y="385" on="0"/>
        <pt x="255" y="385" on="1"/>
        <pt x="249" y="386" on="0"/>
        <pt x="243" y="383" on="0"/>
        <pt x="240" y="382" on="1"/>
        <pt x="233" y="383" on="0"/>
        <pt x="216" y="381" on="0"/>
        <pt x="212" y="381" on="1"/>
        <pt x="204" y="373" on="0"/>
        <pt x="202" y="352" on="0"/>
        <pt x="201" y="343" on="1"/>
        <pt x="201" y="336" on="0"/>
        <pt x="202" y="332" on="1"/>
        <pt x="205" y="332" on="0"/>
        <pt x="211" y="330" on="0"/>
        <pt x="214" y="331" on="1"/>
        <pt x="217" y="331" on="0"/>
        <pt x="222" y="334" on="0"/>
        <pt x="225" y="335" on="1"/>
        <pt x="233" y="333" on="0"/>
        <pt x="237" y="336" on="0"/>
        <pt x="239" y="336" on="1"/>
        <pt x="245" y="335" on="0"/>
        <pt x="250" y="338" on="0"/>
        <pt x="253" y="339" on="1"/>
        <pt x="258" y="337" on="0"/>
        <pt x="274" y="340" on="0"/>
        <pt x="279" y="339" on="1"/>
        <pt x="284" y="339" on="0"/>
        <pt x="292" y="337" on="0"/>
        <pt x="296" y="336" on="1"/>
        <pt x="302" y="337" on="0"/>
        <pt x="306" y="335" on="0"/>
        <pt x="308" y="336" on="1"/>
        <pt x="312" y="337" on="0"/>
        <pt x="321" y="333" on="0"/>
        <pt x="328" y="331" on="1"/>
        <pt x="333" y="331" on="0"/>
        <pt x="336" y="336" on="0"/>
        <pt x="340" y="338" on="1"/>
        <pt x="360" y="343" on="0"/>
        <pt x="407" y="334" on="0"/>
        <pt x="426" y="331" on="1"/>
        <pt x="432" y="320" on="0"/>
        <pt x="431" y="316" on="1"/>
        <pt x="431" y="311" on="0"/>
        <pt x="426" y="306" on="0"/>
        <pt x="425" y="301" on="1"/>
        <pt x="423" y="293" on="0"/>
        <pt x="423" y="280" on="0"/>
        <pt x="421" y="271" on="1"/>
        <pt x="421" y="259" on="0"/>
        <pt x="427" y="253" on="0"/>
        <pt x="426" y="248" on="1"/>
        <pt x="422" y="245" on="0"/>
        <pt x="418" y="237" on="0"/>
        <pt x="412" y="239" on="1"/>
        <pt x="409" y="237" on="0"/>
        <pt x="402" y="230" on="0"/>
        <pt x="398" y="231" on="1"/>
        <pt x="391" y="231" on="0"/>
        <pt x="391" y="238" on="0"/>
        <pt x="388" y="243" on="1"/>
        <pt x="368" y="247" on="0"/>
        <pt x="351" y="233" on="1"/>
        <pt x="344" y="238" on="0"/>
        <pt x="336" y="233" on="0"/>
        <pt x="328" y="233" on="1"/>
        <pt x="323" y="232" on="0"/>
        <pt x="310" y="234" on="0"/>
        <pt x="305" y="236" on="1"/>
        <pt x="294" y="234" on="0"/>
        <pt x="281" y="236" on="0"/>
        <pt x="276" y="236" on="1"/>
        <pt x="270" y="233" on="0"/>
        <pt x="260" y="234" on="0"/>
        <pt x="255" y="234" on="1"/>
        <pt x="247" y="236" on="0"/>
        <pt x="244" y="234" on="0"/>
        <pt x="242" y="236" on="1"/>
        <pt x="234" y="238" on="0"/>
        <pt x="231" y="239" on="0"/>
        <pt x="230" y="239" on="1"/>
        <pt x="235" y="231" on="0"/>
        <pt x="244" y="218" on="0"/>
        <pt x="248" y="213" on="1"/>
        <pt x="250" y="210" on="0"/>
        <pt x="255" y="205" on="0"/>
        <pt x="257" y="200" on="1"/>
        <pt x="259" y="197" on="0"/>
        <pt x="265" y="193" on="0"/>
        <pt x="269" y="189" on="1"/>
        <pt x="278" y="179" on="0"/>
        <pt x="290" y="174" on="0"/>
        <pt x="292" y="168" on="1"/>
        <pt x="300" y="164" on="0"/>
        <pt x="314" y="155" on="0"/>
        <pt x="325" y="152" on="1"/>
        <pt x="335" y="149" on="0"/>
        <pt x="346" y="148" on="0"/>
        <pt x="349" y="148" on="1"/>
        <pt x="354" y="147" on="0"/>
        <pt x="363" y="147" on="0"/>
        <pt x="370" y="147" on="1"/>
        <pt x="378" y="146" on="0"/>
        <pt x="383" y="148" on="0"/>
        <pt x="385" y="148" on="1"/>
        <pt x="399" y="146" on="0"/>
        <pt x="419" y="150" on="0"/>
        <pt x="427" y="146" on="1"/>
        <pt x="442" y="147" on="0"/>
        <pt x="458" y="154" on="0"/>
        <pt x="462" y="151" on="1"/>
        <pt x="470" y="155" on="0"/>
        <pt x="475" y="153" on="0"/>
        <pt x="478" y="154" on="1"/>
        <pt x="482" y="155" on="0"/>
        <pt x="487" y="159" on="0"/>
        <pt x="492" y="161" on="1"/>
        <pt x="500" y="163" on="0"/>
        <pt x="506" y="165" on="0"/>
        <pt x="508" y="165" on="1"/>
        <pt x="512" y="166" on="0"/>
        <pt x="521" y="168" on="0"/>
        <pt x="524" y="169" on="1"/>
        <pt x="532" y="170" on="0"/>
        <pt x="546" y="170" on="0"/>
        <pt x="550" y="177" on="1"/>
        <pt x="562" y="178" on="0"/>
        <pt x="573" y="182" on="0"/>
        <pt x="580" y="183" on="1"/>
        <pt x="582" y="180" on="0"/>
        <pt x="582" y="169" on="0"/>
        <pt x="586" y="169" on="1"/>
        <pt x="586" y="161" on="0"/>
        <pt x="587" y="158" on="1"/>
        <pt x="589" y="154" on="0"/>
        <pt x="594" y="143" on="0"/>
        <pt x="595" y="137" on="1"/>
        <pt x="593" y="128" on="0"/>
        <pt x="594" y="121" on="0"/>
        <pt x="595" y="119" on="1"/>
        <pt x="597" y="113" on="0"/>
        <pt x="596" y="108" on="0"/>
        <pt x="597" y="106" on="1"/>
        <pt x="597" y="102" on="0"/>
        <pt x="599" y="96" on="0"/>
        <pt x="599" y="93" on="1"/>
        <pt x="598" y="90" on="0"/>
        <pt x="595" y="85" on="0"/>
        <pt x="595" y="82" on="1"/>
        <pt x="590" y="80" on="0"/>
        <pt x="576" y="78" on="0"/>
        <pt x="571" y="83" on="1"/>
        <pt x="566" y="81" on="0"/>
        <pt x="557" y="76" on="0"/>
        <pt x="552" y="72" on="1"/>
        <pt x="546" y="68" on="0"/>
        <pt x="538" y="67" on="0"/>
        <pt x="535" y="66" on="1"/>
        <pt x="531" y="65" on="0"/>
        <pt x="526" y="62" on="0"/>
        <pt x="522" y="62" on="1"/>
        <pt x="516" y="56" on="0"/>
        <pt x="507" y="52" on="1"/>
        <pt x="499" y="48" on="0"/>
        <pt x="486" y="48" on="0"/>
        <pt x="481" y="47" on="1"/>
        <pt x="476" y="46" on="0"/>
        <pt x="468" y="42" on="1"/>
        <pt x="455" y="42" on="1"/>
        <pt x="452" y="42" on="0"/>
        <pt x="443" y="44" on="0"/>
        <pt x="439" y="44" on="1"/>
        <pt x="437" y="44" on="0"/>
        <pt x="430" y="41" on="0"/>
        <pt x="428" y="40" on="1"/>
        <pt x="419" y="42" on="0"/>
        <pt x="412" y="40" on="0"/>
        <pt x="410" y="41" on="1"/>
        <pt x="399" y="41" on="0"/>
        <pt x="380" y="45" on="0"/>
        <pt x="370" y="43" on="1"/>
        <pt x="361" y="47" on="0"/>
        <pt x="356" y="46" on="0"/>
        <pt x="353" y="46" on="1"/>
        <pt x="351" y="51" on="0"/>
        <pt x="340" y="49" on="0"/>
        <pt x="337" y="52" on="1"/>
        <pt x="328" y="56" on="0"/>
        <pt x="320" y="62" on="0"/>
        <pt x="318" y="66" on="1"/>
        <pt x="308" y="68" on="0"/>
        <pt x="301" y="71" on="0"/>
        <pt x="299" y="73" on="1"/>
        <pt x="292" y="74" on="0"/>
        <pt x="280" y="77" on="0"/>
        <pt x="278" y="85" on="1"/>
        <pt x="269" y="87" on="0"/>
        <pt x="265" y="89" on="0"/>
        <pt x="263" y="89" on="1"/>
        <pt x="251" y="94" on="0"/>
        <pt x="251" y="94" on="1"/>
        <pt x="246" y="100" on="0"/>
        <pt x="244" y="102" on="0"/>
        <pt x="243" y="102" on="1"/>
        <pt x="233" y="110" on="0"/>
        <pt x="212" y="126" on="0"/>
        <pt x="203" y="133" on="1"/>
        <pt x="201" y="138" on="0"/>
        <pt x="196" y="150" on="0"/>
        <pt x="190" y="151" on="1"/>
        <pt x="188" y="161" on="0"/>
        <pt x="182" y="163" on="0"/>
        <pt x="181" y="165" on="1"/>
        <pt x="179" y="172" on="0"/>
        <pt x="172" y="177" on="0"/>
        <pt x="171" y="179" on="1"/>
        <pt x="169" y="184" on="0"/>
        <pt x="163" y="192" on="0"/>
        <pt x="161" y="197" on="1"/>
        <pt x="157" y="204" on="0"/>
        <pt x="151" y="217" on="0"/>
        <pt x="150" y="222" on="1"/>
        <pt x="145" y="233" on="0"/>
        <pt x="139" y="240" on="0"/>
        <pt x="140" y="246" on="1"/>
        <pt x="133" y="247" on="0"/>
        <pt x="128" y="249" on="0"/>
        <pt x="126" y="248" on="1"/>
        <pt x="122" y="248" on="0"/>
        <pt x="114" y="246" on="1"/>
        <pt x="101" y="242" on="0"/>
        <pt x="81" y="245" on="0"/>
        <pt x="71" y="250" on="1"/>
        <pt x="63" y="246" on="0"/>
        <pt x="40" y="244" on="0"/>
        <pt x="36" y="254" on="1"/>
        <pt x="38" y="267" on="0"/>
        <pt x="39" y="287" on="0"/>
        <pt x="43" y="298" on="1"/>
        <pt x="43" y="310" on="0"/>
        <pt x="47" y="336" on="0"/>
        <pt x="55" y="342" on="1"/>
        <pt x="65" y="343" on="0"/>
        <pt x="78" y="335" on="0"/>
        <pt x="86" y="337" on="1"/>
        <pt x="88" y="335" on="0"/>
        <pt x="94" y="330" on="0"/>
        <pt x="96" y="328" on="1"/>
        <pt x="102" y="330" on="0"/>
        <pt x="115" y="329" on="0"/>
        <pt x="121" y="329" on="1"/>
        <pt x="120" y="334" on="0"/>
        <pt x="118" y="347" on="0"/>
        <pt x="119" y="352" on="1"/>
        <pt x="119" y="356" on="0"/>
        <pt x="122" y="362" on="0"/>
        <pt x="124" y="366" on="1"/>
        <pt x="123" y="371" on="0"/>
        <pt x="123" y="381" on="1"/>
        <pt x="107" y="380" on="0"/>
        <pt x="77" y="385" on="0"/>
        <pt x="60" y="385" on="1"/>
        <pt x="52" y="395" on="0"/>
        <pt x="52" y="399" on="1"/>
        <pt x="51" y="404" on="0"/>
        <pt x="56" y="411" on="0"/>
        <pt x="56" y="416" on="1"/>
        <pt x="57" y="424" on="0"/>
        <pt x="52" y="438" on="0"/>
        <pt x="53" y="447" on="1"/>
        <pt x="49" y="454" on="0"/>
        <pt x="41" y="457" on="1"/>
        <pt x="42" y="463" on="0"/>
        <pt x="36" y="466" on="0"/>
        <pt x="36" y="471" on="1"/>
        <pt x="39" y="475" on="0"/>
        <pt x="43" y="483" on="0"/>
        <pt x="49" y="483" on="1"/>
        <pt x="52" y="485" on="0"/>
        <pt x="57" y="493" on="0"/>
        <pt x="62" y="494" on="1"/>
        <pt x="70" y="496" on="0"/>
        <pt x="81" y="487" on="0"/>
        <pt x="86" y="484" on="1"/>
        <pt x="98" y="483" on="0"/>
        <pt x="118" y="482" on="0"/>
        <pt x="125" y="489" on="1"/>
        <pt x="130" y="487" on="0"/>
        <pt x="138" y="488" on="0"/>
        <pt x="143" y="489" on="1"/>
        <pt x="145" y="497" on="0"/>
        <pt x="153" y="510" on="0"/>
        <pt x="156" y="516" on="1"/>
        <pt x="162" y="527" on="0"/>
        <pt x="169" y="547" on="0"/>
        <pt x="174" y="554" on="1"/>
        <pt x="178" y="559" on="0"/>
        <pt x="186" y="568" on="0"/>
        <pt x="188" y="574" on="1"/>
        <pt x="193" y="574" on="0"/>
        <pt x="196" y="581" on="0"/>
        <pt x="200" y="582" on="1"/>
        <pt x="204" y="589" on="0"/>
        <pt x="206" y="593" on="0"/>
        <pt x="207" y="594" on="1"/>
        <pt x="211" y="599" on="0"/>
        <pt x="217" y="605" on="0"/>
        <pt x="219" y="610" on="1"/>
        <pt x="224" y="611" on="0"/>
        <pt x="228" y="621" on="1"/>
        <pt x="234" y="622" on="0"/>
        <pt x="239" y="630" on="0"/>
        <pt x="244" y="631" on="1"/>
        <pt x="246" y="636" on="0"/>
        <pt x="256" y="638" on="0"/>
        <pt x="257" y="643" on="1"/>
        <pt x="263" y="644" on="0"/>
        <pt x="274" y="651" on="0"/>
        <pt x="280" y="654" on="1"/>
        <pt x="283" y="656" on="0"/>
        <pt x="289" y="657" on="0"/>
        <pt x="292" y="659" on="1"/>
        <pt x="298" y="661" on="0"/>
        <pt x="301" y="665" on="0"/>
        <pt x="302" y="665" on="1"/>
        <pt x="305" y="667" on="0"/>
        <pt x="312" y="666" on="0"/>
        <pt x="315" y="668" on="1"/>
        <pt x="320" y="670" on="0"/>
        <pt x="329" y="674" on="0"/>
        <pt x="334" y="676" on="1"/>
        <pt x="345" y="678" on="0"/>
        <pt x="353" y="682" on="0"/>
        <pt x="358" y="680" on="1"/>
        <pt x="365" y="680" on="0"/>
        <pt x="370" y="681" on="1"/>
        <pt x="378" y="683" on="0"/>
        <pt x="402" y="688" on="0"/>
        <pt x="408" y="682" on="1"/>
        <pt x="413" y="684" on="0"/>
        <pt x="422" y="688" on="0"/>
        <pt x="427" y="684" on="1"/>
        <pt x="436" y="686" on="0"/>
        <pt x="442" y="685" on="0"/>
        <pt x="445" y="685" on="1"/>
        <pt x="458" y="685" on="1"/>
        <pt x="463" y="684" on="0"/>
        <pt x="471" y="680" on="0"/>
        <pt x="476" y="679" on="1"/>
        <pt x="486" y="677" on="0"/>
        <pt x="493" y="674" on="0"/>
        <pt x="495" y="674" on="1"/>
        <pt x="508" y="674" on="0"/>
        <pt x="521" y="665" on="0"/>
        <pt x="527" y="666" on="1"/>
        <pt x="536" y="658" on="0"/>
        <pt x="557" y="646" on="0"/>
        <pt x="562" y="635" on="1"/>
        <pt x="575" y="625" on="0"/>
        <pt x="587" y="611" on="0"/>
        <pt x="595" y="607" on="1"/>
        <pt x="597" y="603" on="0"/>
        <pt x="603" y="602" on="0"/>
        <pt x="607" y="600" on="1"/>
        <pt x="612" y="595" on="0"/>
        <pt x="617" y="593" on="0"/>
        <pt x="620" y="592" on="1"/>
        <pt x="621" y="585" on="0"/>
      </contour>
    </TTGlyph>
    <TTGlyph name="F" xMin="46" yMin="-11" xMax="464" yMax="760">
      <contour>
        <pt x="464" y="712" on="1"/>
        <pt x="464" y="704" on="0"/>
        <pt x="460" y="691" on="0"/>
        <pt x="460" y="682" on="1"/>
        <pt x="459" y="679" on="0"/>
        <pt x="460" y="668" on="0"/>
        <pt x="459" y="663" on="1"/>
        <pt x="459" y="658" on="0"/>
        <pt x="457" y="649" on="0"/>
        <pt x="458" y="646" on="1"/>
        <pt x="458" y="639" on="0"/>
        <pt x="462" y="629" on="0"/>
        <pt x="460" y="623" on="1"/>
        <pt x="460" y="618" on="0"/>
        <pt x="451" y="615" on="0"/>
        <pt x="446" y="613" on="1"/>
        <pt x="441" y="611" on="0"/>
        <pt x="427" y="608" on="0"/>
        <pt x="424" y="611" on="1"/>
        <pt x="420" y="617" on="0"/>
        <pt x="414" y="618" on="1"/>
        <pt x="406" y="616" on="0"/>
        <pt x="393" y="617" on="0"/>
        <pt x="384" y="617" on="1"/>
        <pt x="377" y="618" on="0"/>
        <pt x="362" y="615" on="0"/>
        <pt x="354" y="615" on="1"/>
        <pt x="351" y="615" on="0"/>
        <pt x="346" y="616" on="0"/>
        <pt x="343" y="616" on="1"/>
        <pt x="334" y="617" on="0"/>
        <pt x="316" y="610" on="0"/>
        <pt x="306" y="612" on="1"/>
        <pt x="298" y="613" on="0"/>
        <pt x="287" y="609" on="0"/>
        <pt x="282" y="608" on="1"/>
        <pt x="277" y="607" on="0"/>
        <pt x="271" y="610" on="0"/>
        <pt x="266" y="610" on="1"/>
        <pt x="256" y="610" on="0"/>
        <pt x="238" y="605" on="0"/>
        <pt x="225" y="606" on="1"/>
        <pt x="217" y="608" on="0"/>
        <pt x="211" y="605" on="0"/>
        <pt x="209" y="605" on="1"/>
        <pt x="199" y="604" on="0"/>
        <pt x="189" y="604" on="0"/>
        <pt x="185" y="602" on="1"/>
        <pt x="185" y="596" on="0"/>
        <pt x="188" y="580" on="0"/>
        <pt x="184" y="574" on="1"/>
        <pt x="193" y="553" on="0"/>
        <pt x="194" y="505" on="0"/>
        <pt x="198" y="479" on="1"/>
        <pt x="201" y="478" on="0"/>
        <pt x="211" y="474" on="0"/>
        <pt x="215" y="474" on="1"/>
        <pt x="220" y="474" on="0"/>
        <pt x="233" y="479" on="0"/>
        <pt x="241" y="480" on="1"/>
        <pt x="249" y="482" on="0"/>
        <pt x="255" y="480" on="0"/>
        <pt x="257" y="480" on="1"/>
        <pt x="262" y="480" on="0"/>
        <pt x="271" y="484" on="0"/>
        <pt x="276" y="484" on="1"/>
        <pt x="305" y="482" on="0"/>
        <pt x="369" y="484" on="0"/>
        <pt x="391" y="480" on="1"/>
        <pt x="396" y="479" on="0"/>
        <pt x="404" y="476" on="0"/>
        <pt x="409" y="475" on="1"/>
        <pt x="416" y="473" on="0"/>
        <pt x="428" y="475" on="0"/>
        <pt x="433" y="471" on="1"/>
        <pt x="444" y="458" on="0"/>
        <pt x="437" y="436" on="1"/>
        <pt x="435" y="431" on="0"/>
        <pt x="438" y="415" on="0"/>
        <pt x="437" y="406" on="1"/>
        <pt x="436" y="396" on="0"/>
        <pt x="432" y="379" on="0"/>
        <pt x="431" y="371" on="1"/>
        <pt x="431" y="366" on="0"/>
        <pt x="433" y="357" on="0"/>
        <pt x="432" y="354" on="1"/>
        <pt x="431" y="349" on="0"/>
        <pt x="423" y="336" on="0"/>
        <pt x="421" y="335" on="1"/>
        <pt x="419" y="334" on="0"/>
        <pt x="410" y="332" on="0"/>
        <pt x="408" y="332" on="1"/>
        <pt x="400" y="331" on="0"/>
        <pt x="388" y="335" on="0"/>
        <pt x="381" y="335" on="1"/>
        <pt x="371" y="334" on="0"/>
        <pt x="360" y="336" on="0"/>
        <pt x="353" y="336" on="1"/>
        <pt x="348" y="336" on="0"/>
        <pt x="340" y="333" on="0"/>
        <pt x="335" y="333" on="1"/>
        <pt x="331" y="333" on="0"/>
        <pt x="324" y="335" on="0"/>
        <pt x="319" y="335" on="1"/>
        <pt x="311" y="335" on="0"/>
        <pt x="294" y="334" on="0"/>
        <pt x="285" y="334" on="1"/>
        <pt x="276" y="340" on="0"/>
        <pt x="273" y="334" on="0"/>
        <pt x="268" y="335" on="1"/>
        <pt x="265" y="333" on="0"/>
        <pt x="260" y="337" on="0"/>
        <pt x="257" y="336" on="1"/>
        <pt x="254" y="336" on="0"/>
        <pt x="249" y="333" on="0"/>
        <pt x="246" y="333" on="1"/>
        <pt x="241" y="333" on="0"/>
        <pt x="232" y="336" on="0"/>
        <pt x="227" y="335" on="1"/>
        <pt x="220" y="335" on="0"/>
        <pt x="204" y="335" on="0"/>
        <pt x="193" y="336" on="1"/>
        <pt x="189" y="325" on="0"/>
        <pt x="189" y="299" on="0"/>
        <pt x="194" y="288" on="1"/>
        <pt x="195" y="283" on="0"/>
        <pt x="191" y="279" on="0"/>
        <pt x="189" y="276" on="1"/>
        <pt x="191" y="273" on="0"/>
        <pt x="193" y="269" on="0"/>
        <pt x="193" y="265" on="1"/>
        <pt x="191" y="257" on="0"/>
        <pt x="193" y="251" on="0"/>
        <pt x="193" y="249" on="1"/>
        <pt x="191" y="245" on="0"/>
        <pt x="188" y="239" on="0"/>
        <pt x="188" y="236" on="1"/>
        <pt x="188" y="225" on="0"/>
        <pt x="194" y="219" on="1"/>
        <pt x="189" y="215" on="0"/>
        <pt x="193" y="207" on="0"/>
        <pt x="191" y="203" on="1"/>
        <pt x="190" y="194" on="0"/>
        <pt x="187" y="177" on="0"/>
        <pt x="187" y="169" on="1"/>
        <pt x="187" y="166" on="0"/>
        <pt x="189" y="159" on="0"/>
        <pt x="188" y="155" on="1"/>
        <pt x="188" y="150" on="0"/>
        <pt x="184" y="144" on="0"/>
        <pt x="183" y="139" on="1"/>
        <pt x="181" y="133" on="0"/>
        <pt x="182" y="119" on="0"/>
        <pt x="182" y="112" on="1"/>
        <pt x="183" y="106" on="0"/>
        <pt x="181" y="95" on="0"/>
        <pt x="182" y="90" on="1"/>
        <pt x="183" y="85" on="0"/>
        <pt x="177" y="82" on="0"/>
        <pt x="175" y="79" on="1"/>
        <pt x="181" y="64" on="0"/>
        <pt x="181" y="60" on="1"/>
        <pt x="181" y="56" on="0"/>
        <pt x="179" y="51" on="0"/>
        <pt x="178" y="47" on="1"/>
        <pt x="176" y="40" on="0"/>
        <pt x="178" y="34" on="1"/>
        <pt x="179" y="26" on="0"/>
        <pt x="188" y="14" on="0"/>
        <pt x="188" y="9" on="1"/>
        <pt x="188" y="4" on="0"/>
        <pt x="177" y="-9" on="0"/>
        <pt x="172" y="-10" on="1"/>
        <pt x="168" y="-11" on="0"/>
        <pt x="162" y="-9" on="0"/>
        <pt x="157" y="-7" on="1"/>
        <pt x="152" y="-5" on="0"/>
        <pt x="142" y="2" on="0"/>
        <pt x="134" y="4" on="1"/>
        <pt x="126" y="6" on="0"/>
        <pt x="117" y="6" on="0"/>
        <pt x="111" y="7" on="1"/>
        <pt x="101" y="10" on="0"/>
        <pt x="94" y="9" on="0"/>
        <pt x="91" y="9" on="1"/>
        <pt x="86" y="9" on="0"/>
        <pt x="75" y="13" on="0"/>
        <pt x="69" y="11" on="1"/>
        <pt x="66" y="15" on="0"/>
        <pt x="55" y="25" on="0"/>
        <pt x="53" y="30" on="1"/>
        <pt x="55" y="39" on="0"/>
        <pt x="61" y="45" on="0"/>
        <pt x="66" y="48" on="1"/>
        <pt x="66" y="53" on="0"/>
        <pt x="59" y="56" on="0"/>
        <pt x="59" y="61" on="1"/>
        <pt x="61" y="72" on="0"/>
        <pt x="56" y="92" on="0"/>
        <pt x="57" y="102" on="1"/>
        <pt x="57" y="107" on="0"/>
        <pt x="59" y="113" on="0"/>
        <pt x="59" y="116" on="1"/>
        <pt x="57" y="126" on="0"/>
        <pt x="57" y="131" on="1"/>
        <pt x="58" y="135" on="0"/>
        <pt x="60" y="142" on="0"/>
        <pt x="61" y="147" on="1"/>
        <pt x="60" y="161" on="0"/>
        <pt x="62" y="175" on="0"/>
        <pt x="63" y="180" on="1"/>
        <pt x="65" y="185" on="0"/>
        <pt x="64" y="195" on="0"/>
        <pt x="68" y="199" on="1"/>
        <pt x="62" y="207" on="0"/>
        <pt x="69" y="221" on="0"/>
        <pt x="70" y="229" on="1"/>
        <pt x="68" y="237" on="0"/>
        <pt x="70" y="241" on="0"/>
        <pt x="70" y="243" on="1"/>
        <pt x="73" y="248" on="0"/>
        <pt x="68" y="263" on="0"/>
        <pt x="68" y="268" on="1"/>
        <pt x="67" y="276" on="0"/>
        <pt x="70" y="293" on="0"/>
        <pt x="72" y="301" on="1"/>
        <pt x="69" y="306" on="0"/>
        <pt x="69" y="324" on="0"/>
        <pt x="69" y="332" on="1"/>
        <pt x="70" y="341" on="0"/>
        <pt x="68" y="349" on="0"/>
        <pt x="68" y="352" on="1"/>
        <pt x="68" y="356" on="0"/>
        <pt x="72" y="365" on="0"/>
        <pt x="73" y="369" on="1"/>
        <pt x="73" y="370" on="0"/>
        <pt x="72" y="375" on="0"/>
        <pt x="72" y="377" on="1"/>
        <pt x="72" y="383" on="1"/>
        <pt x="72" y="393" on="0"/>
        <pt x="69" y="402" on="0"/>
        <pt x="67" y="407" on="1"/>
        <pt x="65" y="417" on="0"/>
        <pt x="61" y="428" on="0"/>
        <pt x="61" y="431" on="1"/>
        <pt x="62" y="436" on="0"/>
        <pt x="61" y="441" on="0"/>
        <pt x="61" y="443" on="1"/>
        <pt x="61" y="448" on="0"/>
        <pt x="66" y="455" on="0"/>
        <pt x="67" y="460" on="1"/>
        <pt x="69" y="468" on="0"/>
        <pt x="68" y="484" on="0"/>
        <pt x="68" y="493" on="1"/>
        <pt x="69" y="501" on="0"/>
        <pt x="68" y="505" on="0"/>
        <pt x="68" y="507" on="1"/>
        <pt x="69" y="517" on="0"/>
        <pt x="70" y="533" on="0"/>
        <pt x="70" y="541" on="1"/>
        <pt x="71" y="549" on="0"/>
        <pt x="67" y="566" on="0"/>
        <pt x="68" y="577" on="1"/>
        <pt x="68" y="579" on="0"/>
        <pt x="68" y="593" on="0"/>
        <pt x="70" y="597" on="1"/>
        <pt x="68" y="599" on="0"/>
        <pt x="67" y="606" on="0"/>
        <pt x="65" y="608" on="1"/>
        <pt x="67" y="612" on="0"/>
        <pt x="67" y="622" on="0"/>
        <pt x="66" y="631" on="0"/>
        <pt x="67" y="639" on="0"/>
        <pt x="71" y="641" on="1"/>
        <pt x="67" y="648" on="0"/>
        <pt x="65" y="664" on="0"/>
        <pt x="64" y="682" on="0"/>
        <pt x="62" y="700" on="0"/>
        <pt x="58" y="708" on="1"/>
        <pt x="55" y="714" on="0"/>
        <pt x="46" y="725" on="0"/>
        <pt x="46" y="731" on="1"/>
        <pt x="46" y="736" on="0"/>
        <pt x="52" y="743" on="0"/>
        <pt x="53" y="748" on="1"/>
        <pt x="57" y="746" on="0"/>
        <pt x="67" y="751" on="0"/>
        <pt x="73" y="749" on="1"/>
        <pt x="86" y="745" on="0"/>
        <pt x="102" y="749" on="0"/>
        <pt x="105" y="742" on="1"/>
        <pt x="110" y="742" on="0"/>
        <pt x="113" y="748" on="0"/>
        <pt x="118" y="748" on="1"/>
        <pt x="132" y="750" on="0"/>
        <pt x="161" y="748" on="0"/>
        <pt x="175" y="750" on="1"/>
        <pt x="179" y="750" on="0"/>
        <pt x="186" y="752" on="0"/>
        <pt x="190" y="753" on="1"/>
        <pt x="208" y="754" on="0"/>
        <pt x="244" y="751" on="0"/>
        <pt x="261" y="753" on="1"/>
        <pt x="265" y="753" on="0"/>
        <pt x="272" y="755" on="0"/>
        <pt x="276" y="756" on="1"/>
        <pt x="287" y="757" on="0"/>
        <pt x="307" y="756" on="0"/>
        <pt x="317" y="757" on="1"/>
        <pt x="324" y="757" on="0"/>
        <pt x="336" y="757" on="0"/>
        <pt x="342" y="756" on="1"/>
        <pt x="356" y="760" on="0"/>
        <pt x="381" y="757" on="0"/>
        <pt x="389" y="757" on="1"/>
        <pt x="406" y="757" on="0"/>
        <pt x="438" y="757" on="0"/>
        <pt x="455" y="752" on="1"/>
        <pt x="459" y="743" on="0"/>
        <pt x="458" y="732" on="1"/>
        <pt x="460" y="727" on="0"/>
        <pt x="463" y="717" on="0"/>
      </contour>
    </TTGlyph>
</ttFont>
